                        <svg width="40" height="40" viewBox="0 0 40 40" fill="none" xmlns="http://www.w3.org/2000/svg">
                            <g opacity="0.4">
                            <path d="M31.1118 18.5V27.6667C31.1118 29.2008 29.8681 30.4444 28.334 30.4444H6.11176C4.57764 30.4444 3.33398 29.2008 3.33398 27.6667V13.7778C3.33398 12.2437 4.57764 11 6.11176 11H17.2229M17.2229 11V6.5C17.2229 5.39543 18.1183 4.5 19.2229 4.5H34.5005C35.6051 4.5 36.5005 5.39543 36.5005 6.5V16.5C36.5005 17.6046 35.6051 18.5 34.5005 18.5H19.2229C18.1183 18.5 17.2229 17.6046 17.2229 16.5V11Z" stroke="black" stroke-width="2" stroke-linecap="round" stroke-linejoin="round"/>
                            <path d="M11.667 36H22.7781" stroke="black" stroke-width="2" stroke-linecap="round" stroke-linejoin="round"/>
                            <path d="M17.2227 30.4444V35.9999" stroke="black" stroke-width="2" stroke-linecap="round" stroke-linejoin="round"/>
                            </g>
                        </svg>