  <svg width="40" height="40" viewBox="0 0 40 40" fill="none" xmlns="http://www.w3.org/2000/svg">
                            <path d="M17.6427 3.50084L3.50058 17.643C2.19883 18.9447 2.19883 21.0553 3.50058 22.357L17.6427 36.4992C18.9445 37.8009 21.055 37.8009 22.3568 36.4992L36.4989 22.357C37.8006 21.0553 37.8006 18.9447 36.4989 17.643L22.3568 3.50084C21.055 2.19909 18.9445 2.19909 17.6427 3.50084Z" stroke="#14B082" stroke-width="2" stroke-linecap="round" stroke-linejoin="round"/>
                            <path d="M12.3395 20.589C12.665 20.2636 12.665 19.7359 12.3395 19.4105C12.0141 19.0851 11.4865 19.0851 11.161 19.4105C10.8356 19.7359 10.8356 20.2636 11.161 20.589C11.4865 20.9144 12.0141 20.9144 12.3395 20.589Z" fill="white" stroke="#14B082" stroke-width="2" stroke-linecap="round" stroke-linejoin="round"/>
                            <path d="M20.5891 12.3395C20.9145 12.0141 20.9145 11.4864 20.5891 11.161C20.2636 10.8356 19.736 10.8356 19.4105 11.161C19.0851 11.4864 19.0851 12.0141 19.4105 12.3395C19.736 12.6649 20.2636 12.6649 20.5891 12.3395Z" fill="white" stroke="#14B082" stroke-width="2" stroke-linecap="round" stroke-linejoin="round"/>
                            <path d="M28.8386 20.589C29.164 20.2636 29.164 19.7359 28.8386 19.4105C28.5131 19.0851 27.9855 19.0851 27.6601 19.4105C27.3346 19.7359 27.3346 20.2636 27.6601 20.589C27.9855 20.9144 28.5131 20.9144 28.8386 20.589Z" fill="white" stroke="#14B082" stroke-width="2" stroke-linecap="round" stroke-linejoin="round"/>
                            <path d="M20.5891 28.8385C20.9145 28.5131 20.9145 27.9854 20.5891 27.66C20.2636 27.3346 19.736 27.3346 19.4105 27.66C19.0851 27.9854 19.0851 28.5131 19.4105 28.8385C19.736 29.164 20.2636 29.164 20.5891 28.8385Z" fill="white" stroke="#14B082" stroke-width="2" stroke-linecap="round" stroke-linejoin="round"/>
                        </svg>