 <svg width="40" height="40" viewBox="0 0 40 40" fill="none" xmlns="http://www.w3.org/2000/svg">
                            <path d="M20 13.3333C17.2383 13.3333 15 14.825 15 16.6667C15 18.5083 17.2383 20 20 20C22.7617 20 25 21.4917 25 23.3333C25 25.175 22.7617 26.6667 20 26.6667M20 13.3333C21.85 13.3333 23.4667 14.0033 24.3317 15M20 13.3333V11.6667M20 13.3333V26.6667M20 26.6667V28.3333M20 26.6667C18.15 26.6667 16.5333 25.9967 15.6683 25M35 20C35 21.9698 34.612 23.9204 33.8582 25.7403C33.1044 27.5601 31.9995 29.2137 30.6066 30.6066C29.2137 31.9995 27.5601 33.1044 25.7403 33.8582C23.9204 34.612 21.9698 35 20 35C18.0302 35 16.0796 34.612 14.2597 33.8582C12.4399 33.1044 10.7863 31.9995 9.3934 30.6066C8.00052 29.2137 6.89563 27.5601 6.14181 25.7403C5.38799 23.9204 5 21.9698 5 20C5 16.0218 6.58035 12.2064 9.3934 9.3934C12.2064 6.58035 16.0218 5 20 5C23.9782 5 27.7936 6.58035 30.6066 9.3934C33.4196 12.2064 35 16.0218 35 20Z" stroke="#14B082" stroke-width="2" stroke-linecap="round" stroke-linejoin="round"/>
                        </svg>