<svg width="40" height="40" viewBox="0 0 40 40" fill="none" xmlns="http://www.w3.org/2000/svg">
                            <g opacity="0.4">
                            <path d="M30 13.3333C30 10.6812 28.9464 8.13763 27.0711 6.26227C25.1957 4.3869 22.6522 3.33334 20 3.33334C17.3478 3.33334 14.8043 4.3869 12.9289 6.26227C11.0536 8.13763 10 10.6812 10 13.3333C10 25 5 28.3333 5 28.3333H35C35 28.3333 30 25 30 13.3333Z" stroke="black" stroke-width="2" stroke-linecap="round" stroke-linejoin="round"/>
                            <path d="M25 34C24.4919 34.9125 23.7626 35.6699 22.885 36.1964C22.0075 36.7229 21.0127 37 20 37C18.9873 37 17.9925 36.7229 17.115 36.1964C16.2374 35.6699 15.5081 34.9125 15 34" stroke="black" stroke-width="2" stroke-linecap="round" stroke-linejoin="round"/>
                            </g>
                        </svg>