<svg width="56" height="56" viewBox="0 0 56 56" fill="none" xmlns="http://www.w3.org/2000/svg">
                            <circle opacity="0.1" cx="28" cy="28" r="28" fill="#14B082"/>
                            <path d="M28.2002 34V36.8" stroke="#14B082" stroke-width="2" stroke-linecap="round" stroke-linejoin="round"/>
                            <path d="M21.5332 41.3333H34.8665V39.9999C34.8665 38.5333 33.6665 37.3333 32.1999 37.3333H24.1999C22.7332 37.3333 21.5332 38.5333 21.5332 39.9999V41.3333V41.3333Z" stroke="#14B082" stroke-width="2" stroke-miterlimit="10"/>
                            <path d="M20.2002 41.3333H36.2002" stroke="#14B082" stroke-width="2" stroke-linecap="round" stroke-linejoin="round"/>
                            <path d="M27.9998 33.3334C22.8398 33.3334 18.6665 29.1601 18.6665 24.0001V20.0001C18.6665 17.0534 21.0532 14.6667 23.9998 14.6667H31.9998C34.9465 14.6667 37.3332 17.0534 37.3332 20.0001V24.0001C37.3332 29.1601 33.1598 33.3334 27.9998 33.3334Z" stroke="#14B082" stroke-width="2" stroke-linecap="round" stroke-linejoin="round"/>
                            <path d="M19.2935 27.5334C18.2935 27.2134 17.4135 26.6267 16.7202 25.9334C15.5202 24.6 14.7202 23 14.7202 21.1334C14.7202 19.2667 16.1869 17.8 18.0535 17.8H18.9202C18.6535 18.4134 18.5202 19.0934 18.5202 19.8V23.8C18.5202 25.1334 18.8002 26.3867 19.2935 27.5334Z" stroke="#14B082" stroke-width="2" stroke-linecap="round" stroke-linejoin="round"/>
                            <path d="M36.7065 27.5334C37.7065 27.2134 38.5865 26.6267 39.2799 25.9334C40.4799 24.6 41.2799 23 41.2799 21.1334C41.2799 19.2667 39.8132 17.8 37.9465 17.8H37.0799C37.3465 18.4134 37.4799 19.0934 37.4799 19.8V23.8C37.4799 25.1334 37.1999 26.3867 36.7065 27.5334Z" stroke="#14B082" stroke-width="2" stroke-linecap="round" stroke-linejoin="round"/>
                        </svg>