<svg width="78" height="41" viewBox="0 0 78 41" fill="none" xmlns="http://www.w3.org/2000/svg">
<path d="M60.1829 33.0513H59.4629V36.6256H61.7772V35.9313H60.1829V33.0513Z" fill="#DC143C"/>
<path d="M57.5089 33.5143C57.1746 33.18 56.7375 33 56.2232 33C55.7089 33 55.2717 33.18 54.9117 33.54C54.5775 33.9 54.3975 34.3371 54.3975 34.8514C54.3975 35.3914 54.5775 35.8286 54.9117 36.1629C55.2717 36.4971 55.7089 36.6771 56.2232 36.6771C56.7375 36.6771 57.1746 36.4971 57.5346 36.1629C57.8689 35.8029 58.0489 35.3657 58.0489 34.8514C58.0232 34.3114 57.8432 33.8743 57.5089 33.5143ZM56.9689 35.6486C56.7632 35.8543 56.506 35.9571 56.1975 35.9571C55.8889 35.9571 55.6317 35.8543 55.426 35.6486C55.2203 35.4171 55.1175 35.16 55.1175 34.8257C55.1175 34.4914 55.2203 34.2086 55.426 34.0029C55.6317 33.7971 55.8889 33.6943 56.1975 33.6943C56.506 33.6943 56.7632 33.7971 56.9689 34.0286C57.1746 34.26 57.2775 34.5171 57.2775 34.8514C57.2775 35.16 57.1746 35.4429 56.9689 35.6486Z" fill="#DC143C"/>
<path d="M52.1857 34.4656H50.72V33.0513H50V36.6256H50.72V35.1598H52.1857V36.6256H52.9057V33.0513H52.1857V34.4656Z" fill="#DC143C"/>
<path d="M72.1916 35.3141L70.4173 33.0513H69.8516V36.6256H70.5459V34.3627L72.3459 36.6256H72.8858V33.0513H72.1916V35.3141Z" fill="#DC143C"/>
<path d="M65.9946 34.1313C65.9174 33.9256 65.7889 33.7456 65.6346 33.5656C65.4803 33.3856 65.2746 33.257 64.9917 33.1798C64.7346 33.077 64.4517 33.0513 64.1174 33.0513C64.0917 33.0513 63.9374 33.0513 63.6803 33.0513C63.5517 33.0513 63.4231 33.0513 63.2946 33.0513H63.0889V36.6256H63.2946C63.4489 36.6256 63.5774 36.6256 63.706 36.6256C63.8346 36.6256 63.9632 36.6256 64.0917 36.6256C64.7346 36.6256 65.2232 36.4456 65.5832 36.1113C65.9432 35.777 66.1231 35.3141 66.1231 34.7998C66.1231 34.5684 66.0717 34.337 65.9946 34.1313ZM65.0431 35.6227C64.8117 35.8284 64.5032 35.9313 64.0917 35.9313H64.0403C64.0146 35.9313 63.9374 35.9313 63.8603 35.9313C63.8346 35.9313 63.8089 35.9313 63.7832 35.9313V33.7456C63.8089 33.7456 63.8346 33.7456 63.8603 33.7456C63.9632 33.7456 64.0403 33.7456 64.1174 33.7456C64.5289 33.7456 64.8374 33.8484 65.0689 34.0541C65.2746 34.2598 65.3774 34.4913 65.3774 34.8256C65.3774 35.1341 65.2746 35.417 65.0431 35.6227Z" fill="#DC143C"/>
<path d="M75.869 34.6457V35.34H76.7433V35.7771C76.6662 35.8286 76.589 35.88 76.4862 35.9057C76.3319 35.9571 76.2033 35.9829 76.0747 35.9829C75.7404 35.9829 75.4833 35.88 75.3033 35.6743C75.0976 35.4686 75.0205 35.1857 75.0205 34.8514C75.0205 34.4914 75.1233 34.2343 75.3033 34.0286C75.509 33.8229 75.7662 33.72 76.0747 33.72C76.3833 33.72 76.6147 33.7971 76.769 33.9257L76.9233 34.0543L77.2576 33.4371L77.1547 33.36C76.8719 33.1286 76.4862 33 76.0233 33C75.509 33 75.0719 33.18 74.7376 33.54C74.429 33.9 74.249 34.3371 74.249 34.8514C74.249 35.3914 74.4033 35.8543 74.7376 36.1886C75.0719 36.5229 75.509 36.7029 76.049 36.7029C76.2805 36.7029 76.5119 36.6514 76.769 36.5743C77.0262 36.4971 77.2319 36.3686 77.3862 36.2143L77.4376 36.1629V34.6971H75.869V34.6457Z" fill="#DC143C"/>
<path d="M68.2054 33.0513H67.4854V36.6256H68.2054V33.0513Z" fill="#DC143C"/>
<path d="M27.9771 15.6343H25.5086C23.8371 15.6343 22.5 16.9971 22.5 18.6429V25.7143C22.5 27.3857 23.8629 28.7228 25.5086 28.7228H26.1257C27.1029 28.7228 27.6943 28.4914 28.0029 28.1828C28.0286 28.4914 28.26 28.7228 28.5943 28.7228H30.2657L30.24 15.6343H27.9771ZM27.9771 25.0971C27.9771 25.9457 27.3343 26.5886 26.4857 26.5886H25.5086C24.9943 26.5886 24.7371 26.3057 24.7371 25.7143V18.6429C24.7371 18.0514 24.9943 17.7686 25.5086 17.7686H27.9771V25.0971Z" fill="#0A00BE"/>
<path d="M65.4169 20.4428H67.6798V18.4114C67.6798 16.74 66.3169 15.4028 64.6712 15.4028H62.8455C61.1741 15.4028 59.8369 16.7657 59.8369 18.4114V25.74C59.8369 27.4114 61.1998 28.7485 62.8455 28.7485H64.6712C66.3426 28.7485 67.6798 27.3857 67.6798 25.74V23.7085H65.4169V25.74C65.4169 26.3314 65.1598 26.6143 64.6455 26.6143H62.8198C62.3055 26.6143 62.0483 26.3314 62.0483 25.74V18.4114C62.0483 17.82 62.3055 17.5371 62.8198 17.5371H64.6455C65.1598 17.5371 65.4169 17.82 65.4169 18.4114V20.4428Z" fill="#0A00BE"/>
<path d="M74.3662 15.6084H71.8976V11.1084H69.6348V28.7484H71.8976V17.7427H74.3662C74.8805 17.7427 75.1376 18.0255 75.1376 18.617V28.7227H77.4005V18.617C77.3748 16.9455 76.0376 15.6084 74.3662 15.6084Z" fill="#0A00BE"/>
<path d="M40.0632 11.1084H37.8004V15.6084H35.3318C33.6604 15.6084 32.3232 16.9713 32.3232 18.617V25.6884C32.3232 27.3598 33.6861 28.697 35.3318 28.697H35.949C36.9261 28.697 37.5175 28.5427 37.8261 28.2341C37.8518 28.5427 38.0575 28.7227 38.3918 28.7227H40.0632V11.1084ZM37.8261 17.7427V25.097C37.8261 25.9455 37.1832 26.5884 36.3347 26.5884H35.3575C34.8432 26.5884 34.5861 26.3055 34.5861 25.7141V18.6427C34.5861 18.0513 34.8432 17.7684 35.3575 17.7684H37.8261V17.7427Z" fill="#0A00BE"/>
<path d="M57.0861 23.0143C57.3946 23.0143 57.6518 22.7571 57.6518 22.4485V18.4114C57.6518 16.74 56.2889 15.4028 54.6432 15.4028H52.9461C51.2746 15.4028 49.9375 16.7657 49.9375 18.4114V25.74C49.9375 27.4114 51.3004 28.7485 52.9461 28.7485H54.6432C56.3146 28.7485 57.6518 27.3857 57.6518 25.74V24.3771H55.4146V25.74C55.4146 26.3314 55.1575 26.6143 54.6432 26.6143H52.9461C52.4318 26.6143 52.1746 26.3314 52.1746 25.74V23.0143H57.0861ZM52.1746 18.4114C52.1746 17.82 52.4318 17.5371 52.9461 17.5371H54.6432C55.1575 17.5371 55.4146 17.82 55.4146 18.4114V20.88H52.1746V18.4114Z" fill="#0A00BE"/>
<path d="M17.9487 19.5173H15.5059V14.8116C15.5059 11.4173 18.2573 8.64014 21.6773 8.64014H26.6916V11.083H21.8573C19.6973 11.083 17.923 12.8316 17.923 15.0173V19.5173H17.9487Z" fill="#DC143C"/>
<path d="M15.5314 0H17.9743V4.93714C17.9743 8.33143 15.2229 11.1086 11.8029 11.1086H0V8.66571H11.5971C13.7571 8.66571 15.5314 6.91715 15.5314 4.73143V0Z" fill="#DC143C"/>
<path d="M48.7541 26.6141H45.3084C44.8712 26.6141 44.6398 26.4084 44.5627 25.997C44.5627 25.997 44.5627 21.7284 44.5627 17.7427H46.5684C47.7512 17.7427 48.7284 16.9198 48.7284 15.7113V15.6084H44.537C44.537 13.0884 44.537 11.1084 44.537 11.1084H42.2998V25.7141C42.2998 25.7398 42.2998 25.7655 42.2998 25.7913V25.997C42.2998 26.0227 42.2998 26.0484 42.2998 26.0741C42.4284 27.7198 43.5855 28.7484 45.3084 28.7484H48.7541C48.7541 28.7227 48.7541 26.6141 48.7541 26.6141Z" fill="#0A00BE"/>
</svg>
