 <svg width="80" height="80" viewBox="0 0 80 80" fill="none" xmlns="http://www.w3.org/2000/svg">
                           <circle opacity="0.1" cx="40" cy="40" r="40" fill="#14B082"/>
                           <path d="M26.666 41.6667C29.6378 42.0199 32.4044 43.3626 34.5206 45.4788C36.6368 47.595 37.9795 50.3616 38.3327 53.3334C39.8059 52.4841 41.0382 51.2731 41.9131 49.815C42.788 48.3568 43.2766 46.6996 43.3327 45.0001C46.1312 44.0156 48.575 42.2234 50.3549 39.8501C52.1349 37.4768 53.1712 34.629 53.3327 31.6667C53.3327 30.3407 52.8059 29.0689 51.8682 28.1312C50.9305 27.1935 49.6588 26.6667 48.3327 26.6667C45.3705 26.8283 42.5226 27.8645 40.1493 29.6445C37.776 31.4245 35.9838 33.8682 34.9993 36.6667C33.2998 36.7229 31.6426 37.2115 30.1845 38.0864C28.7263 38.9613 27.5153 40.1935 26.666 41.6667" stroke="#14B082" stroke-width="1.5" stroke-linecap="round" stroke-linejoin="round"/>
                           <path d="M31.6658 43.3333C29.9312 44.3125 28.5286 45.7876 27.6378 47.5692C26.7469 49.3509 26.4085 51.358 26.6658 53.3333C28.6411 53.5906 30.6482 53.2522 32.4299 52.3613C34.2115 51.4705 35.6866 50.0679 36.6658 48.3333" stroke="#14B082" stroke-width="1.5" stroke-linecap="round" stroke-linejoin="round"/>
                           <path d="M45.0007 36.6666C45.9211 36.6666 46.6673 35.9204 46.6673 34.9999C46.6673 34.0794 45.9211 33.3333 45.0007 33.3333C44.0802 33.3333 43.334 34.0794 43.334 34.9999C43.334 35.9204 44.0802 36.6666 45.0007 36.6666Z" stroke="#14B082" stroke-width="1.5" stroke-linecap="round" stroke-linejoin="round"/>
                        </svg> 