<svg width="81" height="80" viewBox="0 0 81 80" fill="none" xmlns="http://www.w3.org/2000/svg">
                           <circle opacity="0.1" cx="40.2383" cy="40" r="40" fill="#14B082"/>
                           <g clip-path="url(#clip0_1012_1888)">
                           <path d="M40.0007 38.3333C43.6826 38.3333 46.6673 35.3486 46.6673 31.6667C46.6673 27.9848 43.6826 25 40.0007 25C36.3188 25 33.334 27.9848 33.334 31.6667C33.334 35.3486 36.3188 38.3333 40.0007 38.3333Z" stroke="#14B082" stroke-width="1.5" stroke-linecap="round" stroke-linejoin="round"/>
                           <path d="M30 55V51.6667C30 49.8986 30.7024 48.2029 31.9526 46.9526C33.2029 45.7024 34.8986 45 36.6667 45H38.3333" stroke="#14B082" stroke-width="1.5" stroke-linecap="round" stroke-linejoin="round"/>
                           <path d="M47.5007 53.3333C49.8018 53.3333 51.6673 51.4679 51.6673 49.1667C51.6673 46.8655 49.8018 45 47.5007 45C45.1995 45 43.334 46.8655 43.334 49.1667C43.334 51.4679 45.1995 53.3333 47.5007 53.3333Z" stroke="#14B082" stroke-width="1.5" stroke-linecap="round" stroke-linejoin="round"/>
                           <path d="M50.834 52.5L55.0007 56.6667" stroke="#14B082" stroke-width="1.5" stroke-linecap="round" stroke-linejoin="round"/>
                           </g>
                           <defs>
                           <clipPath id="clip0_1012_1888">
                           <rect width="40" height="40" fill="white" transform="translate(20 20)"/>
                           </clipPath>
                           </defs>
                        </svg>