<svg width="28" height="28" viewBox="0 0 28 28" fill="none" xmlns="http://www.w3.org/2000/svg">
                            <path d="M25.4092 14.1758C25.1199 12.9187 24.0916 11.9914 22.854 11.8534C19.9239 11.5261 16.9567 11.5245 14.0041 11.5261C11.0502 11.5245 8.08369 11.5261 5.15267 11.8534C3.91567 11.9917 2.88802 12.919 2.59899 14.1758C2.18707 15.9658 2.18213 17.9198 2.18213 19.763C2.18213 21.6061 2.18213 23.5598 2.59405 25.3499C2.88308 26.6067 3.91073 27.5339 5.14835 27.6723C8.07875 27.9999 11.0453 28.0011 13.9988 27.9999C16.9527 28.0015 19.9186 27.9999 22.8499 27.6723C24.087 27.5339 25.1152 26.6067 25.4042 25.3499C25.8159 23.5598 25.818 21.6061 25.818 19.763C25.8177 17.9195 25.8208 15.9658 25.4092 14.1758ZM8.9239 15.5632H7.21322V24.6533H5.62419V15.5632H3.94469V14.0742H8.9239V15.5632ZM13.2398 24.6536H11.8105V23.7936C11.2426 24.4445 10.7035 24.762 10.1782 24.762C9.7178 24.762 9.40098 24.5754 9.25801 24.1762C9.1802 23.9378 9.13203 23.5605 9.13203 23.004V16.7708H10.5602V22.5745C10.5602 22.9092 10.5602 23.0831 10.5731 23.13C10.6074 23.3517 10.7158 23.4641 10.9073 23.4641C11.1938 23.4641 11.4933 23.2433 11.8102 22.7953V16.7708H13.2395L13.2398 24.6536ZM18.6662 22.2876C18.6662 23.0167 18.6171 23.5419 18.5217 23.876C18.3308 24.4624 17.9489 24.762 17.3807 24.762C16.8724 24.762 16.3821 24.4797 15.9044 23.8899V24.6539H14.4762V14.0742H15.9044V17.5292C16.3657 16.9613 16.8554 16.6742 17.3807 16.6742C17.9489 16.6742 18.3311 16.9734 18.5217 17.5635C18.6177 17.8806 18.6662 18.4018 18.6662 19.1482V22.2876ZM24.0567 20.9725H21.2001V22.3698C21.2001 23.0994 21.4388 23.4638 21.9298 23.4638C22.2815 23.4638 22.4862 23.2727 22.5677 22.891C22.581 22.8135 22.5998 22.4961 22.5998 21.9233H24.057V22.1317C24.057 22.5921 24.0394 22.9092 24.0264 23.0519C23.9786 23.3681 23.8662 23.655 23.6929 23.9075C23.2974 24.48 22.7113 24.7623 21.9653 24.7623C21.218 24.7623 20.6492 24.4933 20.2364 23.9551C19.9334 23.5605 19.7778 22.9392 19.7778 22.1014V19.3406C19.7778 18.4979 19.9158 17.8815 20.2194 17.4832C20.6319 16.9437 21.2004 16.6751 21.9301 16.6751C22.6468 16.6751 23.2149 16.9437 23.6151 17.4832C23.9143 17.8815 24.0573 18.4979 24.0573 19.3406V20.9725H24.0567Z" fill="#12141D"></path>
                            <path d="M21.9171 17.96C21.4398 17.96 21.2004 18.3246 21.2004 19.0534V19.7827H22.6286V19.0534C22.6283 18.3246 22.3896 17.96 21.9171 17.96Z" fill="#12141D"></path>
                            <path d="M16.6164 17.96C16.3811 17.96 16.1427 18.0711 15.9041 18.3073V23.1118C16.1424 23.3508 16.3811 23.4638 16.6164 23.4638C17.0284 23.4638 17.2377 23.1118 17.2377 22.4V19.0355C17.2377 18.3246 17.0284 17.96 16.6164 17.96Z" fill="#12141D"></path>
                            <path d="M17.4144 10.7994C17.9408 10.7994 18.4886 10.4795 19.0633 9.82113V10.6901H20.5069V2.72363H19.0633V8.81232C18.7434 9.26439 18.4401 9.48795 18.1514 9.48795C17.9581 9.48795 17.8445 9.3737 17.813 9.14983C17.7954 9.10258 17.7954 8.92688 17.7954 8.58876V2.72363H16.3564V9.02291C16.3564 9.58553 16.4046 9.96626 16.4843 10.2074C16.6294 10.611 16.9496 10.7994 17.4144 10.7994Z" fill="#12141D"></path>
                            <path d="M7.36489 6.36042V10.6899H8.96565V6.36042L10.8913 0H9.27258L8.1804 4.19798L7.04406 0H5.35962C5.69712 0.990902 6.04822 1.98674 6.38572 2.97857C6.89924 4.4694 7.21976 5.59339 7.36489 6.36042Z" fill="#12141D"></path>
                            <path d="M13.0365 10.799C13.7597 10.799 14.3217 10.527 14.7204 9.98353C15.0233 9.58488 15.1684 8.95681 15.1684 8.11011V5.32051C15.1684 4.46888 15.0236 3.84636 14.7204 3.44401C14.3217 2.899 13.76 2.62695 13.0365 2.62695C12.3171 2.62695 11.7554 2.899 11.3558 3.44401C11.0492 3.84636 10.9041 4.46888 10.9041 5.32051V8.11011C10.9041 8.95681 11.0492 9.58488 11.3558 9.98353C11.7551 10.527 12.3171 10.799 13.0365 10.799ZM12.3476 5.03118C12.3476 4.2941 12.5712 3.92664 13.0365 3.92664C13.5019 3.92664 13.7248 4.29379 13.7248 5.03118V8.38215C13.7248 9.11923 13.5019 9.48792 13.0365 9.48792C12.5712 9.48792 12.3476 9.11923 12.3476 8.38215V5.03118Z" fill="#12141D"></path>
                        </svg>