<svg width="166" height="25" viewBox="0 0 166 25" fill="none" xmlns="http://www.w3.org/2000/svg">
<g clip-path="url(#clip0_181_504)">
<path fill-rule="evenodd" clip-rule="evenodd" d="M1.85596 0.5C1.1477 0.5 0.391321 0.500011 0.142877 0.500004C0.142822 0.735513 0.142822 0.899993 0.142822 1.32376V4.5H40.1428L40.1431 0.500406C39.1562 0.500262 39.5493 0.5 38.3633 0.5H1.85596Z" fill="#1A1F71"/>
<path fill-rule="evenodd" clip-rule="evenodd" d="M0.142661 23.3543C0.142661 24.1111 0.142578 23.6767 0.142578 24.5H40.1427C40.1426 23.6767 40.1427 24.1112 40.1427 23.3543V20.5H0.142661V23.3543Z" fill="#F7B600"/>
<path fill-rule="evenodd" clip-rule="evenodd" d="M13.3199 9.3725C13.3199 9.58752 13.2865 9.75276 13.2035 9.86869L10.2912 14.9129L10.108 8.76062H5.44849L7.0127 9.50479C7.46191 9.78595 7.69497 10.1496 7.69497 10.6129L8.12748 17.1456H10.4074L15.866 8.76062H13.0704C13.2366 8.9095 13.3199 9.14088 13.3199 9.3725ZM32.1582 9.00859L32.341 8.76038H29.4952C29.5949 8.85948 29.6283 8.90926 29.6283 8.94222C29.5947 9.07427 29.5281 9.15724 29.4952 9.25634L25.3515 16.7644C25.2518 16.8967 25.1516 17.0126 25.0354 17.1452H27.3818L27.2652 16.8969C27.2652 16.6819 27.3818 16.2853 27.6314 15.723L28.1307 14.7967H30.5437C30.6439 15.5741 30.7104 16.2191 30.7436 16.699L30.5437 17.1454H33.456L33.0232 16.5169L32.1582 9.00859ZM30.4273 13.6227H28.6965L30.1775 10.7947L30.4273 13.6227ZM23.2381 8.33057C22.3397 8.33057 21.5739 8.57878 20.8917 9.07474C20.1426 9.50478 19.7767 10.0505 19.7767 10.7288C19.7767 11.5061 20.0429 12.1842 20.5754 12.6967L22.1899 13.8046C22.7725 14.2183 23.0554 14.5819 23.0554 14.9129C23.0554 15.227 22.9051 15.5082 22.6226 15.7232C22.3397 15.9382 22.0232 16.0373 21.624 16.0373C21.0415 16.0373 20.0431 15.6241 18.6619 14.8633V16.4012C19.7435 17.0463 20.7922 17.3772 21.807 17.3772C22.7725 17.3772 23.5878 17.1124 24.287 16.5171C25.0359 15.9712 25.4018 15.3266 25.4018 14.6153C25.4018 14.0196 25.1354 13.4741 24.5363 12.8952L22.9883 11.7871C22.4731 11.3736 22.1899 11.0097 22.1899 10.7288C22.1899 10.0839 22.5725 9.753 23.3548 9.753C23.8872 9.753 24.6695 10.0508 25.7177 10.6792L26.0342 9.07497C25.1518 8.57854 24.2367 8.33057 23.2381 8.33057ZM17.0476 17.1454C17.0142 16.7981 16.9476 16.484 16.9142 16.153L19.0278 9.3725L19.5271 8.76062H16.4817C16.5151 8.9095 16.5483 9.10792 16.5817 9.25681C16.5817 9.40569 16.5817 9.58776 16.5483 9.753L14.4349 16.4674L14.0022 17.1456H17.0476V17.1454Z" fill="#1A1F71"/>
</g>
<g clip-path="url(#clip1_181_504)">
<path d="M87 24.5H48.1428V0.499998H87V24.5Z" fill="white"/>
<path d="M48.7896 20.5997H86.3514V23.8745H48.7896V20.5997Z" fill="#F7B600"/>
<path d="M48.7896 4.40381H86.3514V1.12936H48.7896V4.40381Z" fill="#1A1F71"/>
<mask id="mask0_181_504" style="mask-type:alpha" maskUnits="userSpaceOnUse" x="12" y="-57" width="111" height="139">
<path d="M12.415 -56.9028H122.511V81.6313H12.415V-56.9028Z" fill="white"/>
</mask>
<g mask="url(#mask0_181_504)">
<path d="M66.8241 7.36003L64.9417 15.9164H62.6649L64.5473 7.36003H66.8241ZM76.4018 12.885L77.6006 9.67174L78.2892 12.885H76.4018ZM78.9431 15.9164H81.0481L79.209 7.36003H77.2669C76.8288 7.36003 76.4608 7.60719 76.2974 7.98729L72.8812 15.9164H75.272L75.7462 14.6383H78.6672L78.9431 15.9164ZM72.9999 13.1228C73.0095 10.865 69.7891 10.7398 69.8102 9.73086C69.8179 9.42423 70.1184 9.09766 70.7761 9.01422C71.1018 8.97329 72.0019 8.94058 73.0213 9.39729L73.4202 7.58183C72.8724 7.38925 72.1675 7.20383 71.2907 7.20383C69.0401 7.20383 67.4568 8.36616 67.4442 10.0319C67.4294 11.264 68.575 11.9507 69.4365 12.3611C70.324 12.7802 70.6215 13.0496 70.6174 13.4241C70.6111 13.9981 69.9088 14.2523 69.2557 14.2617C68.1107 14.2794 67.4469 13.9609 66.9175 13.7211L66.5042 15.5967C67.0369 15.8341 68.0186 16.0403 69.0354 16.0508C71.428 16.0508 72.9929 14.9018 72.9999 13.1228ZM63.5707 7.36003L59.8821 15.9164H57.4755L55.6601 9.08769C55.5502 8.66806 55.4545 8.51361 55.1195 8.33625C54.5721 8.04711 53.6681 7.77669 52.8735 7.60842L52.9271 7.36003H56.8016C57.2947 7.36003 57.7386 7.67926 57.8514 8.23199L58.8106 13.1837L61.1786 7.36003H63.5707Z" fill="#1A1F71"/>
<path d="M69.7378 18.2715H68.8127V19.1086H69.8475V19.3604H68.501V17.0378H69.7944V17.2895H68.8127V18.0233H69.7378V18.2715Z" fill="#1A1F71"/>
<path d="M70.3254 16.914H70.6372V19.3604H70.3254V16.914Z" fill="#1A1F71"/>
<path d="M72.338 18.3647C72.3416 18.1752 72.2565 17.8754 71.9057 17.8754C71.5868 17.8754 71.452 18.1546 71.4272 18.3647H72.338ZM71.4238 18.5818C71.4308 18.9919 71.6967 19.1607 72.0118 19.1607C72.2353 19.1607 72.3734 19.1228 72.487 19.0747L72.5436 19.2917C72.4337 19.3398 72.2425 19.3984 71.9694 19.3984C71.4416 19.3984 71.1262 19.0573 71.1262 18.5543C71.1262 18.0512 71.4308 17.6584 71.9305 17.6584C72.494 17.6584 72.6393 18.134 72.6393 18.4406C72.6393 18.5025 72.6357 18.5473 72.6285 18.5818H71.4238Z" fill="#1A1F71"/>
<path d="M74.3358 19.3019C74.2543 19.3398 74.0735 19.3984 73.8432 19.3984C73.3258 19.3984 72.9893 19.0573 72.9893 18.5473C72.9893 18.0339 73.3505 17.6584 73.9105 17.6584C74.0947 17.6584 74.2577 17.703 74.3428 17.7479L74.2721 17.9788C74.1974 17.9409 74.0805 17.8994 73.9105 17.8994C73.5171 17.8994 73.3046 18.1854 73.3046 18.5301C73.3046 18.916 73.5597 19.1537 73.8999 19.1537C74.0771 19.1537 74.194 19.1124 74.2825 19.0745L74.3358 19.3019Z" fill="#1A1F71"/>
<path d="M75.2105 17.2931V17.6928H75.6568V17.9235H75.2105V18.823C75.2105 19.0299 75.2708 19.1469 75.4444 19.1469C75.5293 19.1469 75.5791 19.1401 75.6252 19.1261L75.6394 19.3572C75.5791 19.3778 75.4834 19.3984 75.3629 19.3984C75.2175 19.3984 75.1006 19.3502 75.0263 19.2711C74.9412 19.1779 74.9058 19.0299 74.9058 18.8335V17.9235H74.6399V17.6928H74.9058V17.3827L75.2105 17.2931Z" fill="#1A1F71"/>
<path d="M76.0926 18.2129C76.0926 18.0165 76.0888 17.8477 76.0784 17.6925H76.3513L76.3655 18.0233H76.3759C76.454 17.7994 76.6452 17.6581 76.8543 17.6581C76.8863 17.6581 76.9111 17.6616 76.9395 17.6649V17.951C76.9075 17.944 76.8758 17.944 76.833 17.944C76.6136 17.944 76.4574 18.1025 76.415 18.3301C76.4079 18.3714 76.4043 18.423 76.4043 18.4714V19.3604H76.0926V18.2129Z" fill="#1A1F71"/>
<path d="M77.4987 18.5301C77.4987 18.8954 77.7113 19.171 78.0161 19.171C78.3138 19.171 78.5369 18.8987 78.5369 18.5232C78.5369 18.2407 78.3917 17.8856 78.0231 17.8856C77.6583 17.8856 77.4987 18.2165 77.4987 18.5301ZM78.856 18.5128C78.856 19.1296 78.4129 19.3984 78.0019 19.3984C77.5412 19.3984 77.1799 19.0675 77.1799 18.5405C77.1799 17.9856 77.559 17.6584 78.0303 17.6584C78.5229 17.6584 78.856 18.0063 78.856 18.5128Z" fill="#1A1F71"/>
<path d="M79.334 18.144C79.334 17.9684 79.3303 17.8305 79.3198 17.6927H79.5961L79.614 17.9684H79.621C79.7061 17.8132 79.9045 17.6582 80.188 17.6582C80.4253 17.6582 80.7939 17.7961 80.7939 18.3679V19.3604H80.4821V18.399C80.4821 18.1303 80.3794 17.9063 80.0853 17.9063C79.8833 17.9063 79.7237 18.0476 79.6672 18.2164C79.6528 18.2544 79.6458 18.306 79.6458 18.3577V19.3604H79.334V18.144Z" fill="#1A1F71"/>
</g>
</g>
<g clip-path="url(#clip2_181_504)">
<path d="M125.369 24.6492V24.7142H125.427C125.44 24.7142 125.451 24.7111 125.459 24.706C125.466 24.701 125.47 24.6921 125.47 24.6814C125.47 24.6707 125.466 24.6625 125.459 24.6574C125.451 24.6517 125.44 24.6492 125.427 24.6492H125.369ZM125.428 24.6037C125.457 24.6037 125.481 24.6107 125.497 24.6246C125.513 24.6385 125.521 24.6574 125.521 24.6814C125.521 24.7016 125.515 24.718 125.502 24.7313C125.489 24.7439 125.471 24.7521 125.446 24.7553L125.523 24.8468H125.463L125.392 24.7559H125.369V24.8468H125.319V24.6037H125.428ZM125.412 24.9308C125.44 24.9308 125.465 24.9251 125.488 24.9144C125.512 24.9037 125.533 24.8891 125.551 24.8708C125.568 24.8525 125.582 24.8311 125.593 24.8058C125.602 24.7812 125.608 24.7546 125.608 24.7262C125.608 24.6978 125.602 24.6713 125.593 24.6467C125.582 24.622 125.568 24.5999 125.551 24.5816C125.533 24.5633 125.512 24.5488 125.488 24.5381C125.465 24.528 125.44 24.5229 125.412 24.5229C125.385 24.5229 125.359 24.528 125.335 24.5381C125.311 24.5488 125.289 24.5633 125.272 24.5816C125.254 24.5999 125.24 24.622 125.23 24.6467C125.22 24.6713 125.215 24.6978 125.215 24.7262C125.215 24.7546 125.22 24.7812 125.23 24.8058C125.24 24.8311 125.254 24.8525 125.272 24.8708C125.289 24.8891 125.311 24.9037 125.335 24.9144C125.359 24.9251 125.385 24.9308 125.412 24.9308ZM125.412 24.4642C125.448 24.4642 125.481 24.4711 125.513 24.485C125.544 24.4983 125.571 24.5172 125.594 24.5412C125.618 24.5646 125.636 24.5924 125.649 24.6246C125.663 24.6561 125.669 24.6902 125.669 24.7262C125.669 24.7622 125.663 24.7963 125.649 24.8279C125.636 24.8595 125.618 24.8872 125.594 24.9112C125.571 24.9346 125.544 24.9536 125.513 24.9674C125.481 24.9813 125.448 24.9883 125.412 24.9883C125.376 24.9883 125.342 24.9813 125.311 24.9674C125.279 24.9536 125.252 24.9346 125.228 24.9112C125.205 24.8872 125.187 24.8595 125.174 24.8279C125.16 24.7963 125.153 24.7622 125.153 24.7262C125.153 24.6902 125.16 24.6561 125.174 24.6246C125.187 24.5924 125.205 24.5646 125.228 24.5412C125.252 24.5172 125.279 24.4983 125.311 24.485C125.342 24.4711 125.376 24.4642 125.412 24.4642ZM101.681 23.5277C101.681 23.0643 101.974 22.6835 102.453 22.6835C102.911 22.6835 103.219 23.0478 103.219 23.5277C103.219 24.0076 102.911 24.372 102.453 24.372C101.974 24.372 101.681 23.9912 101.681 23.5277ZM103.741 23.5277V22.2093H103.188V22.5294C103.012 22.292 102.746 22.143 102.384 22.143C101.671 22.143 101.112 22.7226 101.112 23.5277C101.112 24.3335 101.671 24.9125 102.384 24.9125C102.746 24.9125 103.012 24.7635 103.188 24.5261V24.8462H103.741V23.5277ZM122.43 23.5277C122.43 23.0643 122.723 22.6835 123.202 22.6835C123.66 22.6835 123.968 23.0478 123.968 23.5277C123.968 24.0076 123.66 24.372 123.202 24.372C122.723 24.372 122.43 23.9912 122.43 23.5277ZM124.49 23.5277V21.1503H123.936V22.5294C123.761 22.292 123.495 22.143 123.133 22.143C122.42 22.143 121.861 22.7226 121.861 23.5277C121.861 24.3335 122.42 24.9125 123.133 24.9125C123.495 24.9125 123.761 24.7635 123.936 24.5261V24.8462H124.49V23.5277ZM110.606 22.6563C110.962 22.6563 111.191 22.8881 111.25 23.296H109.93C109.989 22.9152 110.212 22.6563 110.606 22.6563ZM110.617 22.143C109.871 22.143 109.35 22.7056 109.35 23.5277C109.35 24.3663 109.893 24.9125 110.654 24.9125C111.037 24.9125 111.388 24.8134 111.697 24.5431L111.426 24.1181C111.213 24.2943 110.941 24.3941 110.686 24.3941C110.329 24.3941 110.005 24.223 109.925 23.7481H111.814C111.819 23.6768 111.825 23.6048 111.825 23.5277C111.819 22.7056 111.329 22.143 110.617 22.143ZM117.295 23.5277C117.295 23.0643 117.588 22.6835 118.067 22.6835C118.524 22.6835 118.833 23.0478 118.833 23.5277C118.833 24.0076 118.524 24.372 118.067 24.372C117.588 24.372 117.295 23.9912 117.295 23.5277ZM119.354 23.5277V22.2093H118.801V22.5294C118.625 22.292 118.36 22.143 117.998 22.143C117.285 22.143 116.725 22.7226 116.725 23.5277C116.725 24.3335 117.285 24.9125 117.998 24.9125C118.36 24.9125 118.625 24.7635 118.801 24.5261V24.8462H119.354V23.5277ZM114.172 23.5277C114.172 24.3278 114.709 24.9125 115.529 24.9125C115.912 24.9125 116.167 24.8241 116.443 24.598L116.178 24.1346C115.97 24.2893 115.752 24.372 115.512 24.372C115.071 24.3663 114.746 24.0354 114.746 23.5277C114.746 23.0201 115.071 22.6892 115.512 22.6835C115.752 22.6835 115.97 22.7662 116.178 22.9209L116.443 22.4574C116.167 22.2314 115.912 22.143 115.529 22.143C114.709 22.143 114.172 22.7277 114.172 23.5277ZM121.302 22.143C120.983 22.143 120.775 22.2977 120.632 22.5294V22.2093H120.083V24.8462H120.637V23.368C120.637 22.9317 120.818 22.6892 121.18 22.6892C121.292 22.6892 121.409 22.7056 121.526 22.7555L121.696 22.215C121.574 22.1651 121.414 22.143 121.302 22.143ZM106.476 22.4189C106.21 22.2371 105.843 22.143 105.439 22.143C104.795 22.143 104.38 22.4631 104.38 22.9872C104.38 23.4172 104.689 23.6824 105.257 23.7652L105.519 23.8037C105.822 23.8479 105.965 23.9306 105.965 24.0796C105.965 24.2836 105.763 24.3998 105.385 24.3998C105.002 24.3998 104.726 24.2729 104.539 24.1238L104.279 24.5703C104.582 24.802 104.965 24.9125 105.38 24.9125C106.114 24.9125 106.54 24.5538 106.54 24.0518C106.54 23.5884 106.205 23.3459 105.652 23.2632L105.391 23.224C105.151 23.1912 104.96 23.1419 104.96 22.9651C104.96 22.7719 105.141 22.6563 105.444 22.6563C105.768 22.6563 106.083 22.7833 106.237 22.8824L106.476 22.4189ZM113.612 22.143C113.293 22.143 113.086 22.2977 112.942 22.5294V22.2093H112.394V24.8462H112.947V23.368C112.947 22.9317 113.128 22.6892 113.49 22.6892C113.602 22.6892 113.719 22.7056 113.836 22.7555L114.006 22.215C113.884 22.1651 113.724 22.143 113.612 22.143ZM108.893 22.2093H107.988V21.4092H107.429V22.2093H106.913V22.7334H107.429V23.9363C107.429 24.5482 107.658 24.9125 108.312 24.9125C108.552 24.9125 108.829 24.8355 109.004 24.7085L108.844 24.2173C108.679 24.3164 108.498 24.3663 108.355 24.3663C108.078 24.3663 107.988 24.1895 107.988 23.9249V22.7334H108.893V22.2093ZM100.623 24.8462V23.1912C100.623 22.5679 100.24 22.1487 99.6221 22.143C99.2975 22.1373 98.9625 22.2421 98.728 22.6121C98.5526 22.3198 98.2761 22.143 97.8875 22.143C97.6158 22.143 97.3502 22.2257 97.1425 22.5345V22.2093H96.5889V24.8462H97.1474V23.3844C97.1474 22.9266 97.3923 22.6835 97.7705 22.6835C98.1378 22.6835 98.3236 22.9317 98.3236 23.3787V24.8462H98.8827V23.3844C98.8827 22.9266 99.1379 22.6835 99.5052 22.6835C99.8828 22.6835 100.064 22.9317 100.064 23.3787V24.8462H100.623Z" fill="#231F20"/>
<path d="M125.71 16.0767V15.6915H125.613L125.501 15.9561L125.39 15.6915H125.292V16.0767H125.361V15.7862L125.466 16.0369H125.537L125.642 15.7856V16.0767H125.71ZM125.096 16.0767V15.7571H125.22V15.6921H124.903V15.7571H125.027V16.0767H125.096Z" fill="#F79410"/>
<path d="M114.698 17.7337H106.316V2.1167H114.698V17.7337Z" fill="#FF5F00"/>
<path d="M106.853 9.92392C106.853 6.75594 108.283 3.934 110.512 2.11543C108.882 0.785604 106.826 -0.0081234 104.591 -0.0081234C99.3006 -0.0081234 95.012 4.43853 95.012 9.92392C95.012 15.4093 99.3006 19.856 104.591 19.856C106.826 19.856 108.882 19.0622 110.512 17.7324C108.283 15.9138 106.853 13.0919 106.853 9.92392Z" fill="#EB001B"/>
<path d="M126.003 9.92392C126.003 15.4093 121.714 19.856 116.423 19.856C114.189 19.856 112.132 19.0622 110.502 17.7324C112.731 15.9138 114.162 13.0919 114.162 9.92392C114.162 6.75594 112.731 3.934 110.502 2.11543C112.132 0.785604 114.189 -0.0081234 116.423 -0.0081234C121.714 -0.0081234 126.003 4.43853 126.003 9.92392Z" fill="#F79E1B"/>
</g>
<g clip-path="url(#clip3_181_504)">
<path d="M165.696 16.0676V15.6836H165.6L165.488 15.9396L165.376 15.6836H165.28V16.0676H165.344V15.7796L165.456 16.0356H165.536L165.648 15.7796V16.0676H165.696ZM165.056 16.0676V15.7476H165.184V15.6836H164.864V15.7476H164.992V16.0676H165.056Z" fill="#00A2E5"/>
<path d="M154.32 17.7156H145.664V2.16357H154.32V17.7156Z" fill="#7375CF"/>
<path d="M146.224 9.93976C146.224 6.78776 147.696 3.97176 150 2.16376C148.32 0.835758 146.192 0.0517578 143.888 0.0517578C138.432 0.0517578 134 4.48376 134 9.93976C134 15.3958 138.432 19.8278 143.888 19.8278C146.192 19.8278 148.32 19.0438 150 17.7158C147.696 15.9078 146.224 13.0918 146.224 9.93976Z" fill="#EB001B"/>
<path d="M166 9.93976C166 15.3958 161.568 19.8278 156.112 19.8278C153.808 19.8278 151.68 19.0438 150 17.7158C152.304 15.9078 153.776 13.0918 153.776 9.93976C153.776 6.78776 152.304 3.97176 150 2.16376C151.68 0.835758 153.808 0.0517578 156.112 0.0517578C161.568 0.0517578 166 4.48376 166 9.93976Z" fill="#00A2E5"/>
<path d="M157.232 22.1158C157.344 22.1158 157.52 22.1318 157.632 22.1798L157.456 22.7238C157.328 22.6758 157.216 22.6598 157.104 22.6598C156.736 22.6598 156.544 22.8998 156.544 23.3318V24.8038H155.968V22.1798H156.528V22.4998C156.688 22.2598 156.912 22.1158 157.232 22.1158ZM155.12 22.6918H154.192V23.8758C154.192 24.1318 154.288 24.3078 154.576 24.3078C154.72 24.3078 154.912 24.2598 155.088 24.1638L155.248 24.6598C155.072 24.7878 154.784 24.8678 154.528 24.8678C153.856 24.8678 153.616 24.4998 153.616 23.8918V22.6918H153.088V22.1638H153.616V21.3638H154.192V22.1638H155.12V22.6918ZM147.808 23.2518C147.872 22.8678 148.096 22.6118 148.512 22.6118C148.88 22.6118 149.12 22.8358 149.184 23.2518H147.808ZM149.776 23.4918C149.776 22.6758 149.264 22.1158 148.528 22.1158C147.76 22.1158 147.216 22.6758 147.216 23.4918C147.216 24.3238 147.776 24.8678 148.56 24.8678C148.96 24.8678 149.312 24.7718 149.632 24.4998L149.344 24.0838C149.12 24.2598 148.848 24.3558 148.576 24.3558C148.208 24.3558 147.872 24.1798 147.792 23.7158H149.744C149.76 23.6358 149.776 23.5718 149.776 23.4918ZM152.288 22.8518C152.128 22.7558 151.808 22.6278 151.472 22.6278C151.152 22.6278 150.976 22.7398 150.976 22.9318C150.976 23.1078 151.168 23.1558 151.424 23.1878L151.696 23.2198C152.272 23.2998 152.608 23.5398 152.608 24.0038C152.608 24.4998 152.176 24.8678 151.408 24.8678C150.976 24.8678 150.576 24.7558 150.272 24.5318L150.544 24.0838C150.736 24.2278 151.024 24.3558 151.424 24.3558C151.808 24.3558 152.016 24.2438 152.016 24.0358C152.016 23.8918 151.872 23.8118 151.552 23.7638L151.28 23.7318C150.688 23.6518 150.368 23.3798 150.368 22.9638C150.368 22.4358 150.8 22.1158 151.456 22.1158C151.872 22.1158 152.256 22.2118 152.528 22.3878L152.288 22.8518ZM159.328 22.6438C159.216 22.6438 159.104 22.6598 159.008 22.7078C158.912 22.7558 158.816 22.8038 158.752 22.8838C158.688 22.9638 158.624 23.0438 158.576 23.1558C158.528 23.2518 158.512 23.3798 158.512 23.4918C158.512 23.6198 158.528 23.7318 158.576 23.8278C158.624 23.9238 158.672 24.0198 158.752 24.0998C158.832 24.1798 158.912 24.2278 159.008 24.2758C159.104 24.3238 159.216 24.3398 159.328 24.3398C159.44 24.3398 159.552 24.3238 159.648 24.2758C159.744 24.2278 159.84 24.1798 159.904 24.0998C159.984 24.0198 160.032 23.9398 160.08 23.8278C160.128 23.7318 160.144 23.6038 160.144 23.4918C160.144 23.3638 160.128 23.2518 160.08 23.1558C160.032 23.0598 159.984 22.9638 159.904 22.8838C159.824 22.8038 159.744 22.7558 159.648 22.7078C159.552 22.6758 159.44 22.6438 159.328 22.6438ZM159.328 22.1158C159.536 22.1158 159.728 22.1478 159.888 22.2278C160.064 22.2918 160.208 22.3878 160.336 22.5158C160.464 22.6438 160.56 22.7878 160.64 22.9478C160.704 23.1238 160.752 23.2998 160.752 23.4918C160.752 23.6838 160.72 23.8758 160.64 24.0358C160.576 24.2118 160.464 24.3558 160.336 24.4678C160.208 24.5958 160.064 24.6918 159.888 24.7558C159.712 24.8198 159.52 24.8678 159.328 24.8678C159.12 24.8678 158.928 24.8358 158.768 24.7558C158.592 24.6918 158.448 24.5958 158.32 24.4678C158.192 24.3398 158.096 24.1958 158.016 24.0358C157.952 23.8598 157.904 23.6838 157.904 23.4918C157.904 23.2998 157.936 23.1078 158.016 22.9478C158.08 22.7718 158.192 22.6278 158.32 22.5158C158.448 22.3878 158.592 22.2918 158.768 22.2278C158.928 22.1478 159.12 22.1158 159.328 22.1158ZM144.48 23.4918C144.48 23.0278 144.784 22.6438 145.28 22.6438C145.76 22.6438 146.064 23.0118 146.064 23.4918C146.064 23.9718 145.744 24.3238 145.28 24.3238C144.784 24.3238 144.48 23.9558 144.48 23.4918ZM146.608 23.4918V22.1798H146.032V22.4998C145.856 22.2598 145.584 22.1158 145.2 22.1158C144.464 22.1158 143.888 22.6918 143.888 23.4918C143.888 24.2918 144.464 24.8678 145.2 24.8678C145.568 24.8678 145.84 24.7238 146.032 24.4838V24.8038H146.608V23.4918ZM143.392 24.8038V23.1558C143.392 22.5318 142.992 22.1158 142.352 22.1158C142.016 22.1158 141.664 22.2118 141.424 22.5798C141.248 22.2918 140.96 22.1158 140.56 22.1158C140.288 22.1158 140 22.1958 139.792 22.4998V22.1798H139.216V24.8038H139.792V23.3478C139.792 22.8998 140.048 22.6438 140.432 22.6438C140.816 22.6438 141.008 22.8838 141.008 23.3318V24.7878H141.584V23.3318C141.584 22.8838 141.856 22.6278 142.224 22.6278C142.608 22.6278 142.8 22.8678 142.8 23.3158V24.7718H143.392V24.8038Z" fill="black"/>
<path d="M161.36 24.5959V24.6599H161.424C161.44 24.6599 161.456 24.6599 161.456 24.6439C161.472 24.6439 161.472 24.6279 161.472 24.6119C161.472 24.5959 161.472 24.5959 161.456 24.5959C161.456 24.5959 161.44 24.5799 161.424 24.5799H161.36V24.5959ZM161.424 24.5639C161.456 24.5639 161.472 24.5639 161.488 24.5799C161.504 24.5959 161.52 24.6119 161.52 24.6439C161.52 24.6599 161.52 24.6759 161.504 24.6919C161.488 24.7079 161.472 24.7079 161.44 24.7079L161.52 24.8039H161.456L161.376 24.7079H161.36V24.8039H161.312V24.5639H161.424ZM161.408 24.8839C161.44 24.8839 161.456 24.8839 161.488 24.8679C161.52 24.8519 161.536 24.8359 161.552 24.8199C161.568 24.8039 161.584 24.7879 161.6 24.7559C161.616 24.7239 161.616 24.7079 161.616 24.6759C161.616 24.6439 161.616 24.6279 161.6 24.5959C161.584 24.5639 161.568 24.5479 161.552 24.5319C161.536 24.5159 161.52 24.4999 161.488 24.4839C161.472 24.4679 161.44 24.4679 161.408 24.4679C161.376 24.4679 161.36 24.4679 161.328 24.4839C161.296 24.4999 161.28 24.5159 161.264 24.5319C161.248 24.5479 161.232 24.5799 161.216 24.5959C161.2 24.6279 161.2 24.6439 161.2 24.6759C161.2 24.7079 161.2 24.7239 161.216 24.7559C161.232 24.7879 161.248 24.8039 161.264 24.8199C161.28 24.8359 161.312 24.8519 161.328 24.8679C161.36 24.8839 161.376 24.8839 161.408 24.8839ZM161.408 24.4199C161.44 24.4199 161.472 24.4199 161.504 24.4359C161.536 24.4519 161.568 24.4679 161.584 24.4839C161.6 24.4999 161.632 24.5319 161.648 24.5639C161.664 24.5959 161.664 24.6279 161.664 24.6599C161.664 24.6919 161.664 24.7239 161.648 24.7559C161.632 24.7879 161.616 24.8199 161.584 24.8359C161.552 24.8519 161.536 24.8839 161.504 24.8999C161.472 24.9159 161.44 24.9159 161.408 24.9159C161.376 24.9159 161.328 24.9159 161.296 24.8999C161.264 24.8839 161.232 24.8679 161.216 24.8359C161.2 24.8199 161.168 24.7879 161.152 24.7559C161.136 24.7239 161.136 24.6919 161.136 24.6599C161.136 24.6279 161.136 24.5959 161.152 24.5639C161.168 24.5319 161.184 24.4999 161.216 24.4839C161.232 24.4679 161.264 24.4359 161.296 24.4359C161.328 24.4199 161.376 24.4199 161.408 24.4199Z" fill="black"/>
</g>
<defs>
<clipPath id="clip0_181_504">
<rect width="40" height="24" fill="white" transform="translate(0.142822 0.5)"/>
</clipPath>
<clipPath id="clip1_181_504">
<rect width="38.8571" height="24" fill="white" transform="translate(48.1428 0.5)"/>
</clipPath>
<clipPath id="clip2_181_504">
<rect width="31" height="25" fill="white" transform="translate(95)"/>
</clipPath>
<clipPath id="clip3_181_504">
<rect width="32" height="24.896" fill="white" transform="translate(134 0.0517578)"/>
</clipPath>
</defs>
</svg>
