<svg width="28" height="28" viewBox="0 0 28 28" fill="none" xmlns="http://www.w3.org/2000/svg">
                            <path d="M25.2001 25.1998V16.9958C25.2001 12.9638 24.3321 9.88379 19.6281 9.88379C17.3601 9.88379 15.8481 11.1158 15.2321 12.2918H15.1761V10.2478H10.7241V25.1998H15.3721V17.7798C15.3721 15.8198 15.7361 13.9438 18.1441 13.9438C20.5241 13.9438 20.5521 16.1558 20.5521 17.8918V25.1718H25.2001V25.1998Z" fill="#12141D"></path>
                            <path d="M3.16406 10.248H7.81206V25.2H3.16406V10.248Z" fill="#12141D"></path>
                            <path d="M5.48805 2.7998C4.00405 2.7998 2.80005 4.0038 2.80005 5.4878C2.80005 6.97181 4.00405 8.2038 5.48805 8.2038C6.97205 8.2038 8.17605 6.97181 8.17605 5.4878C8.17605 4.0038 6.97205 2.7998 5.48805 2.7998Z" fill="#12141D"></path>
                        </svg>