<?xml version="1.0" encoding="utf-8"?>
<!-- Generator: Adobe Illustrator 25.2.3, SVG Export Plug-In . SVG Version: 6.00 Build 0)  -->
<svg version="1.1" id="Layer_1" xmlns="http://www.w3.org/2000/svg" xmlns:xlink="http://www.w3.org/1999/xlink" x="0px" y="0px"
	 viewBox="0 0 134 40" style="enable-background:new 0 0 134 40;" xml:space="preserve">
<style type="text/css">
	.st0{fill:#D7D223;}
	.st1{fill:#EEE809;}
	.st2{fill:#9D9F21;}
	.st3{fill:#D2D2D2;}
	.st4{fill:#FFFFFF;}
	.st5{fill:#828282;}
	.st6{fill:#434343;}
</style>
<g>
	<g>
		<g>
			<g>
				<path d="M40.377,9.609c-0.847-0.776-2.152-1.164-3.811-1.164c-1.129,0-2.223,0.071-3.246,0.247
					c-0.141,0.035-0.282,0.176-0.282,0.318v12.737c0,0.176,0.141,0.318,0.318,0.318h1.658c0.176,0,0.318-0.141,0.318-0.318v-4.799
					c0.318,0.035,0.67,0.035,1.023,0.035c1.764,0,3.246-0.529,4.164-1.517c0.706-0.741,1.094-1.729,1.094-2.964
					C41.612,11.338,41.154,10.279,40.377,9.609z M36.39,15.043c-0.423,0-0.776-0.035-1.059-0.071v-4.481
					c0.282-0.035,0.706-0.071,1.235-0.071c1.235,0,2.717,0.388,2.717,2.223C39.284,14.725,37.484,15.043,36.39,15.043z"/>
				<path d="M47.787,12.044c-0.176-0.035-0.353-0.071-0.565-0.071c-0.917,0-1.8,0.459-2.364,1.27l-0.035-0.741
					c0-0.176-0.141-0.318-0.318-0.318h-1.482c-0.071,0-0.176,0.035-0.247,0.106c-0.071,0.071-0.106,0.141-0.071,0.247
					c0.071,0.776,0.071,1.658,0.071,2.858v6.386c0,0.176,0.141,0.318,0.318,0.318h1.658c0.176,0,0.318-0.141,0.318-0.318v-4.94
					c0-0.247,0.035-0.494,0.071-0.741c0.212-1.164,0.953-1.905,1.941-1.905c0.212,0,0.353,0,0.494,0.035
					c0.106,0.035,0.176,0,0.282-0.071c0.071-0.071,0.106-0.141,0.106-0.247v-1.588C48.034,12.22,47.928,12.079,47.787,12.044z"/>
				<path d="M53.15,11.973c-2.893,0-4.905,2.152-4.905,5.222c0,2.999,1.941,5.081,4.763,5.081c2.364,0,4.94-1.623,4.94-5.222
					C57.914,14.055,55.938,11.973,53.15,11.973z M55.55,17.124c0,1.905-1.059,3.281-2.505,3.281s-2.505-1.376-2.505-3.246
					c0-1.623,0.776-3.281,2.54-3.281C55.056,13.878,55.55,15.995,55.55,17.124z"/>
				<path d="M64.547,11.973c-1.235,0-2.293,0.423-3.034,1.27l-0.035-0.741c0-0.176-0.141-0.318-0.318-0.318h-1.517
					c-0.071,0-0.176,0.035-0.212,0.106c-0.071,0.071-0.106,0.141-0.106,0.247c0.035,0.917,0.071,1.835,0.071,2.999v10.02
					c0,0.176,0.141,0.318,0.318,0.318h1.658c0.176,0,0.318-0.141,0.318-0.318v-4.199c0.635,0.6,1.553,0.917,2.576,0.917
					c2.258,0,4.516-1.623,4.516-5.292C68.781,14.09,67.017,11.973,64.547,11.973z M66.488,17.089c0,2.011-0.953,3.246-2.505,3.246
					c-1.059,0-1.941-0.706-2.223-1.694c-0.035-0.212-0.071-0.423-0.071-0.635v-1.588c0-0.212,0.071-0.423,0.106-0.6
					c0.282-1.094,1.2-1.835,2.223-1.835C65.712,13.949,66.488,15.537,66.488,17.089z"/>
				<path d="M74.286,11.973c-2.752,0-4.658,2.188-4.658,5.328c0,3.034,1.905,4.975,4.869,4.975c1.553,0,2.611-0.318,3.211-0.6
					c0.141-0.071,0.212-0.212,0.176-0.353l-0.282-1.2c-0.035-0.106-0.071-0.176-0.176-0.212c-0.071-0.035-0.176-0.035-0.282,0
					c-0.565,0.247-1.235,0.459-2.435,0.459c-0.812,0-2.646-0.247-2.823-2.576h6.175c0.176,0,0.282-0.106,0.318-0.282v-0.071
					c0.035-0.176,0.035-0.423,0.035-0.741C78.414,14.337,77.144,11.973,74.286,11.973z M71.922,15.925
					c0.212-0.917,0.812-2.082,2.188-2.082c0.565,0,1.023,0.176,1.376,0.529c0.459,0.459,0.6,1.164,0.635,1.588h-4.199V15.925z"/>
				<path d="M81.872,7.88h-1.694c-0.176,0-0.318,0.141-0.318,0.318v13.584c0,0.176,0.141,0.318,0.318,0.318h1.694
					c0.176,0,0.318-0.141,0.318-0.318V8.198C82.189,8.021,82.048,7.88,81.872,7.88z"/>
				<path d="M86.388,7.88h-1.694c-0.176,0-0.318,0.141-0.318,0.318v13.584c0,0.176,0.141,0.318,0.318,0.318h1.694
					c0.176,0,0.318-0.141,0.318-0.318V8.198C86.706,8.021,86.565,7.88,86.388,7.88z"/>
				<path d="M92.881,11.973c-2.752,0-4.658,2.188-4.658,5.328c0,3.034,1.905,4.975,4.869,4.975c1.553,0,2.611-0.318,3.211-0.6
					c0.141-0.071,0.212-0.212,0.176-0.353l-0.282-1.2c-0.035-0.106-0.071-0.176-0.176-0.212c-0.071-0.035-0.176-0.035-0.282,0
					c-0.565,0.247-1.235,0.459-2.435,0.459c-0.812,0-2.646-0.247-2.823-2.576h6.175c0.176,0,0.282-0.106,0.318-0.282v-0.071
					c0.035-0.176,0.035-0.423,0.035-0.741C97.009,14.337,95.739,11.973,92.881,11.973z M90.552,15.925
					c0.212-0.917,0.812-2.082,2.188-2.082c0.565,0,1.023,0.176,1.376,0.529c0.459,0.459,0.6,1.164,0.635,1.588h-4.199V15.925z"/>
				<path d="M103.431,12.044c-0.176-0.035-0.353-0.071-0.565-0.071c-0.917,0-1.8,0.459-2.364,1.235l-0.035-0.741
					c0-0.176-0.141-0.318-0.318-0.318h-1.482c-0.106,0-0.176,0.035-0.247,0.106c-0.071,0.071-0.106,0.141-0.071,0.247
					c0.035,0.776,0.071,1.658,0.071,2.858v6.386c0,0.176,0.141,0.318,0.318,0.318h1.658c0.176,0,0.318-0.141,0.318-0.318v-4.94
					c0-0.282,0.035-0.529,0.071-0.741c0.212-1.164,0.953-1.905,1.941-1.905c0.212,0,0.353,0,0.494,0.035
					c0.106,0.035,0.212,0,0.282-0.071c0.071-0.071,0.106-0.141,0.106-0.247v-1.588C103.678,12.22,103.572,12.079,103.431,12.044z"/>
			</g>
			<g>
				<path class="st0" d="M110.805,8.762c-0.035-0.141-0.176-0.212-0.318-0.212h-2.011c-0.141,0-0.247,0.071-0.318,0.212
					l-4.375,12.878c-0.035,0.106,0,0.212,0.035,0.282c0.071,0.071,0.141,0.141,0.247,0.141h1.729c0.141,0,0.247-0.106,0.318-0.212
					l1.27-3.846h4.128l1.306,3.846c0.035,0.141,0.176,0.212,0.318,0.212h1.764l0,0c0.176,0,0.318-0.141,0.318-0.318
					c0-0.071-0.035-0.141-0.071-0.176L110.805,8.762z M110.981,16.101h-2.999l1.129-3.317c0.141-0.388,0.247-0.812,0.353-1.235
					c0.106,0.423,0.247,0.812,0.388,1.27L110.981,16.101z"/>
				<path class="st0" d="M124.848,19.383V8.198c0-0.176-0.141-0.318-0.318-0.318h-1.694c-0.176,0-0.318,0.141-0.318,0.318v4.693
					c-0.635-0.565-1.517-0.882-2.505-0.882c-1.129,0-2.188,0.459-2.999,1.235c-0.953,0.988-1.482,2.399-1.482,4.058
					c0,2.893,1.8,5.01,4.269,5.01c1.164,0,2.223-0.459,2.929-1.235l0.035,0.706c0,0.176,0.141,0.318,0.318,0.318h1.517l0,0
					c0.176,0,0.318-0.141,0.318-0.318c0-0.035,0-0.071-0.035-0.106C124.848,20.935,124.848,19.912,124.848,19.383z M122.519,16.278
					v1.623c0,0.282-0.035,0.459-0.071,0.67c-0.247,1.058-1.129,1.764-2.152,1.764c-1.8,0-2.435-1.588-2.435-3.105
					c0-1.976,0.953-3.246,2.47-3.246c1.2,0,1.905,0.847,2.117,1.729C122.484,15.819,122.519,16.101,122.519,16.278z"/>
				<path class="st0" d="M130.423,16.101c-1.235-0.459-1.553-0.741-1.553-1.27c0-0.565,0.494-0.953,1.235-0.953
					c0.847,0,1.482,0.353,1.729,0.494c0.071,0.035,0.176,0.071,0.282,0.035c0.106-0.035,0.176-0.106,0.176-0.212l0.423-1.235
					c0.071-0.141,0-0.318-0.141-0.388c-0.635-0.388-1.553-0.635-2.435-0.635c-2.046,0-3.528,1.27-3.528,3.034
					c0,0.917,0.459,2.152,2.646,2.929c1.27,0.459,1.517,0.847,1.517,1.411c0,0.67-0.529,1.058-1.482,1.058
					c-0.776,0-1.588-0.318-2.046-0.6c-0.071-0.071-0.176-0.071-0.282-0.035c-0.106,0.035-0.176,0.106-0.212,0.212l-0.423,1.27
					c-0.035,0.141,0,0.282,0.141,0.388c0.741,0.423,1.729,0.67,2.752,0.67c2.293,0,3.775-1.2,3.775-3.105
					C133.034,17.724,132.223,16.772,130.423,16.101z"/>
			</g>
		</g>
		<g>
			<polygon class="st1" points="9.398,35.825 4.528,29.721 14.514,22.946 16.243,22.946 10.985,1 18.183,2.482 18.924,23.546 
				36.637,28.697 35.826,35.86 15.114,26.474 			"/>
			<polygon class="st2" points="6.857,36.954 1,29.897 11.726,22.946 14.514,22.946 4.528,29.721 9.398,35.825 			"/>
			<polygon class="st3" points="7.492,36.671 9.186,38.859 11.762,39 9.398,35.825 			"/>
			<polygon class="st2" points="14.655,27.251 33.391,37.306 35.826,35.86 15.114,26.474 			"/>
			<polygon class="st4" points="14.655,27.251 9.398,35.825 11.762,39 14.055,37.765 15.043,27.462 			"/>
			<polygon class="st5" points="15.714,27.815 17.231,37.412 18.395,35.154 17.407,28.733 			"/>
			<polygon class="st6" points="15.008,27.427 15.043,27.462 14.126,37.13 17.231,37.412 15.714,27.815 			"/>
			<polygon class="st2" points="16.243,22.946 14.514,22.946 9.468,2.376 10.985,1 			"/>
			<polygon class="st4" points="5.058,7.739 6.681,5.904 14.514,22.946 			"/>
			<polygon class="st3" points="6.681,5.904 14.514,22.946 10.174,5.199 			"/>
			<polygon class="st6" points="14.514,22.946 11.726,22.946 2.905,13.949 3.893,11.656 			"/>
			<polygon class="st5" points="6.751,10.456 3.893,11.656 14.514,22.946 			"/>
			<polygon class="st4" points="18.924,23.546 28.734,23.546 27.252,22.629 18.889,22.629 			"/>
			<polygon class="st3" points="28.734,23.546 18.924,23.546 28.734,26.404 			"/>
			<polygon class="st1" points="9.398,35.825 4.528,29.721 14.514,22.946 16.243,22.946 10.985,1 18.183,2.482 18.924,23.546 
				36.637,28.697 35.826,35.86 15.114,26.474 			"/>
			<polygon class="st1" points="9.398,35.825 4.528,29.721 14.514,22.946 16.243,22.946 10.985,1 18.183,2.482 18.924,23.546 
				36.637,28.697 35.826,35.86 15.114,26.474 			"/>
			<polygon class="st6" points="22.876,20.018 20.195,19.63 18.819,20.406 18.854,22.099 			"/>
			<polygon class="st5" points="18.889,22.629 23.935,22.629 22.876,20.018 18.854,22.099 			"/>
		</g>
	</g>
	<g>
		<path d="M74.462,25.875c0.247,0,0.388,0.035,0.388,0.035l1.164,3.458c0,0-0.106,0.035-0.353,0.035
			c-0.212,0-0.318-0.035-0.318-0.035l-0.282-0.776h-1.341l-0.282,0.776c0,0-0.106,0.035-0.318,0.035
			c-0.176,0-0.282-0.035-0.282-0.035l1.164-3.458C74.074,25.945,74.25,25.875,74.462,25.875z M74.427,26.545
			c0,0-0.035,0.247-0.141,0.565l-0.353,0.988h0.988l-0.353-0.988C74.497,26.792,74.427,26.545,74.427,26.545L74.427,26.545z"/>
		<path d="M77.885,25.875c0.882,0,1.447,0.494,1.447,1.764s-0.565,1.764-1.447,1.764H76.72v-3.564h1.164V25.875z M77.849,28.909
			c0.494,0,0.847-0.212,0.847-1.27c0-1.058-0.353-1.27-0.847-1.27h-0.494v2.505h0.494V28.909z"/>
		<path d="M81.201,28.062c0.141,0.388,0.176,0.706,0.176,0.706h0.035c0,0,0.071-0.318,0.176-0.706l0.706-2.117
			c0,0,0.106-0.035,0.282-0.035c0.212,0,0.318,0.035,0.318,0.035l-1.164,3.458c0,0-0.176,0.035-0.388,0.035
			s-0.388-0.035-0.388-0.035l-1.164-3.458c0,0,0.106-0.071,0.353-0.071c0.212,0,0.318,0.035,0.318,0.035L81.201,28.062z"/>
		<path d="M85.683,25.875c0.035,0.071,0.035,0.141,0.035,0.247s0,0.176-0.035,0.282h-1.411v0.988h1.164
			c0.035,0.071,0.035,0.176,0.035,0.247c0,0.106,0,0.176-0.035,0.247h-1.164v1.023h1.447c0.035,0.071,0.035,0.176,0.035,0.247
			c0,0.106,0,0.176-0.035,0.247h-2.082v-3.564h2.046V25.875z"/>
		<path d="M87.905,25.875c0.67,0,1.094,0.423,1.094,1.058c0,0.494-0.247,0.847-0.67,0.988l0.847,1.447c0,0-0.141,0.035-0.388,0.035
			c-0.212,0-0.353-0.035-0.353-0.035l-0.812-1.376h-0.388v1.376c0,0-0.106,0.035-0.318,0.035c-0.247,0-0.318-0.035-0.318-0.035
			v-3.528h1.306V25.875z M87.235,27.498H87.8c0.353,0,0.529-0.212,0.529-0.529c0-0.353-0.176-0.529-0.529-0.529h-0.565V27.498z"/>
		<path d="M92.034,25.875c0,0,0.035,0.106,0.035,0.282c0,0.141-0.035,0.282-0.035,0.282h-0.882v2.964c0,0-0.106,0.035-0.318,0.035
			s-0.318-0.035-0.318-0.035v-2.964h-0.882c0,0-0.035-0.106-0.035-0.282c0-0.141,0.035-0.282,0.035-0.282H92.034z"/>
		<path d="M92.81,25.945c0,0,0.106-0.035,0.318-0.035s0.318,0.035,0.318,0.035v3.458c0,0-0.106,0.035-0.318,0.035
			s-0.318-0.035-0.318-0.035V25.945z"/>
		<path d="M95.562,25.839c0.6,0,0.988,0.141,0.988,0.141c0,0.176-0.071,0.388-0.176,0.494c0,0-0.318-0.106-0.741-0.106
			c-0.494,0-0.706,0.141-0.706,0.494c0,0.318,0.423,0.388,0.847,0.565c0.459,0.176,0.882,0.388,0.882,1.023
			c0,0.67-0.423,1.058-1.27,1.058c-0.67,0-1.094-0.212-1.094-0.212c0-0.176,0.071-0.353,0.141-0.494c0,0,0.459,0.141,0.917,0.141
			c0.459,0,0.635-0.176,0.635-0.494c0-0.282-0.212-0.388-0.529-0.494c-0.494-0.176-1.2-0.318-1.2-1.058
			C94.327,26.263,94.751,25.839,95.562,25.839z"/>
		<path d="M97.538,25.945c0,0,0.106-0.035,0.318-0.035s0.318,0.035,0.318,0.035v3.458c0,0-0.106,0.035-0.318,0.035
			s-0.318-0.035-0.318-0.035V25.945z"/>
		<path d="M100.079,27.427c-0.176-0.353-0.318-0.741-0.318-0.741h-0.035c0,0,0.035,0.388,0.035,0.917v1.799
			c0,0-0.106,0.035-0.282,0.035c-0.212,0-0.282-0.035-0.282-0.035v-3.458c0,0,0.141-0.035,0.388-0.035s0.388,0.035,0.388,0.035
			l1.023,1.976c0.176,0.353,0.318,0.741,0.318,0.741h0.035c0,0-0.035-0.423-0.035-0.917v-1.799c0,0,0.106-0.035,0.282-0.035
			c0.212,0,0.282,0.035,0.282,0.035v3.458c0,0-0.106,0.035-0.388,0.035c-0.247,0-0.388-0.035-0.388-0.035L100.079,27.427z"/>
		<path d="M104.313,25.839c0.6,0,0.953,0.176,0.953,0.176c0,0.176-0.071,0.353-0.176,0.459c0,0-0.318-0.106-0.67-0.106
			c-0.565,0-0.988,0.282-0.988,1.305s0.423,1.27,0.988,1.27c0.176,0,0.318-0.035,0.318-0.035v-0.988h-0.635
			c0,0-0.035-0.106-0.035-0.247c0-0.176,0.035-0.247,0.035-0.247h1.2v1.905c0,0-0.353,0.176-0.988,0.176
			c-1.023,0-1.588-0.635-1.588-1.835S103.289,25.839,104.313,25.839z"/>
		<path d="M108.123,29.403c0,0-0.106,0.035-0.318,0.035c-0.247,0-0.318-0.035-0.318-0.035v-3.528h1.341
			c0.67,0,1.094,0.459,1.094,1.129c0,0.67-0.423,1.129-1.094,1.129h-0.706V29.403z M108.723,27.568c0.353,0,0.529-0.212,0.529-0.6
			c0-0.388-0.176-0.6-0.529-0.6h-0.6v1.164h0.6V27.568z"/>
		<path d="M110.734,25.945c0,0,0.106-0.035,0.318-0.035c0.212,0,0.318,0.035,0.318,0.035v2.964h1.411
			c0.035,0.071,0.035,0.176,0.035,0.282c0,0.106-0.035,0.176-0.035,0.282h-2.046V25.945z"/>
		<path d="M114.792,25.875c0.247,0,0.388,0.035,0.388,0.035l1.164,3.458c0,0-0.106,0.035-0.353,0.035
			c-0.212,0-0.318-0.035-0.318-0.035l-0.282-0.776h-1.306l-0.282,0.776c0,0-0.106,0.035-0.318,0.035
			c-0.176,0-0.282-0.035-0.282-0.035l1.164-3.458C114.404,25.945,114.58,25.875,114.792,25.875z M114.757,26.545
			c0,0-0.035,0.247-0.141,0.565l-0.353,0.988h0.988l-0.353-0.988C114.827,26.792,114.792,26.545,114.757,26.545L114.757,26.545z"/>
		<path d="M118.956,25.875c0,0,0.035,0.106,0.035,0.282c0,0.141-0.035,0.282-0.035,0.282h-0.882v2.964c0,0-0.106,0.035-0.318,0.035
			s-0.318-0.035-0.318-0.035v-2.964h-0.882c0,0-0.035-0.106-0.035-0.282c0-0.141,0.035-0.282,0.035-0.282H118.956z"/>
		<path d="M120.367,29.403c0,0-0.106,0.035-0.318,0.035s-0.318-0.035-0.318-0.035v-3.528h1.976c0.035,0.071,0.035,0.176,0.035,0.247
			c0,0.106,0,0.176-0.035,0.247h-1.376v1.058h1.2c0.035,0.071,0.035,0.141,0.035,0.247s0,0.176-0.035,0.282h-1.2v1.447H120.367z"/>
		<path d="M123.825,25.839c0.882,0,1.411,0.565,1.411,1.835c0,1.27-0.529,1.835-1.411,1.835s-1.411-0.565-1.411-1.835
			C122.414,26.404,122.978,25.839,123.825,25.839z M123.825,26.369c-0.459,0-0.776,0.247-0.776,1.305s0.318,1.305,0.776,1.305
			c0.459,0,0.776-0.247,0.776-1.305C124.601,26.616,124.319,26.369,123.825,26.369z"/>
		<path d="M127.459,25.875c0.67,0,1.094,0.423,1.094,1.058c0,0.494-0.247,0.847-0.67,0.988l0.847,1.447c0,0-0.141,0.035-0.388,0.035
			c-0.212,0-0.353-0.035-0.353-0.035l-0.812-1.376h-0.388v1.376c0,0-0.106,0.035-0.318,0.035c-0.247,0-0.318-0.035-0.318-0.035
			v-3.528h1.306V25.875z M126.789,27.498h0.565c0.353,0,0.529-0.212,0.529-0.529c0-0.353-0.176-0.529-0.529-0.529h-0.565V27.498z"/>
		<path d="M132.399,25.875c0.247,0,0.423,0.035,0.423,0.035v3.458c0,0-0.106,0.035-0.318,0.035c-0.212,0-0.318-0.035-0.318-0.035
			v-1.094c0-0.529-0.035-1.235,0.035-1.623h-0.035c-0.071,0.318-0.353,0.812-0.529,1.235l-0.353,0.741c0,0-0.071,0.035-0.176,0.035
			s-0.141-0.035-0.141-0.035c-0.106-0.247-0.247-0.459-0.353-0.706c-0.212-0.423-0.494-0.953-0.565-1.27h-0.035
			c0.071,0.353,0.071,0.988,0.071,1.517v1.2c0,0-0.106,0.035-0.282,0.035s-0.282-0.035-0.282-0.035V25.91
			c0,0,0.141-0.035,0.388-0.035c0.176,0,0.388,0.035,0.388,0.035l0.459,0.917c0.176,0.353,0.353,0.706,0.423,0.953h0.035
			c0.035-0.141,0.106-0.318,0.212-0.529c0.212-0.459,0.423-0.917,0.635-1.376C132.117,25.91,132.293,25.875,132.399,25.875z"/>
	</g>
</g>
</svg>
