<svg width="586" height="666" viewBox="0 0 586 666" fill="none" xmlns="http://www.w3.org/2000/svg">
<g opacity="0.5" filter="url(#filter0_d_978_2199)">
<rect x="99" y="90" width="437" height="516" rx="16" fill="white"/>
</g>
<path d="M133.064 204L138.024 192.64H139.656L144.616 204H142.664L141.368 201.024H136.28L135 204H133.064ZM138.824 195.168L137 199.36H140.648L138.824 195.168ZM148.98 204.16C147.892 204.16 146.974 203.755 146.228 202.944C145.492 202.133 145.124 201.152 145.124 200C145.124 198.848 145.492 197.867 146.228 197.056C146.974 196.245 147.892 195.84 148.98 195.84C149.524 195.84 150.025 195.963 150.484 196.208C150.942 196.443 151.294 196.731 151.54 197.072V192H153.3V204H151.54V202.928C151.294 203.269 150.942 203.563 150.484 203.808C150.025 204.043 149.524 204.16 148.98 204.16ZM147.588 201.824C148.036 202.315 148.606 202.56 149.3 202.56C149.993 202.56 150.564 202.315 151.012 201.824C151.46 201.333 151.684 200.725 151.684 200C151.684 199.275 151.46 198.667 151.012 198.176C150.564 197.685 149.993 197.44 149.3 197.44C148.606 197.44 148.036 197.685 147.588 198.176C147.14 198.667 146.916 199.275 146.916 200C146.916 200.725 147.14 201.333 147.588 201.824ZM160.077 204V197.568H158.413V196H160.077V194.656C160.077 193.792 160.333 193.12 160.845 192.64C161.357 192.149 162.013 191.904 162.813 191.904C163.303 191.904 163.741 191.968 164.125 192.096V193.664C163.879 193.557 163.565 193.504 163.181 193.504C162.711 193.504 162.37 193.611 162.157 193.824C161.943 194.027 161.837 194.373 161.837 194.864V196H164.125V197.568H161.837V204H160.077ZM171.917 202.96C171.117 203.76 170.125 204.16 168.941 204.16C167.757 204.16 166.759 203.76 165.949 202.96C165.149 202.149 164.749 201.163 164.749 200C164.749 198.837 165.149 197.856 165.949 197.056C166.759 196.245 167.757 195.84 168.941 195.84C170.125 195.84 171.117 196.245 171.917 197.056C172.727 197.856 173.133 198.837 173.133 200C173.133 201.163 172.727 202.149 171.917 202.96ZM168.941 202.528C169.634 202.528 170.205 202.288 170.653 201.808C171.111 201.317 171.341 200.715 171.341 200C171.341 199.285 171.111 198.688 170.653 198.208C170.205 197.717 169.634 197.472 168.941 197.472C168.237 197.472 167.655 197.717 167.197 198.208C166.749 198.688 166.525 199.285 166.525 200C166.525 200.715 166.749 201.317 167.197 201.808C167.655 202.288 168.237 202.528 168.941 202.528ZM174.903 204V196H176.663V197.424C176.812 196.976 177.084 196.613 177.479 196.336C177.884 196.059 178.316 195.92 178.775 195.92C179.052 195.92 179.281 195.941 179.463 195.984V197.792C179.207 197.696 178.913 197.648 178.583 197.648C178.049 197.648 177.596 197.867 177.223 198.304C176.849 198.731 176.663 199.328 176.663 200.096V204H174.903ZM191.173 204V199.504C191.173 198.853 191.05 198.347 190.805 197.984C190.57 197.621 190.218 197.44 189.749 197.44C189.184 197.44 188.73 197.659 188.389 198.096C188.048 198.533 187.866 199.147 187.845 199.936V204H186.085V199.504C186.085 198.853 185.962 198.347 185.717 197.984C185.482 197.621 185.13 197.44 184.661 197.44C184.074 197.44 183.605 197.669 183.253 198.128C182.912 198.587 182.741 199.232 182.741 200.064V204H180.981V196H182.741V197.088C183.232 196.256 183.989 195.84 185.013 195.84C186.218 195.84 187.045 196.368 187.493 197.424C187.717 196.923 188.058 196.533 188.517 196.256C188.986 195.979 189.498 195.84 190.053 195.84C190.949 195.84 191.653 196.144 192.165 196.752C192.677 197.36 192.933 198.181 192.933 199.216V204H191.173ZM198.464 204.16C197.376 204.16 196.459 203.755 195.712 202.944C194.976 202.133 194.608 201.152 194.608 200C194.608 198.848 194.976 197.867 195.712 197.056C196.459 196.245 197.376 195.84 198.464 195.84C199.008 195.84 199.509 195.963 199.968 196.208C200.427 196.443 200.779 196.731 201.024 197.072V196H202.784V204H201.024V202.928C200.779 203.269 200.427 203.563 199.968 203.808C199.509 204.043 199.008 204.16 198.464 204.16ZM197.072 201.824C197.52 202.315 198.091 202.56 198.784 202.56C199.477 202.56 200.048 202.315 200.496 201.824C200.944 201.333 201.168 200.725 201.168 200C201.168 199.275 200.944 198.667 200.496 198.176C200.048 197.685 199.477 197.44 198.784 197.44C198.091 197.44 197.52 197.685 197.072 198.176C196.624 198.667 196.4 199.275 196.4 200C196.4 200.725 196.624 201.333 197.072 201.824ZM208.64 204.08C207.83 204.08 207.168 203.856 206.656 203.408C206.155 202.949 205.904 202.288 205.904 201.424V197.568H204.24V196H205.904V193.776H207.664V196H209.952V197.568H207.664V201.136C207.664 201.627 207.771 201.979 207.984 202.192C208.198 202.395 208.539 202.496 209.008 202.496C209.392 202.496 209.707 202.443 209.952 202.336V203.904C209.568 204.021 209.131 204.08 208.64 204.08ZM214.438 204.16C213.488 204.16 212.688 203.925 212.038 203.456C211.398 202.987 211.056 202.357 211.014 201.568H212.838C212.966 202.357 213.515 202.752 214.486 202.752C214.88 202.752 215.195 202.683 215.43 202.544C215.664 202.395 215.782 202.181 215.782 201.904C215.782 201.627 215.691 201.408 215.51 201.248C215.328 201.088 215.024 200.955 214.598 200.848L213.286 200.496C211.92 200.133 211.238 199.328 211.238 198.08C211.238 197.408 211.51 196.869 212.054 196.464C212.598 196.048 213.318 195.84 214.214 195.84C215.078 195.84 215.787 196.059 216.342 196.496C216.896 196.933 217.206 197.515 217.27 198.24H215.51C215.339 197.579 214.902 197.248 214.198 197.248C213.846 197.248 213.563 197.323 213.35 197.472C213.136 197.611 213.03 197.808 213.03 198.064C213.03 198.523 213.387 198.843 214.102 199.024L215.446 199.376C216.864 199.739 217.574 200.544 217.574 201.792C217.574 202.549 217.28 203.136 216.694 203.552C216.118 203.957 215.366 204.16 214.438 204.16ZM220.46 198.592C220.087 198.592 219.761 198.459 219.484 198.192C219.217 197.915 219.084 197.584 219.084 197.2C219.084 196.827 219.217 196.501 219.484 196.224C219.761 195.947 220.087 195.808 220.46 195.808C220.844 195.808 221.169 195.947 221.436 196.224C221.713 196.501 221.852 196.827 221.852 197.2C221.852 197.584 221.713 197.915 221.436 198.192C221.169 198.459 220.844 198.592 220.46 198.592ZM220.46 204.128C220.087 204.128 219.761 203.995 219.484 203.728C219.217 203.451 219.084 203.12 219.084 202.736C219.084 202.363 219.217 202.037 219.484 201.76C219.761 201.483 220.087 201.344 220.46 201.344C220.844 201.344 221.169 201.483 221.436 201.76C221.713 202.037 221.852 202.363 221.852 202.736C221.852 203.12 221.713 203.451 221.436 203.728C221.169 203.995 220.844 204.128 220.46 204.128Z" fill="black"/>
<path d="M134.392 412V400.64H138.312C139.304 400.64 140.115 400.944 140.744 401.552C141.384 402.16 141.704 402.901 141.704 403.776C141.704 404.715 141.352 405.445 140.648 405.968C141.864 406.469 142.472 407.371 142.472 408.672C142.472 409.621 142.125 410.416 141.432 411.056C140.749 411.685 139.875 412 138.808 412H134.392ZM136.264 410.288H138.76C139.357 410.288 139.821 410.139 140.152 409.84C140.483 409.541 140.648 409.147 140.648 408.656C140.648 408.176 140.483 407.787 140.152 407.488C139.821 407.179 139.357 407.024 138.76 407.024H136.264V410.288ZM136.264 405.424H138.216C138.717 405.424 139.117 405.28 139.416 404.992C139.715 404.704 139.864 404.336 139.864 403.888C139.864 403.461 139.715 403.099 139.416 402.8C139.117 402.501 138.717 402.352 138.216 402.352H136.264V405.424ZM145.111 402.256C144.791 402.256 144.514 402.144 144.279 401.92C144.044 401.685 143.927 401.403 143.927 401.072C143.927 400.752 144.044 400.48 144.279 400.256C144.514 400.021 144.791 399.904 145.111 399.904C145.442 399.904 145.719 400.021 145.943 400.256C146.167 400.48 146.279 400.752 146.279 401.072C146.279 401.403 146.167 401.685 145.943 401.92C145.719 402.144 145.442 402.256 145.111 402.256ZM144.231 412V404H145.991V412H144.231ZM151.636 412.16C150.548 412.16 149.631 411.755 148.884 410.944C148.148 410.133 147.78 409.152 147.78 408C147.78 406.848 148.148 405.867 148.884 405.056C149.631 404.245 150.548 403.84 151.636 403.84C152.18 403.84 152.681 403.963 153.14 404.208C153.599 404.443 153.951 404.731 154.196 405.072V400H155.956V412H154.196V410.928C153.951 411.269 153.599 411.563 153.14 411.808C152.681 412.043 152.18 412.16 151.636 412.16ZM150.244 409.824C150.692 410.315 151.263 410.56 151.956 410.56C152.649 410.56 153.22 410.315 153.668 409.824C154.116 409.333 154.34 408.725 154.34 408C154.34 407.275 154.116 406.667 153.668 406.176C153.22 405.685 152.649 405.44 151.956 405.44C151.263 405.44 150.692 405.685 150.244 406.176C149.796 406.667 149.572 407.275 149.572 408C149.572 408.725 149.796 409.333 150.244 409.824ZM161.62 412.16C160.532 412.16 159.615 411.755 158.868 410.944C158.132 410.133 157.764 409.152 157.764 408C157.764 406.848 158.132 405.867 158.868 405.056C159.615 404.245 160.532 403.84 161.62 403.84C162.164 403.84 162.666 403.963 163.124 404.208C163.583 404.443 163.935 404.731 164.18 405.072V400H165.94V412H164.18V410.928C163.935 411.269 163.583 411.563 163.124 411.808C162.666 412.043 162.164 412.16 161.62 412.16ZM160.228 409.824C160.676 410.315 161.247 410.56 161.94 410.56C162.634 410.56 163.204 410.315 163.652 409.824C164.1 409.333 164.324 408.725 164.324 408C164.324 407.275 164.1 406.667 163.652 406.176C163.204 405.685 162.634 405.44 161.94 405.44C161.247 405.44 160.676 405.685 160.228 406.176C159.78 406.667 159.556 407.275 159.556 408C159.556 408.725 159.78 409.333 160.228 409.824ZM169.205 402.256C168.885 402.256 168.607 402.144 168.373 401.92C168.138 401.685 168.021 401.403 168.021 401.072C168.021 400.752 168.138 400.48 168.373 400.256C168.607 400.021 168.885 399.904 169.205 399.904C169.535 399.904 169.813 400.021 170.037 400.256C170.261 400.48 170.373 400.752 170.373 401.072C170.373 401.403 170.261 401.685 170.037 401.92C169.813 402.144 169.535 402.256 169.205 402.256ZM168.325 412V404H170.085V412H168.325ZM172.45 412V404H174.21V405.088C174.711 404.256 175.522 403.84 176.642 403.84C177.57 403.84 178.311 404.144 178.866 404.752C179.42 405.36 179.698 406.171 179.698 407.184V412H177.938V407.472C177.938 406.832 177.788 406.336 177.49 405.984C177.191 405.621 176.786 405.44 176.274 405.44C175.666 405.44 175.17 405.669 174.786 406.128C174.402 406.587 174.21 407.232 174.21 408.064V412H172.45ZM185.566 415.504C184.478 415.504 183.582 415.237 182.878 414.704C182.184 414.171 181.784 413.477 181.678 412.624H183.406C183.715 413.541 184.451 414 185.614 414C186.243 414 186.76 413.792 187.166 413.376C187.582 412.971 187.79 412.395 187.79 411.648V410.704C187.534 411.067 187.176 411.365 186.718 411.6C186.259 411.835 185.763 411.952 185.23 411.952C184.152 411.952 183.24 411.563 182.494 410.784C181.758 409.995 181.39 409.029 181.39 407.888C181.39 406.757 181.758 405.803 182.494 405.024C183.24 404.235 184.152 403.84 185.23 403.84C185.763 403.84 186.259 403.957 186.718 404.192C187.176 404.416 187.534 404.709 187.79 405.072V404H189.55V411.504C189.55 412.827 189.171 413.824 188.414 414.496C187.667 415.168 186.718 415.504 185.566 415.504ZM183.854 409.648C184.312 410.107 184.878 410.336 185.55 410.336C186.222 410.336 186.787 410.107 187.246 409.648C187.704 409.179 187.934 408.592 187.934 407.888C187.934 407.184 187.704 406.603 187.246 406.144C186.787 405.675 186.222 405.44 185.55 405.44C184.878 405.44 184.312 405.675 183.854 406.144C183.395 406.603 183.166 407.184 183.166 407.888C183.166 408.592 183.395 409.179 183.854 409.648ZM205.876 412V407.504C205.876 406.853 205.753 406.347 205.508 405.984C205.273 405.621 204.921 405.44 204.452 405.44C203.887 405.44 203.433 405.659 203.092 406.096C202.751 406.533 202.569 407.147 202.548 407.936V412H200.788V407.504C200.788 406.853 200.665 406.347 200.42 405.984C200.185 405.621 199.833 405.44 199.364 405.44C198.777 405.44 198.308 405.669 197.956 406.128C197.615 406.587 197.444 407.232 197.444 408.064V412H195.684V404H197.444V405.088C197.935 404.256 198.692 403.84 199.716 403.84C200.921 403.84 201.748 404.368 202.196 405.424C202.42 404.923 202.761 404.533 203.22 404.256C203.689 403.979 204.201 403.84 204.756 403.84C205.652 403.84 206.356 404.144 206.868 404.752C207.38 405.36 207.636 406.181 207.636 407.216V412H205.876ZM216.479 410.96C215.679 411.76 214.687 412.16 213.503 412.16C212.319 412.16 211.322 411.76 210.511 410.96C209.711 410.149 209.311 409.163 209.311 408C209.311 406.837 209.711 405.856 210.511 405.056C211.322 404.245 212.319 403.84 213.503 403.84C214.687 403.84 215.679 404.245 216.479 405.056C217.29 405.856 217.695 406.837 217.695 408C217.695 409.163 217.29 410.149 216.479 410.96ZM213.503 410.528C214.196 410.528 214.767 410.288 215.215 409.808C215.674 409.317 215.903 408.715 215.903 408C215.903 407.285 215.674 406.688 215.215 406.208C214.767 405.717 214.196 405.472 213.503 405.472C212.799 405.472 212.218 405.717 211.759 406.208C211.311 406.688 211.087 407.285 211.087 408C211.087 408.715 211.311 409.317 211.759 409.808C212.218 410.288 212.799 410.528 213.503 410.528ZM222.745 412.16C221.657 412.16 220.74 411.755 219.993 410.944C219.257 410.133 218.889 409.152 218.889 408C218.889 406.848 219.257 405.867 219.993 405.056C220.74 404.245 221.657 403.84 222.745 403.84C223.289 403.84 223.791 403.963 224.249 404.208C224.708 404.443 225.06 404.731 225.305 405.072V400H227.065V412H225.305V410.928C225.06 411.269 224.708 411.563 224.249 411.808C223.791 412.043 223.289 412.16 222.745 412.16ZM221.353 409.824C221.801 410.315 222.372 410.56 223.065 410.56C223.759 410.56 224.329 410.315 224.777 409.824C225.225 409.333 225.449 408.725 225.449 408C225.449 407.275 225.225 406.667 224.777 406.176C224.329 405.685 223.759 405.44 223.065 405.44C222.372 405.44 221.801 405.685 221.353 406.176C220.905 406.667 220.681 407.275 220.681 408C220.681 408.725 220.905 409.333 221.353 409.824ZM232.986 412.16C231.791 412.16 230.81 411.771 230.042 410.992C229.274 410.203 228.89 409.205 228.89 408C228.89 406.795 229.268 405.803 230.026 405.024C230.783 404.235 231.775 403.84 233.002 403.84C234.239 403.84 235.236 404.272 235.994 405.136C236.751 405.989 237.087 407.088 237.002 408.432H230.634C230.655 409.051 230.89 409.568 231.338 409.984C231.786 410.4 232.356 410.608 233.05 410.608C234.031 410.608 234.703 410.235 235.066 409.488H236.906C236.66 410.267 236.191 410.907 235.498 411.408C234.804 411.909 233.967 412.16 232.986 412.16ZM232.954 405.312C232.378 405.312 231.882 405.477 231.466 405.808C231.06 406.128 230.799 406.587 230.682 407.184H235.114C234.986 406.565 234.724 406.101 234.33 405.792C233.935 405.472 233.476 405.312 232.954 405.312ZM238.809 412V400H240.569V412H238.809ZM245.75 412.16C244.801 412.16 244.001 411.925 243.35 411.456C242.71 410.987 242.369 410.357 242.326 409.568H244.15C244.278 410.357 244.827 410.752 245.798 410.752C246.193 410.752 246.507 410.683 246.742 410.544C246.977 410.395 247.094 410.181 247.094 409.904C247.094 409.627 247.003 409.408 246.822 409.248C246.641 409.088 246.337 408.955 245.91 408.848L244.598 408.496C243.233 408.133 242.55 407.328 242.55 406.08C242.55 405.408 242.822 404.869 243.366 404.464C243.91 404.048 244.63 403.84 245.526 403.84C246.39 403.84 247.099 404.059 247.654 404.496C248.209 404.933 248.518 405.515 248.582 406.24H246.822C246.651 405.579 246.214 405.248 245.51 405.248C245.158 405.248 244.875 405.323 244.662 405.472C244.449 405.611 244.342 405.808 244.342 406.064C244.342 406.523 244.699 406.843 245.414 407.024L246.758 407.376C248.177 407.739 248.886 408.544 248.886 409.792C248.886 410.549 248.593 411.136 248.006 411.552C247.43 411.957 246.678 412.16 245.75 412.16ZM251.772 406.592C251.399 406.592 251.074 406.459 250.796 406.192C250.53 405.915 250.396 405.584 250.396 405.2C250.396 404.827 250.53 404.501 250.796 404.224C251.074 403.947 251.399 403.808 251.772 403.808C252.156 403.808 252.482 403.947 252.748 404.224C253.026 404.501 253.164 404.827 253.164 405.2C253.164 405.584 253.026 405.915 252.748 406.192C252.482 406.459 252.156 406.592 251.772 406.592ZM251.772 412.128C251.399 412.128 251.074 411.995 250.796 411.728C250.53 411.451 250.396 411.12 250.396 410.736C250.396 410.363 250.53 410.037 250.796 409.76C251.074 409.483 251.399 409.344 251.772 409.344C252.156 409.344 252.482 409.483 252.748 409.76C253.026 410.037 253.164 410.363 253.164 410.736C253.164 411.12 253.026 411.451 252.748 411.728C252.482 411.995 252.156 412.128 251.772 412.128Z" fill="black"/>
<rect x="163" y="234" width="32" height="32" rx="8" fill="#14B082" fill-opacity="0.1"/>
<path d="M183.667 244H174.333C173.597 244 173 244.597 173 245.333V254.667C173 255.403 173.597 256 174.333 256H183.667C184.403 256 185 255.403 185 254.667V245.333C185 244.597 184.403 244 183.667 244Z" stroke="#14B082" stroke-width="1.5" stroke-linecap="round" stroke-linejoin="round"/>
<path d="M177 248H185" stroke="#14B082" stroke-width="1.5" stroke-linecap="round" stroke-linejoin="round"/>
<path d="M177 244V248" stroke="#14B082" stroke-width="1.5" stroke-linecap="round" stroke-linejoin="round"/>
<path opacity="0.7" d="M207.994 255V245.2H211.424C212.189 245.2 212.824 245.331 213.328 245.592C213.832 245.844 214.205 246.194 214.448 246.642C214.7 247.081 214.826 247.58 214.826 248.14C214.826 248.672 214.705 249.162 214.462 249.61C214.229 250.049 213.86 250.399 213.356 250.66C212.852 250.921 212.208 251.052 211.424 251.052H209.478V255H207.994ZM209.478 249.834H211.354C212.054 249.834 212.553 249.685 212.852 249.386C213.16 249.078 213.314 248.663 213.314 248.14C213.314 247.599 213.16 247.179 212.852 246.88C212.553 246.572 212.054 246.418 211.354 246.418H209.478V249.834ZM218.799 255.168C217.959 255.168 217.296 254.907 216.811 254.384C216.335 253.861 216.097 253.082 216.097 252.046V248.056H217.581V251.892C217.581 253.236 218.131 253.908 219.233 253.908C219.783 253.908 220.236 253.712 220.591 253.32C220.945 252.928 221.123 252.368 221.123 251.64V248.056H222.607V255H221.291L221.179 253.782C220.964 254.211 220.647 254.552 220.227 254.804C219.816 255.047 219.34 255.168 218.799 255.168ZM227.267 255.168C226.389 255.168 225.666 254.953 225.097 254.524C224.527 254.095 224.201 253.525 224.117 252.816H225.615C225.689 253.133 225.867 253.409 226.147 253.642C226.427 253.866 226.795 253.978 227.253 253.978C227.701 253.978 228.027 253.885 228.233 253.698C228.438 253.511 228.541 253.297 228.541 253.054C228.541 252.699 228.396 252.461 228.107 252.34C227.827 252.209 227.435 252.093 226.931 251.99C226.539 251.906 226.147 251.794 225.755 251.654C225.372 251.514 225.05 251.318 224.789 251.066C224.537 250.805 224.411 250.455 224.411 250.016C224.411 249.409 224.644 248.905 225.111 248.504C225.577 248.093 226.231 247.888 227.071 247.888C227.845 247.888 228.471 248.075 228.947 248.448C229.432 248.821 229.717 249.349 229.801 250.03H228.373C228.326 249.731 228.186 249.498 227.953 249.33C227.729 249.162 227.425 249.078 227.043 249.078C226.669 249.078 226.38 249.157 226.175 249.316C225.969 249.465 225.867 249.661 225.867 249.904C225.867 250.147 226.007 250.338 226.287 250.478C226.576 250.618 226.954 250.744 227.421 250.856C227.887 250.959 228.317 251.08 228.709 251.22C229.11 251.351 229.432 251.547 229.675 251.808C229.917 252.069 230.039 252.452 230.039 252.956C230.048 253.591 229.801 254.118 229.297 254.538C228.802 254.958 228.125 255.168 227.267 255.168ZM231.659 255V244.92H233.143V249.176C233.376 248.775 233.698 248.462 234.109 248.238C234.529 248.005 234.991 247.888 235.495 247.888C236.325 247.888 236.979 248.149 237.455 248.672C237.931 249.195 238.169 249.974 238.169 251.01V255H236.699V251.164C236.699 249.82 236.162 249.148 235.089 249.148C234.529 249.148 234.062 249.344 233.689 249.736C233.325 250.128 233.143 250.688 233.143 251.416V255H231.659Z" fill="#1E1E20"/>
<g clip-path="url(#clip0_978_2199)">
<path d="M141.001 257.692C136.752 257.692 133.309 254.248 133.309 250C133.309 245.751 136.752 242.308 141.001 242.308C145.249 242.308 148.693 245.751 148.693 250C148.693 254.248 145.249 257.692 141.001 257.692ZM140.234 253.077L145.672 247.638L144.585 246.55L140.234 250.901L138.058 248.725L136.97 249.813L140.234 253.077Z" fill="#4A5AFF"/>
</g>
<rect x="163" y="442" width="32" height="32" rx="8" fill="#416FF4" fill-opacity="0.1"/>
<path d="M173.4 450.8C173.187 450.8 172.984 450.884 172.834 451.034C172.684 451.184 172.6 451.388 172.6 451.6C172.6 451.812 172.684 452.016 172.834 452.166C172.984 452.316 173.187 452.4 173.4 452.4H174.376L174.62 453.378C174.622 453.389 174.625 453.4 174.628 453.411L175.714 457.755L175 458.469C173.992 459.477 174.705 461.2 176.131 461.2H183C183.212 461.2 183.415 461.116 183.565 460.966C183.715 460.816 183.8 460.612 183.8 460.4C183.8 460.188 183.715 459.984 183.565 459.834C183.415 459.684 183.212 459.6 183 459.6H176.131L176.931 458.8H182.2C182.348 458.8 182.494 458.759 182.62 458.68C182.746 458.602 182.848 458.491 182.915 458.358L185.315 453.558C185.376 453.436 185.405 453.3 185.398 453.164C185.392 453.028 185.351 452.896 185.28 452.78C185.208 452.664 185.108 452.568 184.989 452.501C184.87 452.435 184.736 452.4 184.6 452.4H176.024L175.776 451.406C175.732 451.233 175.632 451.079 175.492 450.969C175.351 450.86 175.178 450.8 175 450.8H173.4ZM183.8 463.2C183.8 463.518 183.673 463.824 183.448 464.049C183.223 464.274 182.918 464.4 182.6 464.4C182.281 464.4 181.976 464.274 181.751 464.049C181.526 463.824 181.4 463.518 181.4 463.2C181.4 462.882 181.526 462.577 181.751 462.352C181.976 462.126 182.281 462 182.6 462C182.918 462 183.223 462.126 183.448 462.352C183.673 462.577 183.8 462.882 183.8 463.2ZM176.2 464.4C176.518 464.4 176.823 464.274 177.048 464.049C177.273 463.824 177.4 463.518 177.4 463.2C177.4 462.882 177.273 462.577 177.048 462.352C176.823 462.126 176.518 462 176.2 462C175.881 462 175.576 462.126 175.351 462.352C175.126 462.577 175 462.882 175 463.2C175 463.518 175.126 463.824 175.351 464.049C175.576 464.274 175.881 464.4 176.2 464.4Z" fill="#416FF4"/>
<path opacity="0.7" d="M212.362 463.168C211.391 463.168 210.551 462.958 209.842 462.538C209.142 462.109 208.601 461.516 208.218 460.76C207.835 459.995 207.644 459.113 207.644 458.114C207.644 457.106 207.835 456.224 208.218 455.468C208.601 454.703 209.142 454.105 209.842 453.676C210.551 453.247 211.391 453.032 212.362 453.032C213.51 453.032 214.448 453.312 215.176 453.872C215.904 454.432 216.366 455.216 216.562 456.224H214.91C214.779 455.655 214.499 455.202 214.07 454.866C213.641 454.53 213.067 454.362 212.348 454.362C211.368 454.362 210.593 454.698 210.024 455.37C209.455 456.033 209.17 456.947 209.17 458.114C209.17 459.271 209.455 460.181 210.024 460.844C210.593 461.507 211.368 461.838 212.348 461.838C213.067 461.838 213.641 461.679 214.07 461.362C214.499 461.045 214.779 460.611 214.91 460.06H216.562C216.366 461.031 215.904 461.791 215.176 462.342C214.448 462.893 213.51 463.168 212.362 463.168ZM218.193 463V453.2H221.623C222.389 453.2 223.023 453.331 223.527 453.592C224.031 453.844 224.405 454.194 224.647 454.642C224.899 455.081 225.025 455.58 225.025 456.14C225.025 456.672 224.904 457.162 224.661 457.61C224.428 458.049 224.059 458.399 223.555 458.66C223.051 458.921 222.407 459.052 221.623 459.052H219.677V463H218.193ZM219.677 457.834H221.553C222.253 457.834 222.753 457.685 223.051 457.386C223.359 457.078 223.513 456.663 223.513 456.14C223.513 455.599 223.359 455.179 223.051 454.88C222.753 454.572 222.253 454.418 221.553 454.418H219.677V457.834ZM224.727 463L228.339 453.2H229.963L233.547 463H231.979L231.139 460.606H227.135L226.295 463H224.727ZM227.555 459.43H230.719L229.137 454.964L227.555 459.43Z" fill="#1E1E20"/>
<path fill-rule="evenodd" clip-rule="evenodd" d="M141.001 451.503C137.406 451.503 134.492 454.426 134.492 458.033C134.492 461.64 137.406 464.564 141.001 464.564C144.596 464.564 147.51 461.64 147.51 458.033C147.51 454.426 144.596 451.503 141.001 451.503ZM133.309 458.033C133.309 453.771 136.753 450.315 141.001 450.315C145.249 450.315 148.693 453.771 148.693 458.033C148.693 462.296 145.249 465.751 141.001 465.751C136.753 465.751 133.309 462.296 133.309 458.033Z" fill="#ACACB0" fill-opacity="0.8"/>
<rect x="361" y="442" width="32" height="32" rx="8" fill="#416FF4" fill-opacity="0.1"/>
<path fill-rule="evenodd" clip-rule="evenodd" d="M377.001 451.333C376.264 451.333 375.667 451.93 375.667 452.667C375.67 453.14 375.924 453.577 376.334 453.813V454.667H374.334C372.861 454.667 371.667 455.861 371.667 457.333V458.667C370.931 458.667 370.334 459.264 370.334 460C370.334 460.736 370.931 461.333 371.667 461.333V462C371.667 463.473 372.861 464.667 374.334 464.667H379.667C381.14 464.667 382.334 463.473 382.334 462V461.333C383.07 461.333 383.667 460.736 383.667 460C383.667 459.264 383.07 458.667 382.334 458.667V457.333C382.334 455.861 381.14 454.667 379.667 454.667H377.667V453.813C378.136 453.536 378.389 453 378.306 452.461C378.222 451.923 377.819 451.489 377.287 451.367C377.194 451.342 377.097 451.331 377.001 451.333ZM373.001 457.333C373.001 456.597 373.598 456 374.334 456H379.667C380.404 456 381.001 456.597 381.001 457.333V462C381.001 462.736 380.404 463.333 379.667 463.333H374.334C373.598 463.333 373.001 462.736 373.001 462V457.333ZM375.334 457.333C375.886 457.333 376.334 457.781 376.334 458.333C376.334 458.517 376.185 458.667 376.001 458.667H374.667C374.483 458.667 374.334 458.517 374.334 458.333C374.334 457.781 374.782 457.333 375.334 457.333ZM378.667 457.333C378.115 457.333 377.667 457.781 377.667 458.333C377.667 458.517 377.817 458.667 378.001 458.667H379.334C379.518 458.667 379.667 458.517 379.667 458.333C379.667 457.781 379.22 457.333 378.667 457.333ZM375.667 460H378.334C378.702 460 379.001 460.299 379.001 460.667C379.001 461.403 378.404 462 377.667 462H376.334C375.598 462 375.001 461.403 375.001 460.667C375.001 460.299 375.299 460 375.667 460Z" fill="#416FF4"/>
<path opacity="0.7" d="M409.228 463.168C408.509 463.168 407.879 463.042 407.338 462.79C406.797 462.538 406.372 462.179 406.064 461.712C405.765 461.245 405.611 460.69 405.602 460.046H407.17C407.179 460.569 407.361 461.012 407.716 461.376C408.071 461.74 408.57 461.922 409.214 461.922C409.783 461.922 410.227 461.787 410.544 461.516C410.871 461.236 411.034 460.881 411.034 460.452C411.034 460.107 410.955 459.827 410.796 459.612C410.647 459.397 410.437 459.22 410.166 459.08C409.905 458.94 409.601 458.814 409.256 458.702C408.911 458.59 408.547 458.469 408.164 458.338C407.408 458.086 406.839 457.759 406.456 457.358C406.083 456.957 405.896 456.429 405.896 455.776C405.887 455.225 406.013 454.745 406.274 454.334C406.545 453.923 406.918 453.606 407.394 453.382C407.879 453.149 408.444 453.032 409.088 453.032C409.723 453.032 410.278 453.149 410.754 453.382C411.239 453.615 411.617 453.942 411.888 454.362C412.159 454.773 412.299 455.253 412.308 455.804H410.74C410.74 455.552 410.675 455.314 410.544 455.09C410.413 454.857 410.222 454.665 409.97 454.516C409.718 454.367 409.41 454.292 409.046 454.292C408.579 454.283 408.192 454.399 407.884 454.642C407.585 454.885 407.436 455.221 407.436 455.65C407.436 456.033 407.548 456.327 407.772 456.532C407.996 456.737 408.304 456.91 408.696 457.05C409.088 457.181 409.536 457.335 410.04 457.512C410.525 457.671 410.959 457.862 411.342 458.086C411.725 458.31 412.028 458.604 412.252 458.968C412.485 459.332 412.602 459.794 412.602 460.354C412.602 460.849 412.476 461.311 412.224 461.74C411.972 462.16 411.594 462.505 411.09 462.776C410.586 463.037 409.965 463.168 409.228 463.168ZM414.168 463V456.056H415.484L415.61 457.036C415.834 456.681 416.128 456.401 416.492 456.196C416.866 455.991 417.295 455.888 417.78 455.888C418.882 455.888 419.647 456.322 420.076 457.19C420.328 456.789 420.664 456.471 421.084 456.238C421.514 456.005 421.976 455.888 422.47 455.888C423.338 455.888 424.02 456.149 424.514 456.672C425.009 457.195 425.256 457.974 425.256 459.01V463H423.772V459.164C423.772 457.82 423.259 457.148 422.232 457.148C421.71 457.148 421.28 457.344 420.944 457.736C420.618 458.128 420.454 458.688 420.454 459.416V463H418.97V459.164C418.97 457.82 418.452 457.148 417.416 457.148C416.903 457.148 416.478 457.344 416.142 457.736C415.816 458.128 415.652 458.688 415.652 459.416V463H414.168ZM429.345 463.168C428.757 463.168 428.271 463.07 427.889 462.874C427.506 462.678 427.221 462.421 427.035 462.104C426.848 461.777 426.755 461.423 426.755 461.04C426.755 460.368 427.016 459.836 427.539 459.444C428.061 459.052 428.808 458.856 429.779 458.856H431.599V458.73C431.599 458.189 431.449 457.783 431.151 457.512C430.861 457.241 430.483 457.106 430.017 457.106C429.606 457.106 429.247 457.209 428.939 457.414C428.64 457.61 428.458 457.904 428.393 458.296H426.909C426.955 457.792 427.123 457.363 427.413 457.008C427.711 456.644 428.085 456.369 428.533 456.182C428.99 455.986 429.489 455.888 430.031 455.888C431.001 455.888 431.753 456.145 432.285 456.658C432.817 457.162 433.083 457.853 433.083 458.73V463H431.795L431.669 461.81C431.473 462.193 431.188 462.515 430.815 462.776C430.441 463.037 429.951 463.168 429.345 463.168ZM429.639 461.964C430.04 461.964 430.376 461.871 430.647 461.684C430.927 461.488 431.141 461.231 431.291 460.914C431.449 460.597 431.547 460.247 431.585 459.864H429.933C429.345 459.864 428.925 459.967 428.673 460.172C428.43 460.377 428.309 460.634 428.309 460.942C428.309 461.259 428.425 461.511 428.659 461.698C428.901 461.875 429.228 461.964 429.639 461.964ZM434.813 463V456.056H436.143L436.269 457.372C436.512 456.915 436.848 456.555 437.277 456.294C437.716 456.023 438.243 455.888 438.859 455.888V457.442H438.453C438.042 457.442 437.674 457.512 437.347 457.652C437.03 457.783 436.773 458.011 436.577 458.338C436.39 458.655 436.297 459.099 436.297 459.668V463H434.813ZM443.043 463C442.362 463 441.821 462.837 441.419 462.51C441.018 462.174 440.817 461.581 440.817 460.732V457.302H439.627V456.056H440.817L440.999 454.292H442.301V456.056H444.261V457.302H442.301V460.732C442.301 461.115 442.381 461.381 442.539 461.53C442.707 461.67 442.992 461.74 443.393 461.74H444.191V463H443.043Z" fill="#1E1E20"/>
<g clip-path="url(#clip1_978_2199)">
<path d="M339.001 465.751C334.752 465.751 331.309 462.296 331.309 458.033C331.309 453.771 334.752 450.315 339.001 450.315C343.249 450.315 346.693 453.771 346.693 458.033C346.693 462.296 343.249 465.751 339.001 465.751ZM338.234 461.12L343.672 455.663L342.585 454.572L338.234 458.938L336.058 456.754L334.97 457.846L338.234 461.12Z" fill="#4A5AFF"/>
</g>
<rect x="163" y="490" width="32" height="32" rx="8" fill="#416FF4" fill-opacity="0.1"/>
<path d="M174.964 503.306C174.855 502.935 174.749 502.562 174.67 502.206C174.149 501.898 173.795 501.337 173.795 500.689C173.795 499.715 174.588 498.923 175.562 498.923C176.536 498.923 177.328 499.715 177.328 500.689C177.328 500.823 177.31 500.952 177.282 501.078C177.451 501.45 177.588 501.869 177.707 502.295C178.044 501.846 178.251 501.294 178.251 500.689C178.251 499.203 177.048 498 175.562 498C174.076 498 172.873 499.203 172.873 500.689C172.873 501.969 173.768 503.034 174.964 503.306Z" fill="#416FF4"/>
<path d="M173.107 509.673C173.77 508.957 174.514 509.237 175.51 509.389C176.365 509.521 177.208 509.28 177.151 508.818C177.063 508.071 176.938 507.737 176.654 506.768C176.428 505.998 175.998 504.61 175.608 503.283C175.084 501.508 174.932 500.684 175.629 500.478C176.381 500.259 176.812 501.327 177.202 502.807C177.646 504.492 177.88 505.236 178.011 505.196C178.242 505.13 177.926 504.409 178.53 504.232C179.285 504.012 179.43 504.602 179.642 504.543C179.853 504.479 179.781 503.882 180.383 503.706C180.988 503.531 181.292 504.276 181.541 504.202C181.788 504.129 181.782 503.86 182.155 503.753C182.529 503.642 183.934 504.272 184.739 507.019C185.748 510.475 184.611 511.117 184.956 512.287L180.449 514C180.085 513.123 178.955 513.058 177.955 512.499C176.948 511.932 176.264 510.827 173.64 510.881C172.653 510.901 172.699 510.114 173.107 509.673Z" fill="#416FF4"/>
<path opacity="0.7" d="M212.362 511.168C211.391 511.168 210.551 510.958 209.842 510.538C209.142 510.109 208.601 509.516 208.218 508.76C207.835 507.995 207.644 507.113 207.644 506.114C207.644 505.106 207.835 504.224 208.218 503.468C208.601 502.703 209.142 502.105 209.842 501.676C210.551 501.247 211.391 501.032 212.362 501.032C213.51 501.032 214.448 501.312 215.176 501.872C215.904 502.432 216.366 503.216 216.562 504.224H214.91C214.779 503.655 214.499 503.202 214.07 502.866C213.641 502.53 213.067 502.362 212.348 502.362C211.368 502.362 210.593 502.698 210.024 503.37C209.455 504.033 209.17 504.947 209.17 506.114C209.17 507.271 209.455 508.181 210.024 508.844C210.593 509.507 211.368 509.838 212.348 509.838C213.067 509.838 213.641 509.679 214.07 509.362C214.499 509.045 214.779 508.611 214.91 508.06H216.562C216.366 509.031 215.904 509.791 215.176 510.342C214.448 510.893 213.51 511.168 212.362 511.168ZM218.193 511V501.2H221.623C222.389 501.2 223.023 501.331 223.527 501.592C224.031 501.844 224.405 502.194 224.647 502.642C224.899 503.081 225.025 503.58 225.025 504.14C225.025 504.672 224.904 505.162 224.661 505.61C224.428 506.049 224.059 506.399 223.555 506.66C223.051 506.921 222.407 507.052 221.623 507.052H219.677V511H218.193ZM219.677 505.834H221.553C222.253 505.834 222.753 505.685 223.051 505.386C223.359 505.078 223.513 504.663 223.513 504.14C223.513 503.599 223.359 503.179 223.051 502.88C222.753 502.572 222.253 502.418 221.553 502.418H219.677V505.834ZM230.86 511.168C229.889 511.168 229.049 510.958 228.34 510.538C227.64 510.109 227.099 509.516 226.716 508.76C226.333 507.995 226.142 507.113 226.142 506.114C226.142 505.106 226.333 504.224 226.716 503.468C227.099 502.703 227.64 502.105 228.34 501.676C229.049 501.247 229.889 501.032 230.86 501.032C232.008 501.032 232.946 501.312 233.674 501.872C234.402 502.432 234.864 503.216 235.06 504.224H233.408C233.277 503.655 232.997 503.202 232.568 502.866C232.139 502.53 231.565 502.362 230.846 502.362C229.866 502.362 229.091 502.698 228.522 503.37C227.953 504.033 227.668 504.947 227.668 506.114C227.668 507.271 227.953 508.181 228.522 508.844C229.091 509.507 229.866 509.838 230.846 509.838C231.565 509.838 232.139 509.679 232.568 509.362C232.997 509.045 233.277 508.611 233.408 508.06H235.06C234.864 509.031 234.402 509.791 233.674 510.342C232.946 510.893 232.008 511.168 230.86 511.168Z" fill="#1E1E20"/>
<path fill-rule="evenodd" clip-rule="evenodd" d="M141.001 499.662C137.406 499.662 134.492 502.586 134.492 506.192C134.492 509.799 137.406 512.723 141.001 512.723C144.596 512.723 147.51 509.799 147.51 506.192C147.51 502.586 144.596 499.662 141.001 499.662ZM133.309 506.192C133.309 501.93 136.753 498.474 141.001 498.474C145.249 498.474 148.693 501.93 148.693 506.192C148.693 510.455 145.249 513.91 141.001 513.91C136.753 513.91 133.309 510.455 133.309 506.192Z" fill="#ACACB0" fill-opacity="0.8"/>
<rect x="361" y="490" width="32" height="32" rx="8" fill="#416FF4" fill-opacity="0.1"/>
<path fill-rule="evenodd" clip-rule="evenodd" d="M375.239 511.979C375.871 511.864 376.332 511.315 376.335 510.672V501.334C376.335 500.597 375.738 500 375.001 500C374.265 500 373.667 500.597 373.667 501.334C373.664 501.363 373.664 501.392 373.667 501.421C373.678 501.572 373.589 501.712 373.447 501.768C372.781 502 372.334 502.629 372.334 503.335C372.334 503.517 372.365 503.697 372.427 503.869C372.481 504.025 372.409 504.197 372.26 504.269C371.487 504.669 371.002 505.466 371.002 506.337C371.002 507.207 371.487 508.004 372.26 508.404C372.409 508.476 372.481 508.648 372.427 508.804C372.365 508.976 372.334 509.156 372.334 509.338C372.334 510.079 372.823 510.731 373.534 510.939C373.636 510.964 373.719 511.039 373.754 511.139C373.982 511.74 374.606 512.093 375.239 511.979ZM378.765 511.979C378.133 511.864 377.672 511.315 377.669 510.672V501.334C377.669 500.597 378.266 500 379.003 500C379.739 500 380.336 500.597 380.336 501.334C380.34 501.363 380.34 501.392 380.336 501.421C380.326 501.572 380.415 501.712 380.557 501.768C381.223 502 381.67 502.629 381.67 503.335C381.67 503.517 381.639 503.697 381.577 503.869C381.523 504.025 381.595 504.197 381.744 504.269C382.517 504.669 383.002 505.466 383.002 506.337C383.002 507.207 382.517 508.004 381.744 508.404C381.595 508.476 381.523 508.648 381.577 508.804C381.639 508.976 381.67 509.156 381.67 509.338C381.67 510.079 381.181 510.731 380.47 510.939C380.367 510.964 380.285 511.039 380.25 511.139C380.022 511.74 379.398 512.093 378.765 511.979Z" fill="#416FF4"/>
<path opacity="0.7" d="M405.364 511L408.976 501.2H410.6L414.184 511H412.616L411.776 508.606H407.772L406.932 511H405.364ZM408.192 507.43H411.356L409.774 502.964L408.192 507.43ZM415.551 511V501.2H417.035V511H415.551ZM418.827 507.556V506.31H424.525V507.556H418.827ZM430.147 511.168C429.605 511.168 429.125 511.061 428.705 510.846C428.294 510.631 427.967 510.328 427.725 509.936L427.571 511H426.241V500.92H427.725V505.134C427.949 504.807 428.257 504.518 428.649 504.266C429.041 504.014 429.545 503.888 430.161 503.888C430.833 503.888 431.425 504.047 431.939 504.364C432.452 504.681 432.853 505.115 433.143 505.666C433.441 506.217 433.591 506.842 433.591 507.542C433.591 508.242 433.441 508.867 433.143 509.418C432.853 509.959 432.452 510.389 431.939 510.706C431.425 511.014 430.828 511.168 430.147 511.168ZM429.895 509.88C430.529 509.88 431.052 509.665 431.463 509.236C431.873 508.797 432.079 508.228 432.079 507.528C432.079 507.071 431.985 506.665 431.799 506.31C431.612 505.955 431.355 505.68 431.029 505.484C430.702 505.279 430.324 505.176 429.895 505.176C429.26 505.176 428.737 505.395 428.327 505.834C427.925 506.273 427.725 506.837 427.725 507.528C427.725 508.228 427.925 508.797 428.327 509.236C428.737 509.665 429.26 509.88 429.895 509.88ZM437.548 511.168C436.96 511.168 436.474 511.07 436.092 510.874C435.709 510.678 435.424 510.421 435.238 510.104C435.051 509.777 434.958 509.423 434.958 509.04C434.958 508.368 435.219 507.836 435.742 507.444C436.264 507.052 437.011 506.856 437.982 506.856H439.802V506.73C439.802 506.189 439.652 505.783 439.354 505.512C439.064 505.241 438.686 505.106 438.22 505.106C437.809 505.106 437.45 505.209 437.142 505.414C436.843 505.61 436.661 505.904 436.596 506.296H435.112C435.158 505.792 435.326 505.363 435.616 505.008C435.914 504.644 436.288 504.369 436.736 504.182C437.193 503.986 437.692 503.888 438.234 503.888C439.204 503.888 439.956 504.145 440.488 504.658C441.02 505.162 441.286 505.853 441.286 506.73V511H439.998L439.872 509.81C439.676 510.193 439.391 510.515 439.018 510.776C438.644 511.037 438.154 511.168 437.548 511.168ZM437.842 509.964C438.243 509.964 438.579 509.871 438.85 509.684C439.13 509.488 439.344 509.231 439.494 508.914C439.652 508.597 439.75 508.247 439.788 507.864H438.136C437.548 507.864 437.128 507.967 436.876 508.172C436.633 508.377 436.512 508.634 436.512 508.942C436.512 509.259 436.628 509.511 436.862 509.698C437.104 509.875 437.431 509.964 437.842 509.964ZM445.788 511.168C444.911 511.168 444.187 510.953 443.618 510.524C443.049 510.095 442.722 509.525 442.638 508.816H444.136C444.211 509.133 444.388 509.409 444.668 509.642C444.948 509.866 445.317 509.978 445.774 509.978C446.222 509.978 446.549 509.885 446.754 509.698C446.959 509.511 447.062 509.297 447.062 509.054C447.062 508.699 446.917 508.461 446.628 508.34C446.348 508.209 445.956 508.093 445.452 507.99C445.06 507.906 444.668 507.794 444.276 507.654C443.893 507.514 443.571 507.318 443.31 507.066C443.058 506.805 442.932 506.455 442.932 506.016C442.932 505.409 443.165 504.905 443.632 504.504C444.099 504.093 444.752 503.888 445.592 503.888C446.367 503.888 446.992 504.075 447.468 504.448C447.953 504.821 448.238 505.349 448.322 506.03H446.894C446.847 505.731 446.707 505.498 446.474 505.33C446.25 505.162 445.947 505.078 445.564 505.078C445.191 505.078 444.901 505.157 444.696 505.316C444.491 505.465 444.388 505.661 444.388 505.904C444.388 506.147 444.528 506.338 444.808 506.478C445.097 506.618 445.475 506.744 445.942 506.856C446.409 506.959 446.838 507.08 447.23 507.22C447.631 507.351 447.953 507.547 448.196 507.808C448.439 508.069 448.56 508.452 448.56 508.956C448.569 509.591 448.322 510.118 447.818 510.538C447.323 510.958 446.647 511.168 445.788 511.168ZM453.428 511.168C452.747 511.168 452.14 511.019 451.608 510.72C451.086 510.412 450.675 509.987 450.376 509.446C450.078 508.905 449.928 508.275 449.928 507.556C449.928 506.828 450.073 506.189 450.362 505.638C450.661 505.087 451.072 504.658 451.594 504.35C452.126 504.042 452.742 503.888 453.442 503.888C454.124 503.888 454.716 504.042 455.22 504.35C455.724 504.649 456.116 505.05 456.396 505.554C456.676 506.058 456.816 506.613 456.816 507.22C456.816 507.313 456.812 507.416 456.802 507.528C456.802 507.631 456.798 507.747 456.788 507.878H451.384C451.431 508.55 451.65 509.063 452.042 509.418C452.444 509.763 452.906 509.936 453.428 509.936C453.848 509.936 454.198 509.843 454.478 509.656C454.768 509.46 454.982 509.199 455.122 508.872H456.606C456.42 509.525 456.046 510.071 455.486 510.51C454.936 510.949 454.25 511.168 453.428 511.168ZM453.428 505.106C452.934 505.106 452.495 505.255 452.112 505.554C451.73 505.843 451.496 506.282 451.412 506.87H455.332C455.304 506.329 455.113 505.899 454.758 505.582C454.404 505.265 453.96 505.106 453.428 505.106ZM461.52 511.168C460.848 511.168 460.255 511.009 459.742 510.692C459.229 510.375 458.827 509.941 458.538 509.39C458.249 508.839 458.104 508.214 458.104 507.514C458.104 506.814 458.249 506.193 458.538 505.652C458.827 505.101 459.229 504.672 459.742 504.364C460.265 504.047 460.862 503.888 461.534 503.888C462.085 503.888 462.565 503.995 462.976 504.21C463.396 504.425 463.723 504.728 463.956 505.12V500.92H465.44V511H464.11L463.956 509.922C463.732 510.249 463.424 510.538 463.032 510.79C462.64 511.042 462.136 511.168 461.52 511.168ZM461.786 509.88C462.421 509.88 462.939 509.661 463.34 509.222C463.751 508.783 463.956 508.219 463.956 507.528C463.956 506.828 463.751 506.263 463.34 505.834C462.939 505.395 462.421 505.176 461.786 505.176C461.151 505.176 460.629 505.395 460.218 505.834C459.807 506.263 459.602 506.828 459.602 507.528C459.602 507.985 459.695 508.391 459.882 508.746C460.069 509.101 460.325 509.381 460.652 509.586C460.988 509.782 461.366 509.88 461.786 509.88Z" fill="#1E1E20"/>
<path fill-rule="evenodd" clip-rule="evenodd" d="M339.001 499.662C335.406 499.662 332.492 502.586 332.492 506.192C332.492 509.799 335.406 512.723 339.001 512.723C342.596 512.723 345.51 509.799 345.51 506.192C345.51 502.586 342.596 499.662 339.001 499.662ZM331.309 506.192C331.309 501.93 334.753 498.474 339.001 498.474C343.249 498.474 346.693 501.93 346.693 506.192C346.693 510.455 343.249 513.91 339.001 513.91C334.753 513.91 331.309 510.455 331.309 506.192Z" fill="#ACACB0" fill-opacity="0.8"/>
<rect x="163" y="538" width="32" height="32" rx="8" fill="#416FF4" fill-opacity="0.1"/>
<path d="M179 555.6C179.425 555.6 179.832 555.431 180.132 555.131C180.432 554.831 180.6 554.424 180.6 554C180.6 553.576 180.432 553.169 180.132 552.869C179.832 552.569 179.425 552.4 179 552.4C178.576 552.4 178.169 552.569 177.869 552.869C177.569 553.169 177.4 553.576 177.4 554C177.4 554.424 177.569 554.831 177.869 555.131C178.169 555.431 178.576 555.6 179 555.6Z" fill="#416FF4"/>
<path fill-rule="evenodd" clip-rule="evenodd" d="M171.367 554C172.386 550.754 175.418 548.4 179.001 548.4C182.583 548.4 185.615 550.754 186.634 554C185.615 557.246 182.583 559.6 179.001 559.6C175.418 559.6 172.386 557.246 171.367 554ZM182.201 554C182.201 554.849 181.864 555.663 181.264 556.263C180.663 556.863 179.849 557.2 179.001 557.2C178.152 557.2 177.338 556.863 176.738 556.263C176.138 555.663 175.801 554.849 175.801 554C175.801 553.151 176.138 552.337 176.738 551.737C177.338 551.137 178.152 550.8 179.001 550.8C179.849 550.8 180.663 551.137 181.264 551.737C181.864 552.337 182.201 553.151 182.201 554Z" fill="#416FF4"/>
<path opacity="0.7" d="M212.362 559.168C211.391 559.168 210.551 558.958 209.842 558.538C209.142 558.109 208.601 557.516 208.218 556.76C207.835 555.995 207.644 555.113 207.644 554.114C207.644 553.106 207.835 552.224 208.218 551.468C208.601 550.703 209.142 550.105 209.842 549.676C210.551 549.247 211.391 549.032 212.362 549.032C213.51 549.032 214.448 549.312 215.176 549.872C215.904 550.432 216.366 551.216 216.562 552.224H214.91C214.779 551.655 214.499 551.202 214.07 550.866C213.641 550.53 213.067 550.362 212.348 550.362C211.368 550.362 210.593 550.698 210.024 551.37C209.455 552.033 209.17 552.947 209.17 554.114C209.17 555.271 209.455 556.181 210.024 556.844C210.593 557.507 211.368 557.838 212.348 557.838C213.067 557.838 213.641 557.679 214.07 557.362C214.499 557.045 214.779 556.611 214.91 556.06H216.562C216.366 557.031 215.904 557.791 215.176 558.342C214.448 558.893 213.51 559.168 212.362 559.168ZM218.193 559V549.2H221.623C222.389 549.2 223.023 549.331 223.527 549.592C224.031 549.844 224.405 550.194 224.647 550.642C224.899 551.081 225.025 551.58 225.025 552.14C225.025 552.672 224.904 553.162 224.661 553.61C224.428 554.049 224.059 554.399 223.555 554.66C223.051 554.921 222.407 555.052 221.623 555.052H219.677V559H218.193ZM219.677 553.834H221.553C222.253 553.834 222.753 553.685 223.051 553.386C223.359 553.078 223.513 552.663 223.513 552.14C223.513 551.599 223.359 551.179 223.051 550.88C222.753 550.572 222.253 550.418 221.553 550.418H219.677V553.834ZM226.492 559V549.2H228.242L231.56 555.724L234.864 549.2H236.614V559H235.13V551.762L232.134 557.6H230.986L227.976 551.776V559H226.492Z" fill="#1E1E20"/>
<path fill-rule="evenodd" clip-rule="evenodd" d="M141.001 547.821C137.406 547.821 134.492 550.745 134.492 554.351C134.492 557.958 137.406 560.882 141.001 560.882C144.596 560.882 147.51 557.958 147.51 554.351C147.51 550.745 144.596 547.821 141.001 547.821ZM133.309 554.351C133.309 550.089 136.753 546.634 141.001 546.634C145.249 546.634 148.693 550.089 148.693 554.351C148.693 558.614 145.249 562.069 141.001 562.069C136.753 562.069 133.309 558.614 133.309 554.351Z" fill="#ACACB0" fill-opacity="0.8"/>
<rect x="163" y="282" width="32" height="32" rx="8" fill="#14B082" fill-opacity="0.1"/>
<path d="M183 295.333C183 294.273 182.579 293.255 181.828 292.505C181.078 291.755 180.061 291.333 179 291.333C177.939 291.333 176.922 291.755 176.172 292.505C175.421 293.255 175 294.273 175 295.333C175 300 173 301.333 173 301.333H185C185 301.333 183 300 183 295.333Z" stroke="#14B082" stroke-width="1.5" stroke-linecap="round" stroke-linejoin="round"/>
<path d="M181 303.6C180.797 303.965 180.505 304.268 180.154 304.479C179.803 304.689 179.405 304.8 179 304.8C178.595 304.8 178.197 304.689 177.846 304.479C177.495 304.268 177.203 303.965 177 303.6" stroke="#14B082" stroke-width="1.5" stroke-linecap="round" stroke-linejoin="round"/>
<path opacity="0.7" d="M207.994 303V293.2H209.478V303H207.994ZM211.411 303V296.056H212.727L212.839 297.274C213.053 296.845 213.366 296.509 213.777 296.266C214.197 296.014 214.677 295.888 215.219 295.888C216.059 295.888 216.717 296.149 217.193 296.672C217.678 297.195 217.921 297.974 217.921 299.01V303H216.451V299.164C216.451 297.82 215.9 297.148 214.799 297.148C214.248 297.148 213.791 297.344 213.427 297.736C213.072 298.128 212.895 298.688 212.895 299.416V303H211.411ZM219.528 299.556V298.31H225.226V299.556H219.528ZM226.942 306.08V296.056H228.272L228.426 297.134C228.65 296.807 228.958 296.518 229.35 296.266C229.742 296.014 230.246 295.888 230.862 295.888C231.534 295.888 232.127 296.047 232.64 296.364C233.153 296.681 233.555 297.115 233.844 297.666C234.143 298.217 234.292 298.842 234.292 299.542C234.292 300.242 234.143 300.867 233.844 301.418C233.555 301.959 233.153 302.389 232.64 302.706C232.127 303.014 231.529 303.168 230.848 303.168C230.307 303.168 229.826 303.061 229.406 302.846C228.995 302.631 228.669 302.328 228.426 301.936V306.08H226.942ZM230.596 301.88C231.231 301.88 231.753 301.665 232.164 301.236C232.575 300.797 232.78 300.228 232.78 299.528C232.78 299.071 232.687 298.665 232.5 298.31C232.313 297.955 232.057 297.68 231.73 297.484C231.403 297.279 231.025 297.176 230.596 297.176C229.961 297.176 229.439 297.395 229.028 297.834C228.627 298.273 228.426 298.837 228.426 299.528C228.426 300.228 228.627 300.797 229.028 301.236C229.439 301.665 229.961 301.88 230.596 301.88ZM238.249 303.168C237.661 303.168 237.176 303.07 236.793 302.874C236.41 302.678 236.126 302.421 235.939 302.104C235.752 301.777 235.659 301.423 235.659 301.04C235.659 300.368 235.92 299.836 236.443 299.444C236.966 299.052 237.712 298.856 238.683 298.856H240.503V298.73C240.503 298.189 240.354 297.783 240.055 297.512C239.766 297.241 239.388 297.106 238.921 297.106C238.51 297.106 238.151 297.209 237.843 297.414C237.544 297.61 237.362 297.904 237.297 298.296H235.813C235.86 297.792 236.028 297.363 236.317 297.008C236.616 296.644 236.989 296.369 237.437 296.182C237.894 295.986 238.394 295.888 238.935 295.888C239.906 295.888 240.657 296.145 241.189 296.658C241.721 297.162 241.987 297.853 241.987 298.73V303H240.699L240.573 301.81C240.377 302.193 240.092 302.515 239.719 302.776C239.346 303.037 238.856 303.168 238.249 303.168ZM238.543 301.964C238.944 301.964 239.28 301.871 239.551 301.684C239.831 301.488 240.046 301.231 240.195 300.914C240.354 300.597 240.452 300.247 240.489 299.864H238.837C238.249 299.864 237.829 299.967 237.577 300.172C237.334 300.377 237.213 300.634 237.213 300.942C237.213 301.259 237.33 301.511 237.563 301.698C237.806 301.875 238.132 301.964 238.543 301.964ZM246.559 300.872C246.195 300.872 245.859 300.83 245.551 300.746L244.949 301.334C245.052 301.399 245.178 301.455 245.327 301.502C245.477 301.549 245.687 301.591 245.957 301.628C246.228 301.665 246.597 301.703 247.063 301.74C247.987 301.824 248.655 302.048 249.065 302.412C249.476 302.767 249.681 303.243 249.681 303.84C249.681 304.251 249.569 304.638 249.345 305.002C249.131 305.375 248.79 305.674 248.323 305.898C247.866 306.131 247.278 306.248 246.559 306.248C245.589 306.248 244.8 306.061 244.193 305.688C243.596 305.324 243.297 304.769 243.297 304.022C243.297 303.733 243.372 303.443 243.521 303.154C243.68 302.874 243.927 302.608 244.263 302.356C244.067 302.272 243.895 302.183 243.745 302.09C243.605 301.987 243.479 301.885 243.367 301.782V301.446L244.571 300.214C244.03 299.747 243.759 299.136 243.759 298.38C243.759 297.923 243.867 297.507 244.081 297.134C244.305 296.751 244.627 296.448 245.047 296.224C245.467 296 245.971 295.888 246.559 295.888C246.951 295.888 247.315 295.944 247.651 296.056H250.241V297.036L249.009 297.106C249.233 297.489 249.345 297.913 249.345 298.38C249.345 298.847 249.233 299.267 249.009 299.64C248.795 300.013 248.477 300.312 248.057 300.536C247.647 300.76 247.147 300.872 246.559 300.872ZM246.559 299.71C246.989 299.71 247.334 299.598 247.595 299.374C247.866 299.141 248.001 298.814 248.001 298.394C248.001 297.965 247.866 297.638 247.595 297.414C247.334 297.19 246.989 297.078 246.559 297.078C246.121 297.078 245.766 297.19 245.495 297.414C245.234 297.638 245.103 297.965 245.103 298.394C245.103 298.814 245.234 299.141 245.495 299.374C245.766 299.598 246.121 299.71 246.559 299.71ZM244.697 303.882C244.697 304.283 244.875 304.582 245.229 304.778C245.584 304.983 246.027 305.086 246.559 305.086C247.073 305.086 247.488 304.974 247.805 304.75C248.123 304.535 248.281 304.246 248.281 303.882C248.281 303.611 248.174 303.378 247.959 303.182C247.745 302.995 247.339 302.879 246.741 302.832C246.293 302.804 245.897 302.762 245.551 302.706C245.225 302.883 245.001 303.075 244.879 303.28C244.758 303.485 244.697 303.686 244.697 303.882ZM254.54 303.168C253.858 303.168 253.252 303.019 252.72 302.72C252.197 302.412 251.786 301.987 251.488 301.446C251.189 300.905 251.04 300.275 251.04 299.556C251.04 298.828 251.184 298.189 251.474 297.638C251.772 297.087 252.183 296.658 252.706 296.35C253.238 296.042 253.854 295.888 254.554 295.888C255.235 295.888 255.828 296.042 256.332 296.35C256.836 296.649 257.228 297.05 257.508 297.554C257.788 298.058 257.928 298.613 257.928 299.22C257.928 299.313 257.923 299.416 257.914 299.528C257.914 299.631 257.909 299.747 257.9 299.878H252.496C252.542 300.55 252.762 301.063 253.154 301.418C253.555 301.763 254.017 301.936 254.54 301.936C254.96 301.936 255.31 301.843 255.59 301.656C255.879 301.46 256.094 301.199 256.234 300.872H257.718C257.531 301.525 257.158 302.071 256.598 302.51C256.047 302.949 255.361 303.168 254.54 303.168ZM254.54 297.106C254.045 297.106 253.606 297.255 253.224 297.554C252.841 297.843 252.608 298.282 252.524 298.87H256.444C256.416 298.329 256.224 297.899 255.87 297.582C255.515 297.265 255.072 297.106 254.54 297.106ZM263.051 303V293.2H266.481C267.246 293.2 267.881 293.331 268.385 293.592C268.889 293.844 269.262 294.194 269.505 294.642C269.757 295.081 269.883 295.58 269.883 296.14C269.883 296.672 269.761 297.162 269.519 297.61C269.285 298.049 268.917 298.399 268.413 298.66C267.909 298.921 267.265 299.052 266.481 299.052H264.535V303H263.051ZM264.535 297.834H266.411C267.111 297.834 267.61 297.685 267.909 297.386C268.217 297.078 268.371 296.663 268.371 296.14C268.371 295.599 268.217 295.179 267.909 294.88C267.61 294.572 267.111 294.418 266.411 294.418H264.535V297.834ZM273.855 303.168C273.015 303.168 272.353 302.907 271.867 302.384C271.391 301.861 271.153 301.082 271.153 300.046V296.056H272.637V299.892C272.637 301.236 273.188 301.908 274.289 301.908C274.84 301.908 275.293 301.712 275.647 301.32C276.002 300.928 276.179 300.368 276.179 299.64V296.056H277.663V303H276.347L276.235 301.782C276.021 302.211 275.703 302.552 275.283 302.804C274.873 303.047 274.397 303.168 273.855 303.168ZM282.323 303.168C281.446 303.168 280.723 302.953 280.153 302.524C279.584 302.095 279.257 301.525 279.173 300.816H280.671C280.746 301.133 280.923 301.409 281.203 301.642C281.483 301.866 281.852 301.978 282.309 301.978C282.757 301.978 283.084 301.885 283.289 301.698C283.495 301.511 283.597 301.297 283.597 301.054C283.597 300.699 283.453 300.461 283.163 300.34C282.883 300.209 282.491 300.093 281.987 299.99C281.595 299.906 281.203 299.794 280.811 299.654C280.429 299.514 280.107 299.318 279.845 299.066C279.593 298.805 279.467 298.455 279.467 298.016C279.467 297.409 279.701 296.905 280.167 296.504C280.634 296.093 281.287 295.888 282.127 295.888C282.902 295.888 283.527 296.075 284.003 296.448C284.489 296.821 284.773 297.349 284.857 298.03H283.429C283.383 297.731 283.243 297.498 283.009 297.33C282.785 297.162 282.482 297.078 282.099 297.078C281.726 297.078 281.437 297.157 281.231 297.316C281.026 297.465 280.923 297.661 280.923 297.904C280.923 298.147 281.063 298.338 281.343 298.478C281.633 298.618 282.011 298.744 282.477 298.856C282.944 298.959 283.373 299.08 283.765 299.22C284.167 299.351 284.489 299.547 284.731 299.808C284.974 300.069 285.095 300.452 285.095 300.956C285.105 301.591 284.857 302.118 284.353 302.538C283.859 302.958 283.182 303.168 282.323 303.168ZM286.715 303V292.92H288.199V297.176C288.433 296.775 288.755 296.462 289.165 296.238C289.585 296.005 290.047 295.888 290.551 295.888C291.382 295.888 292.035 296.149 292.511 296.672C292.987 297.195 293.225 297.974 293.225 299.01V303H291.755V299.164C291.755 297.82 291.219 297.148 290.145 297.148C289.585 297.148 289.119 297.344 288.745 297.736C288.381 298.128 288.199 298.688 288.199 299.416V303H286.715Z" fill="#1E1E20"/>
<path fill-rule="evenodd" clip-rule="evenodd" d="M141.001 291.491C137.406 291.491 134.492 294.405 134.492 298C134.492 301.595 137.406 304.509 141.001 304.509C144.596 304.509 147.51 301.595 147.51 298C147.51 294.405 144.596 291.491 141.001 291.491ZM133.309 298C133.309 293.752 136.753 290.308 141.001 290.308C145.249 290.308 148.693 293.752 148.693 298C148.693 302.248 145.249 305.692 141.001 305.692C136.753 305.692 133.309 302.248 133.309 298Z" fill="#ACACB0" fill-opacity="0.8"/>
<rect x="163" y="330" width="32" height="32" rx="8" fill="#14B082" fill-opacity="0.1"/>
<path d="M175 341V341C175 339.895 175.895 339 177 339H183C184.105 339 185 339.895 185 341V348C185 349.105 184.105 350 183 350V350" stroke="#14B082" stroke-width="1.5"/>
<path d="M181.778 341H173.222C172.547 341 172 341.547 172 342.222V350.778C172 351.453 172.547 352 173.222 352H181.778C182.453 352 183 351.453 183 350.778V342.222C183 341.547 182.453 341 181.778 341Z" stroke="#14B082" stroke-width="1.5" stroke-linecap="round" stroke-linejoin="round"/>
<path d="M172 344L183 344" stroke="#14B082" stroke-width="1.5" stroke-linecap="round" stroke-linejoin="round"/>
<circle cx="174.359" cy="342.589" r="0.423676" fill="#14B082"/>
<circle cx="176.056" cy="342.589" r="0.423676" fill="#14B082"/>
<circle cx="177.75" cy="342.589" r="0.423676" fill="#14B082"/>
<path opacity="0.7" d="M207.994 351V341.2H209.478V351H207.994ZM211.411 351V344.056H212.727L212.839 345.274C213.053 344.845 213.366 344.509 213.777 344.266C214.197 344.014 214.677 343.888 215.219 343.888C216.059 343.888 216.717 344.149 217.193 344.672C217.678 345.195 217.921 345.974 217.921 347.01V351H216.451V347.164C216.451 345.82 215.9 345.148 214.799 345.148C214.248 345.148 213.791 345.344 213.427 345.736C213.072 346.128 212.895 346.688 212.895 347.416V351H211.411ZM222.58 351C221.899 351 221.358 350.837 220.956 350.51C220.555 350.174 220.354 349.581 220.354 348.732V345.302H219.164V344.056H220.354L220.536 342.292H221.838V344.056H223.798V345.302H221.838V348.732C221.838 349.115 221.918 349.381 222.076 349.53C222.244 349.67 222.529 349.74 222.93 349.74H223.728V351H222.58ZM228.399 351.168C227.718 351.168 227.111 351.019 226.579 350.72C226.056 350.412 225.646 349.987 225.347 349.446C225.048 348.905 224.899 348.275 224.899 347.556C224.899 346.828 225.044 346.189 225.333 345.638C225.632 345.087 226.042 344.658 226.565 344.35C227.097 344.042 227.713 343.888 228.413 343.888C229.094 343.888 229.687 344.042 230.191 344.35C230.695 344.649 231.087 345.05 231.367 345.554C231.647 346.058 231.787 346.613 231.787 347.22C231.787 347.313 231.782 347.416 231.773 347.528C231.773 347.631 231.768 347.747 231.759 347.878H226.355C226.402 348.55 226.621 349.063 227.013 349.418C227.414 349.763 227.876 349.936 228.399 349.936C228.819 349.936 229.169 349.843 229.449 349.656C229.738 349.46 229.953 349.199 230.093 348.872H231.577C231.39 349.525 231.017 350.071 230.457 350.51C229.906 350.949 229.22 351.168 228.399 351.168ZM228.399 345.106C227.904 345.106 227.466 345.255 227.083 345.554C226.7 345.843 226.467 346.282 226.383 346.87H230.303C230.275 346.329 230.084 345.899 229.729 345.582C229.374 345.265 228.931 345.106 228.399 345.106ZM233.327 351V344.056H234.657L234.783 345.372C235.025 344.915 235.361 344.555 235.791 344.294C236.229 344.023 236.757 343.888 237.373 343.888V345.442H236.967C236.556 345.442 236.187 345.512 235.861 345.652C235.543 345.783 235.287 346.011 235.091 346.338C234.904 346.655 234.811 347.099 234.811 347.668V351H233.327ZM241.417 351.168C240.54 351.168 239.816 350.953 239.247 350.524C238.678 350.095 238.351 349.525 238.267 348.816H239.765C239.84 349.133 240.017 349.409 240.297 349.642C240.577 349.866 240.946 349.978 241.403 349.978C241.851 349.978 242.178 349.885 242.383 349.698C242.588 349.511 242.691 349.297 242.691 349.054C242.691 348.699 242.546 348.461 242.257 348.34C241.977 348.209 241.585 348.093 241.081 347.99C240.689 347.906 240.297 347.794 239.905 347.654C239.522 347.514 239.2 347.318 238.939 347.066C238.687 346.805 238.561 346.455 238.561 346.016C238.561 345.409 238.794 344.905 239.261 344.504C239.728 344.093 240.381 343.888 241.221 343.888C241.996 343.888 242.621 344.075 243.097 344.448C243.582 344.821 243.867 345.349 243.951 346.03H242.523C242.476 345.731 242.336 345.498 242.103 345.33C241.879 345.162 241.576 345.078 241.193 345.078C240.82 345.078 240.53 345.157 240.325 345.316C240.12 345.465 240.017 345.661 240.017 345.904C240.017 346.147 240.157 346.338 240.437 346.478C240.726 346.618 241.104 346.744 241.571 346.856C242.038 346.959 242.467 347.08 242.859 347.22C243.26 347.351 243.582 347.547 243.825 347.808C244.068 348.069 244.189 348.452 244.189 348.956C244.198 349.591 243.951 350.118 243.447 350.538C242.952 350.958 242.276 351.168 241.417 351.168ZM248.461 351C247.78 351 247.239 350.837 246.837 350.51C246.436 350.174 246.235 349.581 246.235 348.732V345.302H245.045V344.056H246.235L246.417 342.292H247.719V344.056H249.679V345.302H247.719V348.732C247.719 349.115 247.799 349.381 247.957 349.53C248.125 349.67 248.41 349.74 248.811 349.74H249.609V351H248.461ZM252.049 342.74C251.769 342.74 251.536 342.656 251.349 342.488C251.172 342.311 251.083 342.091 251.083 341.83C251.083 341.569 251.172 341.354 251.349 341.186C251.536 341.009 251.769 340.92 252.049 340.92C252.329 340.92 252.558 341.009 252.735 341.186C252.922 341.354 253.015 341.569 253.015 341.83C253.015 342.091 252.922 342.311 252.735 342.488C252.558 342.656 252.329 342.74 252.049 342.74ZM251.307 351V344.056H252.791V351H251.307ZM257.663 351C256.981 351 256.44 350.837 256.039 350.51C255.637 350.174 255.437 349.581 255.437 348.732V345.302H254.247V344.056H255.437L255.619 342.292H256.921V344.056H258.881V345.302H256.921V348.732C256.921 349.115 257 349.381 257.159 349.53C257.327 349.67 257.611 349.74 258.013 349.74H258.811V351H257.663ZM261.251 342.74C260.971 342.74 260.737 342.656 260.551 342.488C260.373 342.311 260.285 342.091 260.285 341.83C260.285 341.569 260.373 341.354 260.551 341.186C260.737 341.009 260.971 340.92 261.251 340.92C261.531 340.92 261.759 341.009 261.937 341.186C262.123 341.354 262.217 341.569 262.217 341.83C262.217 342.091 262.123 342.311 261.937 342.488C261.759 342.656 261.531 342.74 261.251 342.74ZM260.509 351V344.056H261.993V351H260.509ZM266.304 351.168C265.716 351.168 265.23 351.07 264.848 350.874C264.465 350.678 264.18 350.421 263.994 350.104C263.807 349.777 263.714 349.423 263.714 349.04C263.714 348.368 263.975 347.836 264.498 347.444C265.02 347.052 265.767 346.856 266.738 346.856H268.558V346.73C268.558 346.189 268.408 345.783 268.11 345.512C267.82 345.241 267.442 345.106 266.976 345.106C266.565 345.106 266.206 345.209 265.898 345.414C265.599 345.61 265.417 345.904 265.352 346.296H263.868C263.914 345.792 264.082 345.363 264.372 345.008C264.67 344.644 265.044 344.369 265.492 344.182C265.949 343.986 266.448 343.888 266.99 343.888C267.96 343.888 268.712 344.145 269.244 344.658C269.776 345.162 270.042 345.853 270.042 346.73V351H268.754L268.628 349.81C268.432 350.193 268.147 350.515 267.774 350.776C267.4 351.037 266.91 351.168 266.304 351.168ZM266.598 349.964C266.999 349.964 267.335 349.871 267.606 349.684C267.886 349.488 268.1 349.231 268.25 348.914C268.408 348.597 268.506 348.247 268.544 347.864H266.892C266.304 347.864 265.884 347.967 265.632 348.172C265.389 348.377 265.268 348.634 265.268 348.942C265.268 349.259 265.384 349.511 265.618 349.698C265.86 349.875 266.187 349.964 266.598 349.964ZM271.772 351V340.92H273.256V351H271.772Z" fill="#1E1E20"/>
<path fill-rule="evenodd" clip-rule="evenodd" d="M141.001 339.491C137.406 339.491 134.492 342.405 134.492 346C134.492 349.595 137.406 352.509 141.001 352.509C144.596 352.509 147.51 349.595 147.51 346C147.51 342.405 144.596 339.491 141.001 339.491ZM133.309 346C133.309 341.752 136.753 338.308 141.001 338.308C145.249 338.308 148.693 341.752 148.693 346C148.693 350.248 145.249 353.692 141.001 353.692C136.753 353.692 133.309 350.248 133.309 346Z" fill="#ACACB0" fill-opacity="0.8"/>
<rect x="359" y="234" width="32" height="32" rx="8" fill="#14B082" fill-opacity="0.1"/>
<path d="M379.445 249.4V253.067C379.445 253.68 378.948 254.178 378.334 254.178H369.445C368.831 254.178 368.334 253.68 368.334 253.067V247.511C368.334 246.898 368.831 246.4 369.445 246.4H373.89M373.89 246.4V244.8C373.89 244.248 374.337 243.8 374.89 243.8H380.601C381.153 243.8 381.601 244.248 381.601 244.8V248.4C381.601 248.952 381.153 249.4 380.601 249.4H374.89C374.337 249.4 373.89 248.952 373.89 248.4V246.4Z" stroke="#14B082" stroke-width="1.5" stroke-linecap="round" stroke-linejoin="round"/>
<path d="M371.668 256.4H376.112" stroke="#14B082" stroke-width="1.5" stroke-linecap="round" stroke-linejoin="round"/>
<path d="M373.889 254.178V256.4" stroke="#14B082" stroke-width="1.5" stroke-linecap="round" stroke-linejoin="round"/>
<path opacity="0.7" d="M403.994 255V245.2H407.424C408.189 245.2 408.824 245.331 409.328 245.592C409.832 245.844 410.205 246.194 410.448 246.642C410.7 247.081 410.826 247.58 410.826 248.14C410.826 248.672 410.705 249.162 410.462 249.61C410.229 250.049 409.86 250.399 409.356 250.66C408.852 250.921 408.208 251.052 407.424 251.052H405.478V255H403.994ZM405.478 249.834H407.354C408.054 249.834 408.553 249.685 408.852 249.386C409.16 249.078 409.314 248.663 409.314 248.14C409.314 247.599 409.16 247.179 408.852 246.88C408.553 246.572 408.054 246.418 407.354 246.418H405.478V249.834ZM415.102 255.168C414.439 255.168 413.842 255.019 413.31 254.72C412.787 254.412 412.372 253.987 412.064 253.446C411.756 252.895 411.602 252.256 411.602 251.528C411.602 250.8 411.756 250.165 412.064 249.624C412.381 249.073 412.806 248.649 413.338 248.35C413.87 248.042 414.463 247.888 415.116 247.888C415.779 247.888 416.371 248.042 416.894 248.35C417.426 248.649 417.846 249.073 418.154 249.624C418.471 250.165 418.63 250.8 418.63 251.528C418.63 252.256 418.471 252.895 418.154 253.446C417.846 253.987 417.426 254.412 416.894 254.72C416.362 255.019 415.765 255.168 415.102 255.168ZM415.102 253.894C415.457 253.894 415.783 253.805 416.082 253.628C416.39 253.451 416.637 253.189 416.824 252.844C417.011 252.489 417.104 252.051 417.104 251.528C417.104 251.005 417.011 250.571 416.824 250.226C416.647 249.871 416.404 249.605 416.096 249.428C415.797 249.251 415.471 249.162 415.116 249.162C414.761 249.162 414.43 249.251 414.122 249.428C413.823 249.605 413.581 249.871 413.394 250.226C413.207 250.571 413.114 251.005 413.114 251.528C413.114 252.051 413.207 252.489 413.394 252.844C413.581 253.189 413.823 253.451 414.122 253.628C414.421 253.805 414.747 253.894 415.102 253.894ZM420.235 258.08V248.056H421.565L421.719 249.134C421.943 248.807 422.251 248.518 422.643 248.266C423.035 248.014 423.539 247.888 424.155 247.888C424.827 247.888 425.42 248.047 425.933 248.364C426.446 248.681 426.848 249.115 427.137 249.666C427.436 250.217 427.585 250.842 427.585 251.542C427.585 252.242 427.436 252.867 427.137 253.418C426.848 253.959 426.446 254.389 425.933 254.706C425.42 255.014 424.822 255.168 424.141 255.168C423.6 255.168 423.119 255.061 422.699 254.846C422.288 254.631 421.962 254.328 421.719 253.936V258.08H420.235ZM423.889 253.88C424.524 253.88 425.046 253.665 425.457 253.236C425.868 252.797 426.073 252.228 426.073 251.528C426.073 251.071 425.98 250.665 425.793 250.31C425.606 249.955 425.35 249.68 425.023 249.484C424.696 249.279 424.318 249.176 423.889 249.176C423.254 249.176 422.732 249.395 422.321 249.834C421.92 250.273 421.719 250.837 421.719 251.528C421.719 252.228 421.92 252.797 422.321 253.236C422.732 253.665 423.254 253.88 423.889 253.88ZM431.752 255.168C430.912 255.168 430.249 254.907 429.764 254.384C429.288 253.861 429.05 253.082 429.05 252.046V248.056H430.534V251.892C430.534 253.236 431.085 253.908 432.186 253.908C432.737 253.908 433.189 253.712 433.544 253.32C433.899 252.928 434.076 252.368 434.076 251.64V248.056H435.56V255H434.244L434.132 253.782C433.917 254.211 433.6 254.552 433.18 254.804C432.769 255.047 432.293 255.168 431.752 255.168ZM437.448 255V248.056H438.764L438.876 249.274C439.09 248.845 439.403 248.509 439.814 248.266C440.234 248.014 440.714 247.888 441.256 247.888C442.096 247.888 442.754 248.149 443.23 248.672C443.715 249.195 443.958 249.974 443.958 251.01V255H442.488V251.164C442.488 249.82 441.937 249.148 440.836 249.148C440.285 249.148 439.828 249.344 439.464 249.736C439.109 250.128 438.932 250.688 438.932 251.416V255H437.448ZM448.87 255.168C448.198 255.168 447.605 255.009 447.092 254.692C446.578 254.375 446.177 253.941 445.888 253.39C445.598 252.839 445.454 252.214 445.454 251.514C445.454 250.814 445.598 250.193 445.888 249.652C446.177 249.101 446.578 248.672 447.092 248.364C447.614 248.047 448.212 247.888 448.884 247.888C449.434 247.888 449.915 247.995 450.326 248.21C450.746 248.425 451.072 248.728 451.306 249.12V244.92H452.79V255H451.46L451.306 253.922C451.082 254.249 450.774 254.538 450.382 254.79C449.99 255.042 449.486 255.168 448.87 255.168ZM449.136 253.88C449.77 253.88 450.288 253.661 450.69 253.222C451.1 252.783 451.306 252.219 451.306 251.528C451.306 250.828 451.1 250.263 450.69 249.834C450.288 249.395 449.77 249.176 449.136 249.176C448.501 249.176 447.978 249.395 447.568 249.834C447.157 250.263 446.952 250.828 446.952 251.528C446.952 251.985 447.045 252.391 447.232 252.746C447.418 253.101 447.675 253.381 448.002 253.586C448.338 253.782 448.716 253.88 449.136 253.88ZM457.909 255.168C457.227 255.168 456.621 255.019 456.089 254.72C455.566 254.412 455.155 253.987 454.857 253.446C454.558 252.905 454.409 252.275 454.409 251.556C454.409 250.828 454.553 250.189 454.843 249.638C455.141 249.087 455.552 248.658 456.075 248.35C456.607 248.042 457.223 247.888 457.923 247.888C458.604 247.888 459.197 248.042 459.701 248.35C460.205 248.649 460.597 249.05 460.877 249.554C461.157 250.058 461.297 250.613 461.297 251.22C461.297 251.313 461.292 251.416 461.283 251.528C461.283 251.631 461.278 251.747 461.269 251.878H455.865C455.911 252.55 456.131 253.063 456.523 253.418C456.924 253.763 457.386 253.936 457.909 253.936C458.329 253.936 458.679 253.843 458.959 253.656C459.248 253.46 459.463 253.199 459.603 252.872H461.087C460.9 253.525 460.527 254.071 459.967 254.51C459.416 254.949 458.73 255.168 457.909 255.168ZM457.909 249.106C457.414 249.106 456.975 249.255 456.593 249.554C456.21 249.843 455.977 250.282 455.893 250.87H459.813C459.785 250.329 459.593 249.899 459.239 249.582C458.884 249.265 458.441 249.106 457.909 249.106ZM462.836 255V248.056H464.166L464.292 249.372C464.535 248.915 464.871 248.555 465.3 248.294C465.739 248.023 466.266 247.888 466.882 247.888V249.442H466.476C466.066 249.442 465.697 249.512 465.37 249.652C465.053 249.783 464.796 250.011 464.6 250.338C464.414 250.655 464.32 251.099 464.32 251.668V255H462.836Z" fill="#1E1E20"/>
<path fill-rule="evenodd" clip-rule="evenodd" d="M337.001 243.491C333.406 243.491 330.492 246.405 330.492 250C330.492 253.595 333.406 256.509 337.001 256.509C340.596 256.509 343.51 253.595 343.51 250C343.51 246.405 340.596 243.491 337.001 243.491ZM329.309 250C329.309 245.752 332.753 242.308 337.001 242.308C341.249 242.308 344.693 245.752 344.693 250C344.693 254.248 341.249 257.692 337.001 257.692C332.753 257.692 329.309 254.248 329.309 250Z" fill="#ACACB0" fill-opacity="0.8"/>
<rect x="359" y="282" width="32" height="32" rx="8" fill="#14B082" fill-opacity="0.1"/>
<path d="M379 295.333C379 294.273 378.579 293.255 377.828 292.505C377.078 291.755 376.061 291.333 375 291.333C373.939 291.333 372.922 291.755 372.172 292.505C371.421 293.255 371 294.273 371 295.333C371 300 369 301.333 369 301.333H381C381 301.333 379 300 379 295.333Z" stroke="#14B082" stroke-width="1.5" stroke-linecap="round" stroke-linejoin="round"/>
<path d="M377 303.6C376.797 303.965 376.505 304.268 376.154 304.479C375.803 304.689 375.405 304.8 375 304.8C374.595 304.8 374.197 304.689 373.846 304.479C373.495 304.268 373.203 303.965 373 303.6" stroke="#14B082" stroke-width="1.5" stroke-linecap="round" stroke-linejoin="round"/>
<path opacity="0.7" d="M403.994 303V293.2H407.172C408.32 293.2 409.263 293.401 410 293.802C410.747 294.203 411.297 294.773 411.652 295.51C412.016 296.238 412.198 297.106 412.198 298.114C412.198 299.113 412.016 299.981 411.652 300.718C411.297 301.446 410.747 302.011 410 302.412C409.263 302.804 408.32 303 407.172 303H403.994ZM405.478 301.74H407.116C408.003 301.74 408.703 301.595 409.216 301.306C409.739 301.017 410.112 300.601 410.336 300.06C410.569 299.519 410.686 298.87 410.686 298.114C410.686 297.358 410.569 296.705 410.336 296.154C410.112 295.603 409.739 295.183 409.216 294.894C408.703 294.595 408.003 294.446 407.116 294.446H405.478V301.74ZM414.622 294.74C414.342 294.74 414.108 294.656 413.922 294.488C413.744 294.311 413.656 294.091 413.656 293.83C413.656 293.569 413.744 293.354 413.922 293.186C414.108 293.009 414.342 292.92 414.622 292.92C414.902 292.92 415.13 293.009 415.308 293.186C415.494 293.354 415.588 293.569 415.588 293.83C415.588 294.091 415.494 294.311 415.308 294.488C415.13 294.656 414.902 294.74 414.622 294.74ZM413.88 303V296.056H415.364V303H413.88ZM417.323 303V296.056H418.653L418.779 297.372C419.021 296.915 419.357 296.555 419.787 296.294C420.225 296.023 420.753 295.888 421.369 295.888V297.442H420.963C420.552 297.442 420.183 297.512 419.857 297.652C419.539 297.783 419.283 298.011 419.087 298.338C418.9 298.655 418.807 299.099 418.807 299.668V303H417.323ZM425.698 303.168C425.016 303.168 424.41 303.019 423.878 302.72C423.355 302.412 422.944 301.987 422.646 301.446C422.347 300.905 422.198 300.275 422.198 299.556C422.198 298.828 422.342 298.189 422.632 297.638C422.93 297.087 423.341 296.658 423.864 296.35C424.396 296.042 425.012 295.888 425.712 295.888C426.393 295.888 426.986 296.042 427.49 296.35C427.994 296.649 428.386 297.05 428.666 297.554C428.946 298.058 429.086 298.613 429.086 299.22C429.086 299.313 429.081 299.416 429.072 299.528C429.072 299.631 429.067 299.747 429.058 299.878H423.654C423.7 300.55 423.92 301.063 424.312 301.418C424.713 301.763 425.175 301.936 425.698 301.936C426.118 301.936 426.468 301.843 426.748 301.656C427.037 301.46 427.252 301.199 427.392 300.872H428.876C428.689 301.525 428.316 302.071 427.756 302.51C427.205 302.949 426.519 303.168 425.698 303.168ZM425.698 297.106C425.203 297.106 424.764 297.255 424.382 297.554C423.999 297.843 423.766 298.282 423.682 298.87H427.602C427.574 298.329 427.382 297.899 427.028 297.582C426.673 297.265 426.23 297.106 425.698 297.106ZM433.916 303.168C433.234 303.168 432.623 303.014 432.082 302.706C431.55 302.398 431.13 301.973 430.822 301.432C430.523 300.881 430.374 300.247 430.374 299.528C430.374 298.809 430.523 298.179 430.822 297.638C431.13 297.087 431.55 296.658 432.082 296.35C432.623 296.042 433.234 295.888 433.916 295.888C434.774 295.888 435.493 296.112 436.072 296.56C436.66 297.008 437.038 297.615 437.206 298.38H435.652C435.558 297.997 435.353 297.699 435.036 297.484C434.718 297.269 434.345 297.162 433.916 297.162C433.552 297.162 433.216 297.255 432.908 297.442C432.6 297.619 432.352 297.885 432.166 298.24C431.979 298.585 431.886 299.015 431.886 299.528C431.886 300.041 431.979 300.475 432.166 300.83C432.352 301.175 432.6 301.441 432.908 301.628C433.216 301.815 433.552 301.908 433.916 301.908C434.345 301.908 434.718 301.801 435.036 301.586C435.353 301.371 435.558 301.068 435.652 300.676H437.206C437.047 301.423 436.674 302.025 436.086 302.482C435.498 302.939 434.774 303.168 433.916 303.168ZM441.59 303C440.909 303 440.368 302.837 439.966 302.51C439.565 302.174 439.364 301.581 439.364 300.732V297.302H438.174V296.056H439.364L439.546 294.292H440.848V296.056H442.808V297.302H440.848V300.732C440.848 301.115 440.928 301.381 441.086 301.53C441.254 301.67 441.539 301.74 441.94 301.74H442.738V303H441.59ZM447.866 303V292.92H449.35V303H447.866ZM452.069 294.74C451.789 294.74 451.556 294.656 451.369 294.488C451.192 294.311 451.103 294.091 451.103 293.83C451.103 293.569 451.192 293.354 451.369 293.186C451.556 293.009 451.789 292.92 452.069 292.92C452.349 292.92 452.578 293.009 452.755 293.186C452.942 293.354 453.035 293.569 453.035 293.83C453.035 294.091 452.942 294.311 452.755 294.488C452.578 294.656 452.349 294.74 452.069 294.74ZM451.327 303V296.056H452.811V303H451.327ZM454.77 303V296.056H456.086L456.198 297.274C456.413 296.845 456.725 296.509 457.136 296.266C457.556 296.014 458.037 295.888 458.578 295.888C459.418 295.888 460.076 296.149 460.552 296.672C461.037 297.195 461.28 297.974 461.28 299.01V303H459.81V299.164C459.81 297.82 459.259 297.148 458.158 297.148C457.607 297.148 457.15 297.344 456.786 297.736C456.431 298.128 456.254 298.688 456.254 299.416V303H454.77ZM463.028 303V292.92H464.512V298.926L467.172 296.056H468.95L465.996 299.206L469.384 303H467.508L464.512 299.444V303H463.028Z" fill="#1E1E20"/>
<path fill-rule="evenodd" clip-rule="evenodd" d="M337.001 291.491C333.406 291.491 330.492 294.405 330.492 298C330.492 301.595 333.406 304.509 337.001 304.509C340.596 304.509 343.51 301.595 343.51 298C343.51 294.405 340.596 291.491 337.001 291.491ZM329.309 298C329.309 293.752 332.753 290.308 337.001 290.308C341.249 290.308 344.693 293.752 344.693 298C344.693 302.248 341.249 305.692 337.001 305.692C332.753 305.692 329.309 302.248 329.309 298Z" fill="#ACACB0" fill-opacity="0.8"/>
<path opacity="0.5" d="M100 106C100 97.1634 107.163 90 116 90H520C528.837 90 536 97.1634 536 106V154H100V106Z" fill="#FFC947"/>
<circle cx="463" cy="122" r="5" fill="#F23936"/>
<circle cx="481" cy="122" r="5" fill="#FABB18"/>
<circle cx="499" cy="122" r="5" fill="#008EFF"/>
<path d="M181.416 129.216C179.508 129.216 177.918 128.586 176.646 127.326C175.386 126.054 174.756 124.482 174.756 122.61C174.756 120.738 175.386 119.172 176.646 117.912C177.918 116.64 179.508 116.004 181.416 116.004C182.928 116.004 184.248 116.436 185.376 117.3C186.516 118.152 187.248 119.22 187.572 120.504H185.304C185.028 119.772 184.536 119.178 183.828 118.722C183.12 118.266 182.316 118.038 181.416 118.038C180.096 118.038 179.01 118.476 178.158 119.352C177.306 120.228 176.88 121.314 176.88 122.61C176.88 123.906 177.306 124.992 178.158 125.868C179.01 126.744 180.096 127.182 181.416 127.182C182.316 127.182 183.12 126.954 183.828 126.498C184.536 126.042 185.028 125.448 185.304 124.716H187.572C187.248 126 186.516 127.074 185.376 127.938C184.248 128.79 182.928 129.216 181.416 129.216ZM193.155 129.18C191.931 129.18 190.899 128.724 190.059 127.812C189.231 126.9 188.817 125.796 188.817 124.5C188.817 123.204 189.231 122.1 190.059 121.188C190.899 120.276 191.931 119.82 193.155 119.82C193.767 119.82 194.331 119.958 194.847 120.234C195.363 120.498 195.759 120.822 196.035 121.206V120H198.015V129H196.035V127.794C195.759 128.178 195.363 128.508 194.847 128.784C194.331 129.048 193.767 129.18 193.155 129.18ZM191.589 126.552C192.093 127.104 192.735 127.38 193.515 127.38C194.295 127.38 194.937 127.104 195.441 126.552C195.945 126 196.197 125.316 196.197 124.5C196.197 123.684 195.945 123 195.441 122.448C194.937 121.896 194.295 121.62 193.515 121.62C192.735 121.62 192.093 121.896 191.589 122.448C191.085 123 190.833 123.684 190.833 124.5C190.833 125.316 191.085 126 191.589 126.552ZM212.163 129V123.942C212.163 123.21 212.025 122.64 211.749 122.232C211.485 121.824 211.089 121.62 210.561 121.62C209.925 121.62 209.415 121.866 209.031 122.358C208.647 122.85 208.443 123.54 208.419 124.428V129H206.439V123.942C206.439 123.21 206.301 122.64 206.025 122.232C205.761 121.824 205.365 121.62 204.837 121.62C204.177 121.62 203.649 121.878 203.253 122.394C202.869 122.91 202.677 123.636 202.677 124.572V129H200.697V120H202.677V121.224C203.229 120.288 204.081 119.82 205.233 119.82C206.589 119.82 207.519 120.414 208.023 121.602C208.275 121.038 208.659 120.6 209.175 120.288C209.703 119.976 210.279 119.82 210.903 119.82C211.911 119.82 212.703 120.162 213.279 120.846C213.855 121.53 214.143 122.454 214.143 123.618V129H212.163ZM218.656 132.762H216.676V120H218.656V121.206C218.932 120.822 219.328 120.498 219.844 120.234C220.372 119.958 220.942 119.82 221.554 119.82C222.778 119.82 223.804 120.276 224.632 121.188C225.472 122.1 225.892 123.204 225.892 124.5C225.892 125.796 225.472 126.9 224.632 127.812C223.804 128.724 222.778 129.18 221.554 129.18C220.942 129.18 220.372 129.048 219.844 128.784C219.328 128.508 218.932 128.178 218.656 127.794V132.762ZM221.194 127.38C221.974 127.38 222.616 127.104 223.12 126.552C223.624 126 223.876 125.316 223.876 124.5C223.876 123.684 223.624 123 223.12 122.448C222.616 121.896 221.974 121.62 221.194 121.62C220.402 121.62 219.754 121.896 219.25 122.448C218.746 123 218.494 123.684 218.494 124.5C218.494 125.316 218.746 126 219.25 126.552C219.754 127.104 220.402 127.38 221.194 127.38ZM231.598 129.18C230.374 129.18 229.342 128.724 228.502 127.812C227.674 126.9 227.26 125.796 227.26 124.5C227.26 123.204 227.674 122.1 228.502 121.188C229.342 120.276 230.374 119.82 231.598 119.82C232.21 119.82 232.774 119.958 233.29 120.234C233.806 120.498 234.202 120.822 234.478 121.206V120H236.458V129H234.478V127.794C234.202 128.178 233.806 128.508 233.29 128.784C232.774 129.048 232.21 129.18 231.598 129.18ZM230.032 126.552C230.536 127.104 231.178 127.38 231.958 127.38C232.738 127.38 233.38 127.104 233.884 126.552C234.388 126 234.64 125.316 234.64 124.5C234.64 123.684 234.388 123 233.884 122.448C233.38 121.896 232.738 121.62 231.958 121.62C231.178 121.62 230.536 121.896 230.032 122.448C229.528 123 229.276 123.684 229.276 124.5C229.276 125.316 229.528 126 230.032 126.552ZM240.131 118.038C239.771 118.038 239.459 117.912 239.195 117.66C238.931 117.396 238.799 117.078 238.799 116.706C238.799 116.346 238.931 116.04 239.195 115.788C239.459 115.524 239.771 115.392 240.131 115.392C240.503 115.392 240.815 115.524 241.067 115.788C241.319 116.04 241.445 116.346 241.445 116.706C241.445 117.078 241.319 117.396 241.067 117.66C240.815 117.912 240.503 118.038 240.131 118.038ZM239.141 129V120H241.121V129H239.141ZM247.849 132.942C246.625 132.942 245.617 132.642 244.825 132.042C244.045 131.442 243.595 130.662 243.475 129.702H245.419C245.767 130.734 246.595 131.25 247.903 131.25C248.611 131.25 249.193 131.016 249.649 130.548C250.117 130.092 250.351 129.444 250.351 128.604V127.542C250.063 127.95 249.661 128.286 249.145 128.55C248.629 128.814 248.071 128.946 247.471 128.946C246.259 128.946 245.233 128.508 244.393 127.632C243.565 126.744 243.151 125.658 243.151 124.374C243.151 123.102 243.565 122.028 244.393 121.152C245.233 120.264 246.259 119.82 247.471 119.82C248.071 119.82 248.629 119.952 249.145 120.216C249.661 120.468 250.063 120.798 250.351 121.206V120H252.331V128.442C252.331 129.93 251.905 131.052 251.053 131.808C250.213 132.564 249.145 132.942 247.849 132.942ZM245.923 126.354C246.439 126.87 247.075 127.128 247.831 127.128C248.587 127.128 249.223 126.87 249.739 126.354C250.255 125.826 250.513 125.166 250.513 124.374C250.513 123.582 250.255 122.928 249.739 122.412C249.223 121.884 248.587 121.62 247.831 121.62C247.075 121.62 246.439 121.884 245.923 122.412C245.407 122.928 245.149 123.582 245.149 124.374C245.149 125.166 245.407 125.826 245.923 126.354ZM254.996 129V120H256.976V121.224C257.54 120.288 258.452 119.82 259.712 119.82C260.756 119.82 261.59 120.162 262.214 120.846C262.838 121.53 263.15 122.442 263.15 123.582V129H261.17V123.906C261.17 123.186 261.002 122.628 260.666 122.232C260.33 121.824 259.874 121.62 259.298 121.62C258.614 121.62 258.056 121.878 257.624 122.394C257.192 122.91 256.976 123.636 256.976 124.572V129H254.996ZM273.088 129.18C272.02 129.18 271.12 128.916 270.388 128.388C269.668 127.86 269.284 127.152 269.236 126.264H271.288C271.432 127.152 272.05 127.596 273.142 127.596C273.586 127.596 273.94 127.518 274.204 127.362C274.468 127.194 274.6 126.954 274.6 126.642C274.6 126.33 274.498 126.084 274.294 125.904C274.09 125.724 273.748 125.574 273.268 125.454L271.792 125.058C270.256 124.65 269.488 123.744 269.488 122.34C269.488 121.584 269.794 120.978 270.406 120.522C271.018 120.054 271.828 119.82 272.836 119.82C273.808 119.82 274.606 120.066 275.23 120.558C275.854 121.05 276.202 121.704 276.274 122.52H274.294C274.102 121.776 273.61 121.404 272.818 121.404C272.422 121.404 272.104 121.488 271.864 121.656C271.624 121.812 271.504 122.034 271.504 122.322C271.504 122.838 271.906 123.198 272.71 123.402L274.222 123.798C275.818 124.206 276.616 125.112 276.616 126.516C276.616 127.368 276.286 128.028 275.626 128.496C274.978 128.952 274.132 129.18 273.088 129.18ZM282.599 129.18C281.255 129.18 280.151 128.742 279.287 127.866C278.423 126.978 277.991 125.856 277.991 124.5C277.991 123.144 278.417 122.028 279.269 121.152C280.121 120.264 281.237 119.82 282.617 119.82C284.009 119.82 285.131 120.306 285.983 121.278C286.835 122.238 287.213 123.474 287.117 124.986H279.953C279.977 125.682 280.241 126.264 280.745 126.732C281.249 127.2 281.891 127.434 282.671 127.434C283.775 127.434 284.531 127.014 284.939 126.174H287.009C286.733 127.05 286.205 127.77 285.425 128.334C284.645 128.898 283.703 129.18 282.599 129.18ZM282.563 121.476C281.915 121.476 281.357 121.662 280.889 122.034C280.433 122.394 280.139 122.91 280.007 123.582H284.993C284.849 122.886 284.555 122.364 284.111 122.016C283.667 121.656 283.151 121.476 282.563 121.476ZM292.898 129.09C291.986 129.09 291.242 128.838 290.666 128.334C290.102 127.818 289.82 127.074 289.82 126.102V121.764H287.948V120H289.82V117.498H291.8V120H294.374V121.764H291.8V125.778C291.8 126.33 291.92 126.726 292.16 126.966C292.4 127.194 292.784 127.308 293.312 127.308C293.744 127.308 294.098 127.248 294.374 127.128V128.892C293.942 129.024 293.45 129.09 292.898 129.09ZM299.474 129.18C298.442 129.18 297.626 128.838 297.026 128.154C296.426 127.458 296.126 126.534 296.126 125.382V120H298.106V125.058C298.106 125.778 298.262 126.348 298.574 126.768C298.886 127.176 299.33 127.38 299.906 127.38C300.578 127.38 301.112 127.128 301.508 126.624C301.904 126.108 302.102 125.376 302.102 124.428V120H304.082V129H302.102V127.776C301.574 128.712 300.698 129.18 299.474 129.18ZM308.726 132.762H306.746V120H308.726V121.206C309.002 120.822 309.398 120.498 309.914 120.234C310.442 119.958 311.012 119.82 311.624 119.82C312.848 119.82 313.874 120.276 314.702 121.188C315.542 122.1 315.962 123.204 315.962 124.5C315.962 125.796 315.542 126.9 314.702 127.812C313.874 128.724 312.848 129.18 311.624 129.18C311.012 129.18 310.442 129.048 309.914 128.784C309.398 128.508 309.002 128.178 308.726 127.794V132.762ZM311.264 127.38C312.044 127.38 312.686 127.104 313.19 126.552C313.694 126 313.946 125.316 313.946 124.5C313.946 123.684 313.694 123 313.19 122.448C312.686 121.896 312.044 121.62 311.264 121.62C310.472 121.62 309.824 121.896 309.32 122.448C308.816 123 308.564 123.684 308.564 124.5C308.564 125.316 308.816 126 309.32 126.552C309.824 127.104 310.472 127.38 311.264 127.38Z" fill="black"/>
<g filter="url(#filter1_d_978_2199)">
<circle cx="100" cy="90" r="50" fill="white"/>
</g>
<path fill-rule="evenodd" clip-rule="evenodd" d="M107.467 99.8333C107.188 99.5482 106.745 99.5059 106.417 99.7333C104.518 101.001 102.284 101.674 100 101.667C94.0376 101.632 89.0606 97.1063 88.4609 91.1735C87.8612 85.2408 91.8318 79.8107 97.6671 78.5833C98.0552 78.5041 98.3339 78.1627 98.3338 77.7667V74.4333C98.3418 74.1862 98.2301 73.9504 98.0338 73.8C97.8537 73.6351 97.6082 73.5615 97.3671 73.6C90.5887 74.7222 85.1936 79.8891 83.7795 86.6126C82.3655 93.3362 85.2222 100.239 90.9744 103.996C96.7265 107.754 104.195 107.596 109.784 103.6C109.975 103.449 110.096 103.226 110.117 102.983C110.137 102.743 110.052 102.506 109.884 102.333L107.467 99.8333ZM101.667 77.7667V74.4333C101.659 74.1862 101.771 73.9504 101.967 73.8C102.147 73.6351 102.393 73.5615 102.634 73.6C109.751 74.7352 115.332 80.3163 116.467 87.4333C116.506 87.6744 116.432 87.92 116.267 88.1C116.117 88.2963 115.881 88.408 115.634 88.4H112.3C111.904 88.4001 111.563 88.1214 111.484 87.7333C110.56 83.1164 106.951 79.5075 102.334 78.5833C101.946 78.5041 101.667 78.1627 101.667 77.7667ZM112.3 91.6667H115.634C115.909 91.6293 116.184 91.7441 116.35 91.9667C116.515 92.1467 116.589 92.3922 116.55 92.6333C116.129 95.2064 115.119 97.6474 113.6 99.7667C113.456 99.9676 113.23 100.095 112.984 100.117C112.744 100.137 112.506 100.051 112.334 99.8833L109.917 97.4667C109.638 97.185 109.597 96.7459 109.817 96.4167C110.641 95.1814 111.208 93.7926 111.484 92.3333C111.563 91.9453 111.904 91.6666 112.3 91.6667Z" fill="#14B082"/>
<defs>
<filter id="filter0_d_978_2199" x="49" y="50" width="537" height="616" filterUnits="userSpaceOnUse" color-interpolation-filters="sRGB">
<feFlood flood-opacity="0" result="BackgroundImageFix"/>
<feColorMatrix in="SourceAlpha" type="matrix" values="0 0 0 0 0 0 0 0 0 0 0 0 0 0 0 0 0 0 127 0" result="hardAlpha"/>
<feOffset dy="10"/>
<feGaussianBlur stdDeviation="25"/>
<feComposite in2="hardAlpha" operator="out"/>
<feColorMatrix type="matrix" values="0 0 0 0 0 0 0 0 0 0 0 0 0 0 0 0 0 0 0.08 0"/>
<feBlend mode="normal" in2="BackgroundImageFix" result="effect1_dropShadow_978_2199"/>
<feBlend mode="normal" in="SourceGraphic" in2="effect1_dropShadow_978_2199" result="shape"/>
</filter>
<filter id="filter1_d_978_2199" x="0" y="0" width="200" height="200" filterUnits="userSpaceOnUse" color-interpolation-filters="sRGB">
<feFlood flood-opacity="0" result="BackgroundImageFix"/>
<feColorMatrix in="SourceAlpha" type="matrix" values="0 0 0 0 0 0 0 0 0 0 0 0 0 0 0 0 0 0 127 0" result="hardAlpha"/>
<feOffset dy="10"/>
<feGaussianBlur stdDeviation="25"/>
<feComposite in2="hardAlpha" operator="out"/>
<feColorMatrix type="matrix" values="0 0 0 0 0 0 0 0 0 0 0 0 0 0 0 0 0 0 0.08 0"/>
<feBlend mode="normal" in2="BackgroundImageFix" result="effect1_dropShadow_978_2199"/>
<feBlend mode="normal" in="SourceGraphic" in2="effect1_dropShadow_978_2199" result="shape"/>
</filter>
<clipPath id="clip0_978_2199">
<rect width="20" height="20" fill="white" transform="translate(131 240)"/>
</clipPath>
<clipPath id="clip1_978_2199">
<rect width="20" height="20.0663" fill="white" transform="translate(329 448)"/>
</clipPath>
</defs>
</svg>
