<svg width="722" height="697" viewBox="0 0 722 697" fill="none" xmlns="http://www.w3.org/2000/svg">
<g filter="url(#filter0_d_997_1683)">
<rect x="100" y="30" width="513" height="450" rx="16" fill="white"/>
</g>
<g filter="url(#filter1_d_997_1683)">
<circle cx="90" cy="470" r="40" fill="white"/>
</g>
<g clip-path="url(#clip0_997_1683)">
<path d="M104.667 459.333V467.333H96.667" stroke="#14B082" stroke-width="2" stroke-linecap="round" stroke-linejoin="round"/>
<path d="M75.333 480.667V472.667H83.333" stroke="#14B082" stroke-width="2" stroke-linecap="round" stroke-linejoin="round"/>
<path d="M78.6797 466C79.3559 464.089 80.5052 462.38 82.0203 461.034C83.5354 459.687 85.367 458.746 87.3441 458.299C89.3212 457.851 91.3793 457.912 93.3266 458.475C95.2738 459.039 97.0467 460.086 98.4797 461.52L104.666 467.333M75.333 472.666L81.5197 478.48C82.9527 479.913 84.7255 480.961 86.6728 481.524C88.62 482.087 90.6782 482.148 92.6553 481.701C94.6324 481.253 96.4639 480.313 97.9791 478.966C99.4942 477.619 100.643 475.911 101.32 474" stroke="#14B082" stroke-width="3" stroke-linecap="round" stroke-linejoin="round"/>
</g>
<rect x="132" y="127" width="192" height="32" rx="8" fill="#14B082"/>
<path d="M197.681 343.648C168.782 346.329 132 296.599 132 296.599V420H581V221.613C535.166 269.271 516.823 216.662 459.329 221.613C418.847 225.099 408.293 318.496 371.036 296.599C328.708 271.721 305.664 205.044 261.209 221.613C219.9 237.009 240.403 339.685 197.681 343.648Z" fill="url(#paint0_linear_997_1683)"/>
<path d="M132 295.546C132 295.546 168.782 344.603 197.681 341.958C240.403 338.048 219.9 236.765 261.209 221.578C305.664 205.233 328.708 271.006 371.036 295.546C408.293 317.146 418.847 225.016 459.329 221.578C516.823 216.694 535.166 268.589 581 221.578" stroke="#FFC947" stroke-width="2" stroke-linecap="round"/>
<path d="M274 196L274 366" stroke="url(#paint1_linear_997_1683)" stroke-dasharray="2 2"/>
<circle cx="274" cy="217" r="11" fill="white" stroke="#416FF4" stroke-width="2"/>
<g filter="url(#filter2_d_997_1683)">
<rect x="165" y="374" width="507" height="263" rx="16" fill="white" shape-rendering="crispEdges"/>
<path d="M197.016 422L201.912 410.64H203.976L208.888 422H206.456L205.352 419.408H200.504L199.416 422H197.016ZM202.936 413.696L201.368 417.376H204.488L202.936 413.696ZM212.609 422.176C211.659 422.176 210.918 421.856 210.385 421.216C209.862 420.576 209.601 419.717 209.601 418.64V414H211.793V418.272C211.793 419.541 212.246 420.176 213.153 420.176C213.665 420.176 214.065 419.984 214.353 419.6C214.651 419.216 214.801 418.651 214.801 417.904V414H216.993V422H214.801V421.088C214.31 421.813 213.579 422.176 212.609 422.176ZM222.975 422.096C222.079 422.096 221.343 421.851 220.767 421.36C220.202 420.859 219.919 420.139 219.919 419.2V415.92H218.303V414H219.919V411.776H222.111V414H224.367V415.92H222.111V418.768C222.111 419.259 222.218 419.611 222.431 419.824C222.644 420.027 222.991 420.128 223.471 420.128C223.812 420.128 224.111 420.08 224.367 419.984V421.92C223.983 422.037 223.519 422.096 222.975 422.096ZM232.478 420.976C231.656 421.776 230.664 422.176 229.502 422.176C228.339 422.176 227.347 421.776 226.526 420.976C225.704 420.165 225.294 419.173 225.294 418C225.294 416.837 225.704 415.851 226.526 415.04C227.347 414.229 228.339 413.824 229.502 413.824C230.664 413.824 231.656 414.229 232.478 415.04C233.299 415.851 233.71 416.837 233.71 418C233.71 419.173 233.299 420.165 232.478 420.976ZM229.502 420.128C230.067 420.128 230.536 419.931 230.91 419.536C231.294 419.131 231.486 418.619 231.486 418C231.486 417.381 231.294 416.875 230.91 416.48C230.536 416.075 230.067 415.872 229.502 415.872C228.926 415.872 228.446 416.075 228.062 416.48C227.688 416.875 227.502 417.381 227.502 418C227.502 418.619 227.688 419.131 228.062 419.536C228.446 419.931 228.926 420.128 229.502 420.128ZM245.37 422V417.728C245.37 416.459 244.954 415.824 244.122 415.824C243.642 415.824 243.258 416.005 242.97 416.368C242.693 416.731 242.544 417.269 242.522 417.984V422H240.33V417.728C240.33 416.459 239.914 415.824 239.082 415.824C238.592 415.824 238.202 416.016 237.914 416.4C237.626 416.784 237.482 417.349 237.482 418.096V422H235.29V414H237.482V414.912C237.984 414.187 238.693 413.824 239.61 413.824C240.73 413.824 241.557 414.315 242.09 415.296C242.325 414.837 242.677 414.48 243.146 414.224C243.616 413.957 244.09 413.824 244.57 413.824C245.52 413.824 246.256 414.139 246.778 414.768C247.301 415.397 247.562 416.261 247.562 417.36V422H245.37ZM252.82 422.176C251.764 422.176 250.873 421.765 250.148 420.944C249.422 420.123 249.06 419.141 249.06 418C249.06 416.859 249.422 415.877 250.148 415.056C250.873 414.235 251.764 413.824 252.82 413.824C253.332 413.824 253.79 413.931 254.196 414.144C254.601 414.357 254.91 414.608 255.124 414.896V414H257.316V422H255.124V421.104C254.91 421.392 254.601 421.643 254.196 421.856C253.79 422.069 253.332 422.176 252.82 422.176ZM251.812 419.568C252.185 419.973 252.676 420.176 253.284 420.176C253.892 420.176 254.377 419.973 254.74 419.568C255.113 419.163 255.3 418.64 255.3 418C255.3 417.36 255.113 416.837 254.74 416.432C254.377 416.027 253.892 415.824 253.284 415.824C252.676 415.824 252.185 416.027 251.812 416.432C251.449 416.837 251.268 417.36 251.268 418C251.268 418.64 251.449 419.163 251.812 419.568ZM263.319 422.096C262.423 422.096 261.687 421.851 261.111 421.36C260.545 420.859 260.263 420.139 260.263 419.2V415.92H258.647V414H260.263V411.776H262.455V414H264.711V415.92H262.455V418.768C262.455 419.259 262.561 419.611 262.775 419.824C262.988 420.027 263.335 420.128 263.815 420.128C264.156 420.128 264.455 420.08 264.711 419.984V421.92C264.327 422.037 263.863 422.096 263.319 422.096ZM267.363 412.688C266.989 412.688 266.664 412.555 266.387 412.288C266.109 412.011 265.971 411.68 265.971 411.296C265.971 410.912 266.109 410.587 266.387 410.32C266.664 410.043 266.989 409.904 267.363 409.904C267.757 409.904 268.088 410.043 268.355 410.32C268.632 410.587 268.771 410.912 268.771 411.296C268.771 411.68 268.632 412.011 268.355 412.288C268.088 412.555 267.757 412.688 267.363 412.688ZM266.275 422V414H268.467V422H266.275ZM277.228 420.976C276.406 421.776 275.414 422.176 274.252 422.176C273.089 422.176 272.097 421.776 271.276 420.976C270.454 420.165 270.044 419.173 270.044 418C270.044 416.837 270.454 415.851 271.276 415.04C272.097 414.229 273.089 413.824 274.252 413.824C275.414 413.824 276.406 414.229 277.228 415.04C278.049 415.851 278.46 416.837 278.46 418C278.46 419.173 278.049 420.165 277.228 420.976ZM274.252 420.128C274.817 420.128 275.286 419.931 275.66 419.536C276.044 419.131 276.236 418.619 276.236 418C276.236 417.381 276.044 416.875 275.66 416.48C275.286 416.075 274.817 415.872 274.252 415.872C273.676 415.872 273.196 416.075 272.812 416.48C272.438 416.875 272.252 417.381 272.252 418C272.252 418.619 272.438 419.131 272.812 419.536C273.196 419.931 273.676 420.128 274.252 420.128ZM280.04 422V414H282.232V414.912C282.723 414.187 283.486 413.824 284.52 413.824C285.48 413.824 286.232 414.144 286.776 414.784C287.331 415.413 287.608 416.256 287.608 417.312V422H285.416V417.68C285.416 417.093 285.294 416.64 285.048 416.32C284.803 415.989 284.456 415.824 284.008 415.824C283.475 415.824 283.043 416.016 282.712 416.4C282.392 416.784 282.232 417.349 282.232 418.096V422H280.04Z" fill="#12141D"/>
<path d="M198.106 469.5V459.56H200.136V469.5H198.106ZM202.822 469.5V464.18H201.408V462.5H202.822V461.59C202.822 460.759 203.074 460.106 203.578 459.63C204.082 459.154 204.722 458.916 205.496 458.916C205.972 458.916 206.378 458.967 206.714 459.07V460.764C206.49 460.68 206.229 460.638 205.93 460.638C205.51 460.638 205.207 460.731 205.02 460.918C204.834 461.095 204.74 461.399 204.74 461.828V462.5H206.714V464.18H204.74V469.5H202.822Z" fill="#12141D"/>
<rect x="253.5" y="449.5" width="120" height="29" rx="5.5" fill="white"/>
<path opacity="0.7" d="M266.576 468.144C265.664 468.144 264.924 467.892 264.356 467.388C263.796 466.876 263.5 466.264 263.468 465.552H264.872C264.92 465.96 265.108 466.276 265.436 466.5C265.772 466.724 266.148 466.836 266.564 466.836C266.98 466.836 267.32 466.74 267.584 466.548C267.856 466.348 267.992 466.084 267.992 465.756C267.992 465.18 267.6 464.764 266.816 464.508L265.772 464.16C264.38 463.72 263.684 462.9 263.684 461.7C263.684 460.972 263.932 460.396 264.428 459.972C264.932 459.548 265.588 459.336 266.396 459.336C267.236 459.336 267.904 459.58 268.4 460.068C268.896 460.548 269.172 461.116 269.228 461.772H267.824C267.736 461.396 267.556 461.116 267.284 460.932C267.012 460.74 266.708 460.644 266.372 460.644C266.004 460.644 265.7 460.736 265.46 460.92C265.22 461.096 265.096 461.332 265.088 461.628C265.088 461.932 265.18 462.18 265.364 462.372C265.548 462.556 265.84 462.712 266.24 462.84L267.296 463.176C268.704 463.632 269.408 464.476 269.408 465.708C269.408 466.428 269.144 467.016 268.616 467.472C268.096 467.92 267.416 468.144 266.576 468.144ZM272.063 470.508H270.743V462H272.063V462.804C272.247 462.548 272.511 462.332 272.855 462.156C273.207 461.972 273.587 461.88 273.995 461.88C274.811 461.88 275.495 462.184 276.047 462.792C276.607 463.4 276.887 464.136 276.887 465C276.887 465.864 276.607 466.6 276.047 467.208C275.495 467.816 274.811 468.12 273.995 468.12C273.587 468.12 273.207 468.032 272.855 467.856C272.511 467.672 272.247 467.452 272.063 467.196V470.508ZM273.755 466.92C274.275 466.92 274.703 466.736 275.039 466.368C275.375 466 275.543 465.544 275.543 465C275.543 464.456 275.375 464 275.039 463.632C274.703 463.264 274.275 463.08 273.755 463.08C273.227 463.08 272.795 463.264 272.459 463.632C272.123 464 271.955 464.456 271.955 465C271.955 465.544 272.123 466 272.459 466.368C272.795 466.736 273.227 466.92 273.755 466.92ZM280.884 468.12C279.988 468.12 279.252 467.828 278.676 467.244C278.1 466.652 277.812 465.904 277.812 465C277.812 464.096 278.096 463.352 278.664 462.768C279.232 462.176 279.976 461.88 280.896 461.88C281.824 461.88 282.572 462.204 283.14 462.852C283.708 463.492 283.96 464.316 283.896 465.324H279.12C279.136 465.788 279.312 466.176 279.648 466.488C279.984 466.8 280.412 466.956 280.932 466.956C281.668 466.956 282.172 466.676 282.444 466.116H283.824C283.64 466.7 283.288 467.18 282.768 467.556C282.248 467.932 281.62 468.12 280.884 468.12ZM280.86 462.984C280.428 462.984 280.056 463.108 279.744 463.356C279.44 463.596 279.244 463.94 279.156 464.388H282.48C282.384 463.924 282.188 463.576 281.892 463.344C281.596 463.104 281.252 462.984 280.86 462.984ZM285.251 468V462H286.571V462.816C286.947 462.192 287.555 461.88 288.395 461.88C289.091 461.88 289.647 462.108 290.063 462.564C290.479 463.02 290.687 463.628 290.687 464.388V468H289.367V464.604C289.367 464.124 289.255 463.752 289.031 463.488C288.807 463.216 288.503 463.08 288.119 463.08C287.663 463.08 287.291 463.252 287.003 463.596C286.715 463.94 286.571 464.424 286.571 465.048V468H285.251ZM294.836 468.12C294.02 468.12 293.332 467.816 292.772 467.208C292.22 466.6 291.944 465.864 291.944 465C291.944 464.136 292.22 463.4 292.772 462.792C293.332 462.184 294.02 461.88 294.836 461.88C295.244 461.88 295.62 461.972 295.964 462.156C296.308 462.332 296.572 462.548 296.756 462.804V459H298.076V468H296.756V467.196C296.572 467.452 296.308 467.672 295.964 467.856C295.62 468.032 295.244 468.12 294.836 468.12ZM293.792 466.368C294.128 466.736 294.556 466.92 295.076 466.92C295.596 466.92 296.024 466.736 296.36 466.368C296.696 466 296.864 465.544 296.864 465C296.864 464.456 296.696 464 296.36 463.632C296.024 463.264 295.596 463.08 295.076 463.08C294.556 463.08 294.128 463.264 293.792 463.632C293.456 464 293.288 464.456 293.288 465C293.288 465.544 293.456 466 293.792 466.368Z" fill="#12141D"/>
<path d="M355.54 466.835C355.435 466.941 355.292 467 355.143 467H354.858C354.709 466.998 354.567 466.939 354.46 466.835L350.613 462.98C350.542 462.91 350.502 462.814 350.502 462.714C350.502 462.614 350.542 462.518 350.613 462.448L351.145 461.915C351.215 461.845 351.309 461.805 351.408 461.805C351.507 461.805 351.601 461.845 351.67 461.915L355 465.253L358.33 461.915C358.401 461.844 358.497 461.804 358.597 461.804C358.697 461.804 358.792 461.844 358.863 461.915L359.388 462.448C359.459 462.518 359.499 462.614 359.499 462.714C359.499 462.814 359.459 462.91 359.388 462.98L355.54 466.835Z" fill="black"/>
<rect x="253.5" y="449.5" width="120" height="29" rx="5.5" stroke="#DFDFDF"/>
<path d="M379.806 460.974C379.526 460.974 379.283 460.876 379.078 460.68C378.873 460.475 378.77 460.227 378.77 459.938C378.77 459.658 378.873 459.42 379.078 459.224C379.283 459.019 379.526 458.916 379.806 458.916C380.095 458.916 380.338 459.019 380.534 459.224C380.73 459.42 380.828 459.658 380.828 459.938C380.828 460.227 380.73 460.475 380.534 460.68C380.338 460.876 380.095 460.974 379.806 460.974ZM379.036 469.5V462.5H380.576V469.5H379.036ZM385.109 469.64C384.279 469.64 383.579 469.435 383.009 469.024C382.449 468.613 382.151 468.063 382.113 467.372H383.709C383.821 468.063 384.302 468.408 385.151 468.408C385.497 468.408 385.772 468.347 385.977 468.226C386.183 468.095 386.285 467.909 386.285 467.666C386.285 467.423 386.206 467.232 386.047 467.092C385.889 466.952 385.623 466.835 385.249 466.742L384.101 466.434C382.907 466.117 382.309 465.412 382.309 464.32C382.309 463.732 382.547 463.261 383.023 462.906C383.499 462.542 384.129 462.36 384.913 462.36C385.669 462.36 386.29 462.551 386.775 462.934C387.261 463.317 387.531 463.825 387.587 464.46H386.047C385.898 463.881 385.515 463.592 384.899 463.592C384.591 463.592 384.344 463.657 384.157 463.788C383.971 463.909 383.877 464.082 383.877 464.306C383.877 464.707 384.19 464.987 384.815 465.146L385.991 465.454C387.233 465.771 387.853 466.476 387.853 467.568C387.853 468.231 387.597 468.744 387.083 469.108C386.579 469.463 385.921 469.64 385.109 469.64Z" fill="#12141D"/>
<rect x="393.5" y="449.5" width="83" height="29" rx="5.5" fill="white"/>
<path opacity="0.7" d="M405.208 468H403.888V459H405.208V462.816C405.584 462.192 406.192 461.88 407.032 461.88C407.728 461.88 408.284 462.108 408.7 462.564C409.116 463.02 409.324 463.628 409.324 464.388V468H408.004V464.604C408.004 464.124 407.892 463.752 407.668 463.488C407.444 463.216 407.14 463.08 406.756 463.08C406.3 463.08 405.928 463.252 405.64 463.596C405.352 463.94 405.208 464.424 405.208 465.048V468ZM411.673 460.692C411.433 460.692 411.225 460.608 411.049 460.44C410.873 460.264 410.785 460.052 410.785 459.804C410.785 459.564 410.873 459.36 411.049 459.192C411.225 459.016 411.433 458.928 411.673 458.928C411.921 458.928 412.129 459.016 412.297 459.192C412.465 459.36 412.549 459.564 412.549 459.804C412.549 460.052 412.465 460.264 412.297 460.44C412.129 460.608 411.921 460.692 411.673 460.692ZM411.013 468V462H412.333V468H411.013ZM416.819 470.628C416.003 470.628 415.331 470.428 414.803 470.028C414.283 469.628 413.983 469.108 413.903 468.468H415.199C415.431 469.156 415.983 469.5 416.855 469.5C417.327 469.5 417.715 469.344 418.019 469.032C418.331 468.728 418.487 468.296 418.487 467.736V467.028C418.295 467.3 418.027 467.524 417.683 467.7C417.339 467.876 416.967 467.964 416.567 467.964C415.759 467.964 415.075 467.672 414.515 467.088C413.963 466.496 413.687 465.772 413.687 464.916C413.687 464.068 413.963 463.352 414.515 462.768C415.075 462.176 415.759 461.88 416.567 461.88C416.967 461.88 417.339 461.968 417.683 462.144C418.027 462.312 418.295 462.532 418.487 462.804V462H419.807V467.628C419.807 468.62 419.523 469.368 418.955 469.872C418.395 470.376 417.683 470.628 416.819 470.628ZM415.535 466.236C415.879 466.58 416.303 466.752 416.807 466.752C417.311 466.752 417.735 466.58 418.079 466.236C418.423 465.884 418.595 465.444 418.595 464.916C418.595 464.388 418.423 463.952 418.079 463.608C417.735 463.256 417.311 463.08 416.807 463.08C416.303 463.08 415.879 463.256 415.535 463.608C415.191 463.952 415.019 464.388 415.019 464.916C415.019 465.444 415.191 465.884 415.535 466.236ZM422.903 468H421.583V459H422.903V462.816C423.279 462.192 423.887 461.88 424.727 461.88C425.423 461.88 425.979 462.108 426.395 462.564C426.811 463.02 427.019 463.628 427.019 464.388V468H425.699V464.604C425.699 464.124 425.587 463.752 425.363 463.488C425.139 463.216 424.835 463.08 424.451 463.08C423.995 463.08 423.623 463.252 423.335 463.596C423.047 463.94 422.903 464.424 422.903 465.048V468ZM431.36 468.12C430.464 468.12 429.728 467.828 429.152 467.244C428.576 466.652 428.288 465.904 428.288 465C428.288 464.096 428.572 463.352 429.14 462.768C429.708 462.176 430.452 461.88 431.372 461.88C432.3 461.88 433.048 462.204 433.616 462.852C434.184 463.492 434.436 464.316 434.372 465.324H429.596C429.612 465.788 429.788 466.176 430.124 466.488C430.46 466.8 430.888 466.956 431.408 466.956C432.144 466.956 432.648 466.676 432.92 466.116H434.3C434.116 466.7 433.764 467.18 433.244 467.556C432.724 467.932 432.096 468.12 431.36 468.12ZM431.336 462.984C430.904 462.984 430.532 463.108 430.22 463.356C429.916 463.596 429.72 463.94 429.632 464.388H432.956C432.86 463.924 432.664 463.576 432.368 463.344C432.072 463.104 431.728 462.984 431.336 462.984ZM435.728 468V462H437.048V463.068C437.16 462.732 437.364 462.46 437.66 462.252C437.964 462.044 438.288 461.94 438.632 461.94C438.84 461.94 439.012 461.956 439.148 461.988V463.344C438.956 463.272 438.736 463.236 438.488 463.236C438.088 463.236 437.748 463.4 437.468 463.728C437.188 464.048 437.048 464.496 437.048 465.072V468H435.728Z" fill="#12141D"/>
<path d="M458.54 466.835C458.435 466.941 458.292 467 458.143 467H457.858C457.709 466.998 457.567 466.939 457.46 466.835L453.613 462.98C453.542 462.91 453.502 462.814 453.502 462.714C453.502 462.614 453.542 462.518 453.613 462.448L454.145 461.915C454.215 461.845 454.309 461.805 454.408 461.805C454.507 461.805 454.601 461.845 454.67 461.915L458 465.253L461.33 461.915C461.401 461.844 461.497 461.804 461.597 461.804C461.697 461.804 461.792 461.844 461.863 461.915L462.388 462.448C462.459 462.518 462.499 462.614 462.499 462.714C462.499 462.814 462.459 462.91 462.388 462.98L458.54 466.835Z" fill="black"/>
<rect x="393.5" y="449.5" width="83" height="29" rx="5.5" stroke="#DFDFDF"/>
<path d="M485.074 469.57C484.365 469.57 483.786 469.374 483.338 468.982C482.899 468.581 482.68 468.002 482.68 467.246V463.872H481.224V462.5H482.68V460.554H484.22V462.5H486.222V463.872H484.22V466.994C484.22 467.423 484.313 467.731 484.5 467.918C484.687 468.095 484.985 468.184 485.396 468.184C485.732 468.184 486.007 468.137 486.222 468.044V469.416C485.886 469.519 485.503 469.57 485.074 469.57ZM489.222 469.5H487.682V459H489.222V463.452C489.661 462.724 490.37 462.36 491.35 462.36C492.162 462.36 492.811 462.626 493.296 463.158C493.782 463.69 494.024 464.399 494.024 465.286V469.5H492.484V465.538C492.484 464.978 492.354 464.544 492.092 464.236C491.831 463.919 491.476 463.76 491.028 463.76C490.496 463.76 490.062 463.961 489.726 464.362C489.39 464.763 489.222 465.328 489.222 466.056V469.5ZM499.089 469.64C498.044 469.64 497.185 469.299 496.513 468.618C495.841 467.927 495.505 467.055 495.505 466C495.505 464.945 495.836 464.077 496.499 463.396C497.162 462.705 498.03 462.36 499.103 462.36C500.186 462.36 501.058 462.738 501.721 463.494C502.384 464.241 502.678 465.202 502.603 466.378H497.031C497.05 466.919 497.255 467.372 497.647 467.736C498.039 468.1 498.538 468.282 499.145 468.282C500.004 468.282 500.592 467.955 500.909 467.302H502.519C502.304 467.983 501.894 468.543 501.287 468.982C500.68 469.421 499.948 469.64 499.089 469.64ZM499.061 463.648C498.557 463.648 498.123 463.793 497.759 464.082C497.404 464.362 497.176 464.763 497.073 465.286H500.951C500.839 464.745 500.61 464.339 500.265 464.068C499.92 463.788 499.518 463.648 499.061 463.648ZM504.184 469.5V462.5H505.724V463.452C506.163 462.724 506.872 462.36 507.852 462.36C508.664 462.36 509.313 462.626 509.798 463.158C510.284 463.69 510.526 464.399 510.526 465.286V469.5H508.986V465.538C508.986 464.978 508.856 464.544 508.594 464.236C508.333 463.919 507.978 463.76 507.53 463.76C506.998 463.76 506.564 463.961 506.228 464.362C505.892 464.763 505.724 465.328 505.724 466.056V469.5H504.184ZM518.102 470.732V469.612C517.318 469.528 516.669 469.229 516.156 468.716C515.643 468.193 515.377 467.507 515.358 466.658H516.898C516.991 467.451 517.393 467.932 518.102 468.1V465.132L517.626 464.95C516.133 464.381 515.386 463.424 515.386 462.08C515.386 461.296 515.633 460.671 516.128 460.204C516.632 459.728 517.29 459.462 518.102 459.406V458.328H518.858V459.434C519.567 459.527 520.16 459.817 520.636 460.302C521.112 460.778 521.35 461.361 521.35 462.052H519.81C519.707 461.473 519.39 461.105 518.858 460.946V463.718L519.278 463.886C520.043 464.185 520.622 464.577 521.014 465.062C521.406 465.538 521.602 466.145 521.602 466.882C521.602 467.722 521.355 468.38 520.86 468.856C520.365 469.323 519.698 469.579 518.858 469.626V470.732H518.102ZM520.062 466.924C520.062 466.289 519.661 465.795 518.858 465.44V468.142C519.213 468.095 519.502 467.965 519.726 467.75C519.95 467.526 520.062 467.251 520.062 466.924ZM516.926 462.066C516.926 462.645 517.318 463.097 518.102 463.424V460.89C517.747 460.937 517.463 461.067 517.248 461.282C517.033 461.497 516.926 461.758 516.926 462.066Z" fill="#12141D"/>
<rect x="527.5" y="449.5" width="83" height="29" rx="5.5" fill="white"/>
<path opacity="0.7" d="M543.192 466.704V468H537.552V467.52C537.552 467.216 537.596 466.928 537.684 466.656C537.78 466.376 537.88 466.144 537.984 465.96C538.088 465.776 538.26 465.572 538.5 465.348C538.74 465.116 538.924 464.952 539.052 464.856C539.18 464.752 539.404 464.584 539.724 464.352C540.052 464.12 540.26 463.972 540.348 463.908C540.852 463.54 541.216 463.216 541.44 462.936C541.664 462.656 541.776 462.32 541.776 461.928C541.776 461.536 541.656 461.224 541.416 460.992C541.176 460.752 540.844 460.632 540.42 460.632C539.98 460.632 539.616 460.764 539.328 461.028C539.04 461.284 538.892 461.636 538.884 462.084H537.552C537.552 461.276 537.824 460.616 538.368 460.104C538.92 459.592 539.608 459.336 540.432 459.336C541.192 459.336 541.828 459.56 542.34 460.008C542.852 460.456 543.108 461.084 543.108 461.892C543.108 462.532 542.96 463.072 542.664 463.512C542.376 463.944 541.896 464.4 541.224 464.88C541.12 464.96 540.928 465.096 540.648 465.288C540.368 465.48 540.16 465.628 540.024 465.732C539.896 465.836 539.756 465.98 539.604 466.164C539.452 466.34 539.348 466.52 539.292 466.704H543.192ZM549.761 467.208C549.185 467.816 548.445 468.12 547.541 468.12C546.637 468.12 545.897 467.816 545.321 467.208C544.745 466.592 544.457 465.804 544.457 464.844V462.612C544.457 461.652 544.745 460.868 545.321 460.26C545.897 459.644 546.637 459.336 547.541 459.336C548.445 459.336 549.185 459.644 549.761 460.26C550.345 460.868 550.637 461.652 550.637 462.612V464.844C550.637 465.804 550.345 466.592 549.761 467.208ZM547.541 466.824C548.077 466.824 548.505 466.648 548.825 466.296C549.153 465.944 549.317 465.46 549.317 464.844V462.612C549.317 461.996 549.153 461.512 548.825 461.16C548.505 460.808 548.077 460.632 547.541 460.632C547.013 460.632 546.585 460.808 546.257 461.16C545.937 461.512 545.777 461.996 545.777 462.612V464.844C545.777 465.46 545.937 465.944 546.257 466.296C546.585 466.648 547.013 466.824 547.541 466.824Z" fill="#12141D"/>
<g clip-path="url(#clip1_997_1683)">
<path d="M589 461.75L592 458.75L595 461.75" stroke="black" stroke-width="1.5" stroke-linecap="round" stroke-linejoin="round"/>
<path d="M595 466.25L592 469.25L589 466.25" stroke="black" stroke-width="1.5" stroke-linecap="round" stroke-linejoin="round"/>
</g>
<rect x="527.5" y="449.5" width="83" height="29" rx="5.5" stroke="#DFDFDF"/>
<path d="M197.014 511.5L201.298 501.56H203.104L207.402 511.5H205.274L204.308 509.232H200.066L199.114 511.5H197.014ZM202.194 504.234L200.822 507.454H203.552L202.194 504.234ZM208.328 511.5V504.5H210.246V505.298C210.676 504.663 211.343 504.346 212.248 504.346C213.088 504.346 213.746 504.626 214.222 505.186C214.708 505.737 214.95 506.474 214.95 507.398V511.5H213.032V507.72C213.032 507.207 212.925 506.81 212.71 506.53C212.496 506.241 212.192 506.096 211.8 506.096C211.334 506.096 210.956 506.264 210.666 506.6C210.386 506.936 210.246 507.431 210.246 508.084V511.5H208.328ZM219.551 511.654C218.627 511.654 217.848 511.295 217.213 510.576C216.578 509.857 216.261 508.999 216.261 508C216.261 507.001 216.578 506.143 217.213 505.424C217.848 504.705 218.627 504.346 219.551 504.346C219.999 504.346 220.4 504.439 220.755 504.626C221.11 504.813 221.38 505.032 221.567 505.284V501H223.485V511.5H221.567V510.716C221.38 510.968 221.11 511.187 220.755 511.374C220.4 511.561 219.999 511.654 219.551 511.654ZM218.669 509.372C218.996 509.727 219.425 509.904 219.957 509.904C220.489 509.904 220.914 509.727 221.231 509.372C221.558 509.017 221.721 508.56 221.721 508C221.721 507.44 221.558 506.983 221.231 506.628C220.914 506.273 220.489 506.096 219.957 506.096C219.425 506.096 218.996 506.273 218.669 506.628C218.352 506.983 218.193 507.44 218.193 508C218.193 508.56 218.352 509.017 218.669 509.372ZM228.717 511.5V501.56H230.747V511.5H228.717ZM233.434 511.5V506.18H232.02V504.5H233.434V503.59C233.434 502.759 233.686 502.106 234.19 501.63C234.694 501.154 235.333 500.916 236.108 500.916C236.584 500.916 236.99 500.967 237.326 501.07V502.764C237.102 502.68 236.84 502.638 236.542 502.638C236.122 502.638 235.818 502.731 235.632 502.918C235.445 503.095 235.352 503.399 235.352 503.828V504.5H237.326V506.18H235.352V511.5H233.434Z" fill="#12141D"/>
<rect x="252.5" y="491.5" width="120" height="29" rx="5.5" fill="white"/>
<path opacity="0.7" d="M266.944 510.144C265.672 510.144 264.612 509.724 263.764 508.884C262.924 508.036 262.504 506.988 262.504 505.74C262.504 504.492 262.924 503.448 263.764 502.608C264.612 501.76 265.672 501.336 266.944 501.336C267.952 501.336 268.832 501.624 269.584 502.2C270.344 502.768 270.832 503.48 271.048 504.336H269.536C269.352 503.848 269.024 503.452 268.552 503.148C268.08 502.844 267.544 502.692 266.944 502.692C266.064 502.692 265.34 502.984 264.772 503.568C264.204 504.152 263.92 504.876 263.92 505.74C263.92 506.604 264.204 507.328 264.772 507.912C265.34 508.496 266.064 508.788 266.944 508.788C267.544 508.788 268.08 508.636 268.552 508.332C269.024 508.028 269.352 507.632 269.536 507.144H271.048C270.832 508 270.344 508.716 269.584 509.292C268.832 509.86 267.952 510.144 266.944 510.144ZM277.302 502.284C277.854 502.812 278.13 503.472 278.13 504.264C278.13 505.056 277.854 505.72 277.302 506.256C276.75 506.784 276.042 507.048 275.178 507.048H273.87V510H272.466V501.48H275.178C276.042 501.48 276.75 501.748 277.302 502.284ZM276.318 505.32C276.606 505.04 276.75 504.688 276.75 504.264C276.75 503.84 276.606 503.492 276.318 503.22C276.038 502.94 275.654 502.8 275.166 502.8H273.87V505.728H275.166C275.654 505.728 276.038 505.592 276.318 505.32ZM278.056 510L281.776 501.48H283L286.72 510H285.256L284.284 507.768H280.468L279.508 510H278.056ZM282.376 503.376L281.008 506.52H283.744L282.376 503.376Z" fill="#12141D"/>
<path d="M354.54 508.835C354.435 508.941 354.292 509 354.143 509H353.858C353.709 508.998 353.567 508.939 353.46 508.835L349.613 504.98C349.542 504.91 349.502 504.814 349.502 504.714C349.502 504.614 349.542 504.518 349.613 504.448L350.145 503.915C350.215 503.845 350.309 503.805 350.408 503.805C350.507 503.805 350.601 503.845 350.67 503.915L354 507.253L357.33 503.915C357.401 503.844 357.497 503.804 357.597 503.804C357.697 503.804 357.792 503.844 357.863 503.915L358.388 504.448C358.459 504.518 358.499 504.614 358.499 504.714C358.499 504.814 358.459 504.91 358.388 504.98L354.54 508.835Z" fill="black"/>
<rect x="252.5" y="491.5" width="120" height="29" rx="5.5" stroke="#DFDFDF"/>
<path d="M378.806 502.974C378.526 502.974 378.283 502.876 378.078 502.68C377.873 502.475 377.77 502.227 377.77 501.938C377.77 501.658 377.873 501.42 378.078 501.224C378.283 501.019 378.526 500.916 378.806 500.916C379.095 500.916 379.338 501.019 379.534 501.224C379.73 501.42 379.828 501.658 379.828 501.938C379.828 502.227 379.73 502.475 379.534 502.68C379.338 502.876 379.095 502.974 378.806 502.974ZM378.036 511.5V504.5H379.576V511.5H378.036ZM384.109 511.64C383.279 511.64 382.579 511.435 382.009 511.024C381.449 510.613 381.151 510.063 381.113 509.372H382.709C382.821 510.063 383.302 510.408 384.151 510.408C384.497 510.408 384.772 510.347 384.977 510.226C385.183 510.095 385.285 509.909 385.285 509.666C385.285 509.423 385.206 509.232 385.047 509.092C384.889 508.952 384.623 508.835 384.249 508.742L383.101 508.434C381.907 508.117 381.309 507.412 381.309 506.32C381.309 505.732 381.547 505.261 382.023 504.906C382.499 504.542 383.129 504.36 383.913 504.36C384.669 504.36 385.29 504.551 385.775 504.934C386.261 505.317 386.531 505.825 386.587 506.46H385.047C384.898 505.881 384.515 505.592 383.899 505.592C383.591 505.592 383.344 505.657 383.157 505.788C382.971 505.909 382.877 506.082 382.877 506.306C382.877 506.707 383.19 506.987 383.815 507.146L384.991 507.454C386.233 507.771 386.853 508.476 386.853 509.568C386.853 510.231 386.597 510.744 386.083 511.108C385.579 511.463 384.921 511.64 384.109 511.64Z" fill="#12141D"/>
<rect x="392.5" y="491.5" width="83" height="29" rx="5.5" fill="white"/>
<path opacity="0.7" d="M404.208 510H402.888V501H404.208V504.816C404.584 504.192 405.192 503.88 406.032 503.88C406.728 503.88 407.284 504.108 407.7 504.564C408.116 505.02 408.324 505.628 408.324 506.388V510H407.004V506.604C407.004 506.124 406.892 505.752 406.668 505.488C406.444 505.216 406.14 505.08 405.756 505.08C405.3 505.08 404.928 505.252 404.64 505.596C404.352 505.94 404.208 506.424 404.208 507.048V510ZM410.673 502.692C410.433 502.692 410.225 502.608 410.049 502.44C409.873 502.264 409.785 502.052 409.785 501.804C409.785 501.564 409.873 501.36 410.049 501.192C410.225 501.016 410.433 500.928 410.673 500.928C410.921 500.928 411.129 501.016 411.297 501.192C411.465 501.36 411.549 501.564 411.549 501.804C411.549 502.052 411.465 502.264 411.297 502.44C411.129 502.608 410.921 502.692 410.673 502.692ZM410.013 510V504H411.333V510H410.013ZM415.819 512.628C415.003 512.628 414.331 512.428 413.803 512.028C413.283 511.628 412.983 511.108 412.903 510.468H414.199C414.431 511.156 414.983 511.5 415.855 511.5C416.327 511.5 416.715 511.344 417.019 511.032C417.331 510.728 417.487 510.296 417.487 509.736V509.028C417.295 509.3 417.027 509.524 416.683 509.7C416.339 509.876 415.967 509.964 415.567 509.964C414.759 509.964 414.075 509.672 413.515 509.088C412.963 508.496 412.687 507.772 412.687 506.916C412.687 506.068 412.963 505.352 413.515 504.768C414.075 504.176 414.759 503.88 415.567 503.88C415.967 503.88 416.339 503.968 416.683 504.144C417.027 504.312 417.295 504.532 417.487 504.804V504H418.807V509.628C418.807 510.62 418.523 511.368 417.955 511.872C417.395 512.376 416.683 512.628 415.819 512.628ZM414.535 508.236C414.879 508.58 415.303 508.752 415.807 508.752C416.311 508.752 416.735 508.58 417.079 508.236C417.423 507.884 417.595 507.444 417.595 506.916C417.595 506.388 417.423 505.952 417.079 505.608C416.735 505.256 416.311 505.08 415.807 505.08C415.303 505.08 414.879 505.256 414.535 505.608C414.191 505.952 414.019 506.388 414.019 506.916C414.019 507.444 414.191 507.884 414.535 508.236ZM421.903 510H420.583V501H421.903V504.816C422.279 504.192 422.887 503.88 423.727 503.88C424.423 503.88 424.979 504.108 425.395 504.564C425.811 505.02 426.019 505.628 426.019 506.388V510H424.699V506.604C424.699 506.124 424.587 505.752 424.363 505.488C424.139 505.216 423.835 505.08 423.451 505.08C422.995 505.08 422.623 505.252 422.335 505.596C422.047 505.94 421.903 506.424 421.903 507.048V510ZM430.36 510.12C429.464 510.12 428.728 509.828 428.152 509.244C427.576 508.652 427.288 507.904 427.288 507C427.288 506.096 427.572 505.352 428.14 504.768C428.708 504.176 429.452 503.88 430.372 503.88C431.3 503.88 432.048 504.204 432.616 504.852C433.184 505.492 433.436 506.316 433.372 507.324H428.596C428.612 507.788 428.788 508.176 429.124 508.488C429.46 508.8 429.888 508.956 430.408 508.956C431.144 508.956 431.648 508.676 431.92 508.116H433.3C433.116 508.7 432.764 509.18 432.244 509.556C431.724 509.932 431.096 510.12 430.36 510.12ZM430.336 504.984C429.904 504.984 429.532 505.108 429.22 505.356C428.916 505.596 428.72 505.94 428.632 506.388H431.956C431.86 505.924 431.664 505.576 431.368 505.344C431.072 505.104 430.728 504.984 430.336 504.984ZM434.728 510V504H436.048V505.068C436.16 504.732 436.364 504.46 436.66 504.252C436.964 504.044 437.288 503.94 437.632 503.94C437.84 503.94 438.012 503.956 438.148 503.988V505.344C437.956 505.272 437.736 505.236 437.488 505.236C437.088 505.236 436.748 505.4 436.468 505.728C436.188 506.048 436.048 506.496 436.048 507.072V510H434.728Z" fill="#12141D"/>
<path d="M457.54 508.835C457.435 508.941 457.292 509 457.143 509H456.858C456.709 508.998 456.567 508.939 456.46 508.835L452.613 504.98C452.542 504.91 452.502 504.814 452.502 504.714C452.502 504.614 452.542 504.518 452.613 504.448L453.145 503.915C453.215 503.845 453.309 503.805 453.408 503.805C453.507 503.805 453.601 503.845 453.67 503.915L457 507.253L460.33 503.915C460.401 503.844 460.497 503.804 460.597 503.804C460.697 503.804 460.792 503.844 460.863 503.915L461.388 504.448C461.459 504.518 461.499 504.614 461.499 504.714C461.499 504.814 461.459 504.91 461.388 504.98L457.54 508.835Z" fill="black"/>
<rect x="392.5" y="491.5" width="83" height="29" rx="5.5" stroke="#DFDFDF"/>
<path d="M484.074 511.57C483.365 511.57 482.786 511.374 482.338 510.982C481.899 510.581 481.68 510.002 481.68 509.246V505.872H480.224V504.5H481.68V502.554H483.22V504.5H485.222V505.872H483.22V508.994C483.22 509.423 483.313 509.731 483.5 509.918C483.687 510.095 483.985 510.184 484.396 510.184C484.732 510.184 485.007 510.137 485.222 510.044V511.416C484.886 511.519 484.503 511.57 484.074 511.57ZM488.222 511.5H486.682V501H488.222V505.452C488.661 504.724 489.37 504.36 490.35 504.36C491.162 504.36 491.811 504.626 492.296 505.158C492.782 505.69 493.024 506.399 493.024 507.286V511.5H491.484V507.538C491.484 506.978 491.354 506.544 491.092 506.236C490.831 505.919 490.476 505.76 490.028 505.76C489.496 505.76 489.062 505.961 488.726 506.362C488.39 506.763 488.222 507.328 488.222 508.056V511.5ZM498.089 511.64C497.044 511.64 496.185 511.299 495.513 510.618C494.841 509.927 494.505 509.055 494.505 508C494.505 506.945 494.836 506.077 495.499 505.396C496.162 504.705 497.03 504.36 498.103 504.36C499.186 504.36 500.058 504.738 500.721 505.494C501.384 506.241 501.678 507.202 501.603 508.378H496.031C496.05 508.919 496.255 509.372 496.647 509.736C497.039 510.1 497.538 510.282 498.145 510.282C499.004 510.282 499.592 509.955 499.909 509.302H501.519C501.304 509.983 500.894 510.543 500.287 510.982C499.68 511.421 498.948 511.64 498.089 511.64ZM498.061 505.648C497.557 505.648 497.123 505.793 496.759 506.082C496.404 506.362 496.176 506.763 496.073 507.286H499.951C499.839 506.745 499.61 506.339 499.265 506.068C498.92 505.788 498.518 505.648 498.061 505.648ZM503.184 511.5V504.5H504.724V505.452C505.163 504.724 505.872 504.36 506.852 504.36C507.664 504.36 508.313 504.626 508.798 505.158C509.284 505.69 509.526 506.399 509.526 507.286V511.5H507.986V507.538C507.986 506.978 507.856 506.544 507.594 506.236C507.333 505.919 506.978 505.76 506.53 505.76C505.998 505.76 505.564 505.961 505.228 506.362C504.892 506.763 504.724 507.328 504.724 508.056V511.5H503.184ZM517.102 512.732V511.612C516.318 511.528 515.669 511.229 515.156 510.716C514.643 510.193 514.377 509.507 514.358 508.658H515.898C515.991 509.451 516.393 509.932 517.102 510.1V507.132L516.626 506.95C515.133 506.381 514.386 505.424 514.386 504.08C514.386 503.296 514.633 502.671 515.128 502.204C515.632 501.728 516.29 501.462 517.102 501.406V500.328H517.858V501.434C518.567 501.527 519.16 501.817 519.636 502.302C520.112 502.778 520.35 503.361 520.35 504.052H518.81C518.707 503.473 518.39 503.105 517.858 502.946V505.718L518.278 505.886C519.043 506.185 519.622 506.577 520.014 507.062C520.406 507.538 520.602 508.145 520.602 508.882C520.602 509.722 520.355 510.38 519.86 510.856C519.365 511.323 518.698 511.579 517.858 511.626V512.732H517.102ZM519.062 508.924C519.062 508.289 518.661 507.795 517.858 507.44V510.142C518.213 510.095 518.502 509.965 518.726 509.75C518.95 509.526 519.062 509.251 519.062 508.924ZM515.926 504.066C515.926 504.645 516.318 505.097 517.102 505.424V502.89C516.747 502.937 516.463 503.067 516.248 503.282C516.033 503.497 515.926 503.758 515.926 504.066Z" fill="#12141D"/>
<rect x="526.5" y="491.5" width="83" height="29" rx="5.5" fill="white"/>
<path opacity="0.7" d="M542.192 508.704V510H536.552V509.52C536.552 509.216 536.596 508.928 536.684 508.656C536.78 508.376 536.88 508.144 536.984 507.96C537.088 507.776 537.26 507.572 537.5 507.348C537.74 507.116 537.924 506.952 538.052 506.856C538.18 506.752 538.404 506.584 538.724 506.352C539.052 506.12 539.26 505.972 539.348 505.908C539.852 505.54 540.216 505.216 540.44 504.936C540.664 504.656 540.776 504.32 540.776 503.928C540.776 503.536 540.656 503.224 540.416 502.992C540.176 502.752 539.844 502.632 539.42 502.632C538.98 502.632 538.616 502.764 538.328 503.028C538.04 503.284 537.892 503.636 537.884 504.084H536.552C536.552 503.276 536.824 502.616 537.368 502.104C537.92 501.592 538.608 501.336 539.432 501.336C540.192 501.336 540.828 501.56 541.34 502.008C541.852 502.456 542.108 503.084 542.108 503.892C542.108 504.532 541.96 505.072 541.664 505.512C541.376 505.944 540.896 506.4 540.224 506.88C540.12 506.96 539.928 507.096 539.648 507.288C539.368 507.48 539.16 507.628 539.024 507.732C538.896 507.836 538.756 507.98 538.604 508.164C538.452 508.34 538.348 508.52 538.292 508.704H542.192Z" fill="#12141D"/>
<g clip-path="url(#clip2_997_1683)">
<path d="M588 503.75L591 500.75L594 503.75" stroke="black" stroke-width="1.5" stroke-linecap="round" stroke-linejoin="round"/>
<path d="M594 508.25L591 511.25L588 508.25" stroke="black" stroke-width="1.5" stroke-linecap="round" stroke-linejoin="round"/>
</g>
<rect x="526.5" y="491.5" width="83" height="29" rx="5.5" stroke="#DFDFDF"/>
<g opacity="0.4" clip-path="url(#clip3_997_1683)">
<path d="M626.666 502.667H637.333" stroke="black" stroke-width="1.5" stroke-linecap="round" stroke-linejoin="round"/>
<path d="M630.666 505.333V509.333" stroke="black" stroke-width="1.5" stroke-linecap="round" stroke-linejoin="round"/>
<path d="M633.334 505.333V509.333" stroke="black" stroke-width="1.5" stroke-linecap="round" stroke-linejoin="round"/>
<path d="M627.334 502.667L628.001 510.667C628.001 511.02 628.141 511.359 628.391 511.609C628.641 511.859 628.98 512 629.334 512H634.667C635.021 512 635.36 511.859 635.61 511.609C635.86 511.359 636.001 511.02 636.001 510.667L636.667 502.667" stroke="black" stroke-width="1.5" stroke-linecap="round" stroke-linejoin="round"/>
<path d="M630 502.667V500.667C630 500.49 630.07 500.32 630.195 500.195C630.32 500.07 630.49 500 630.667 500H633.333C633.51 500 633.68 500.07 633.805 500.195C633.93 500.32 634 500.49 634 500.667V502.667" stroke="black" stroke-width="1.5" stroke-linecap="round" stroke-linejoin="round"/>
</g>
<path d="M205.918 553.5L203.734 548.222L201.55 553.5H199.646L197.252 543.56H199.408L200.92 550.168L203.734 543.392L206.548 550.168L208.06 543.56H210.216L207.822 553.5H205.918ZM212.329 545.352C212.002 545.352 211.718 545.235 211.475 545.002C211.232 544.759 211.111 544.47 211.111 544.134C211.111 543.798 211.232 543.513 211.475 543.28C211.718 543.037 212.002 542.916 212.329 542.916C212.674 542.916 212.964 543.037 213.197 543.28C213.44 543.513 213.561 543.798 213.561 544.134C213.561 544.47 213.44 544.759 213.197 545.002C212.964 545.235 212.674 545.352 212.329 545.352ZM211.377 553.5V546.5H213.295V553.5H211.377ZM218.525 553.584C217.741 553.584 217.097 553.369 216.593 552.94C216.098 552.501 215.851 551.871 215.851 551.05V548.18H214.437V546.5H215.851V544.554H217.769V546.5H219.743V548.18H217.769V550.672C217.769 551.101 217.862 551.409 218.049 551.596C218.236 551.773 218.539 551.862 218.959 551.862C219.258 551.862 219.519 551.82 219.743 551.736V553.43C219.407 553.533 219.001 553.584 218.525 553.584ZM223.03 553.5H221.111V543H223.03V547.298C223.459 546.663 224.126 546.346 225.032 546.346C225.872 546.346 226.53 546.626 227.006 547.186C227.491 547.737 227.734 548.474 227.734 549.398V553.5H225.816V549.72C225.816 549.207 225.708 548.81 225.494 548.53C225.279 548.241 224.976 548.096 224.584 548.096C224.117 548.096 223.739 548.264 223.45 548.6C223.17 548.936 223.03 549.431 223.03 550.084V553.5ZM230.444 545.352C230.118 545.352 229.833 545.235 229.59 545.002C229.348 544.759 229.226 544.47 229.226 544.134C229.226 543.798 229.348 543.513 229.59 543.28C229.833 543.037 230.118 542.916 230.444 542.916C230.79 542.916 231.079 543.037 231.312 543.28C231.555 543.513 231.676 543.798 231.676 544.134C231.676 544.47 231.555 544.759 231.312 545.002C231.079 545.235 230.79 545.352 230.444 545.352ZM229.492 553.5V546.5H231.41V553.5H229.492ZM233.252 553.5V546.5H235.17V547.298C235.599 546.663 236.267 546.346 237.172 546.346C238.012 546.346 238.67 546.626 239.146 547.186C239.631 547.737 239.874 548.474 239.874 549.398V553.5H237.956V549.72C237.956 549.207 237.849 548.81 237.634 548.53C237.419 548.241 237.116 548.096 236.724 548.096C236.257 548.096 235.879 548.264 235.59 548.6C235.31 548.936 235.17 549.431 235.17 550.084V553.5H233.252Z" fill="#12141D"/>
<rect x="251.5" y="533.5" width="99" height="29" rx="5.5" fill="white"/>
<path opacity="0.7" d="M267.192 550.704V552H261.552V551.52C261.552 551.216 261.596 550.928 261.684 550.656C261.78 550.376 261.88 550.144 261.984 549.96C262.088 549.776 262.26 549.572 262.5 549.348C262.74 549.116 262.924 548.952 263.052 548.856C263.18 548.752 263.404 548.584 263.724 548.352C264.052 548.12 264.26 547.972 264.348 547.908C264.852 547.54 265.216 547.216 265.44 546.936C265.664 546.656 265.776 546.32 265.776 545.928C265.776 545.536 265.656 545.224 265.416 544.992C265.176 544.752 264.844 544.632 264.42 544.632C263.98 544.632 263.616 544.764 263.328 545.028C263.04 545.284 262.892 545.636 262.884 546.084H261.552C261.552 545.276 261.824 544.616 262.368 544.104C262.92 543.592 263.608 543.336 264.432 543.336C265.192 543.336 265.828 543.56 266.34 544.008C266.852 544.456 267.108 545.084 267.108 545.892C267.108 546.532 266.96 547.072 266.664 547.512C266.376 547.944 265.896 548.4 265.224 548.88C265.12 548.96 264.928 549.096 264.648 549.288C264.368 549.48 264.16 549.628 264.024 549.732C263.896 549.836 263.756 549.98 263.604 550.164C263.452 550.34 263.348 550.52 263.292 550.704H267.192ZM272.288 552V549.864H267.884V548.796L272.432 543.48H273.608V548.64H274.748V549.864H273.608V552H272.288ZM269.54 548.64H272.288V545.448L269.54 548.64ZM280.224 552H278.904V543H280.224V546.816C280.6 546.192 281.208 545.88 282.048 545.88C282.744 545.88 283.3 546.108 283.716 546.564C284.132 547.02 284.34 547.628 284.34 548.388V552H283.02V548.604C283.02 548.124 282.908 547.752 282.684 547.488C282.46 547.216 282.156 547.08 281.772 547.08C281.316 547.08 280.944 547.252 280.656 547.596C280.368 547.94 280.224 548.424 280.224 549.048V552ZM290.973 551.22C290.373 551.82 289.629 552.12 288.741 552.12C287.853 552.12 287.105 551.82 286.497 551.22C285.897 550.612 285.597 549.872 285.597 549C285.597 548.128 285.897 547.392 286.497 546.792C287.105 546.184 287.853 545.88 288.741 545.88C289.629 545.88 290.373 546.184 290.973 546.792C291.581 547.392 291.885 548.128 291.885 549C291.885 549.872 291.581 550.612 290.973 551.22ZM288.741 550.896C289.261 550.896 289.689 550.716 290.025 550.356C290.369 549.988 290.541 549.536 290.541 549C290.541 548.464 290.369 548.016 290.025 547.656C289.689 547.288 289.261 547.104 288.741 547.104C288.213 547.104 287.777 547.288 287.433 547.656C287.097 548.016 286.929 548.464 286.929 549C286.929 549.536 287.097 549.988 287.433 550.356C287.777 550.716 288.213 550.896 288.741 550.896ZM295.36 552.12C294.672 552.12 294.128 551.892 293.728 551.436C293.328 550.972 293.128 550.356 293.128 549.588V546H294.448V549.372C294.448 549.852 294.552 550.232 294.76 550.512C294.968 550.784 295.264 550.92 295.648 550.92C296.096 550.92 296.452 550.752 296.716 550.416C296.98 550.072 297.112 549.584 297.112 548.952V546H298.432V552H297.112V551.184C296.76 551.808 296.176 552.12 295.36 552.12ZM300.208 552V546H301.528V547.068C301.64 546.732 301.844 546.46 302.14 546.252C302.444 546.044 302.768 545.94 303.112 545.94C303.32 545.94 303.492 545.956 303.628 545.988V547.344C303.436 547.272 303.216 547.236 302.968 547.236C302.568 547.236 302.228 547.4 301.948 547.728C301.668 548.048 301.528 548.496 301.528 549.072V552H300.208ZM306.773 552.12C306.061 552.12 305.461 551.944 304.973 551.592C304.493 551.24 304.237 550.768 304.205 550.176H305.573C305.669 550.768 306.081 551.064 306.809 551.064C307.105 551.064 307.341 551.012 307.517 550.908C307.693 550.796 307.781 550.636 307.781 550.428C307.781 550.22 307.713 550.056 307.577 549.936C307.441 549.816 307.213 549.716 306.893 549.636L305.909 549.372C304.885 549.1 304.373 548.496 304.373 547.56C304.373 547.056 304.577 546.652 304.985 546.348C305.393 546.036 305.933 545.88 306.605 545.88C307.253 545.88 307.785 546.044 308.201 546.372C308.617 546.7 308.849 547.136 308.897 547.68H307.577C307.449 547.184 307.121 546.936 306.593 546.936C306.329 546.936 306.117 546.992 305.957 547.104C305.797 547.208 305.717 547.356 305.717 547.548C305.717 547.892 305.985 548.132 306.521 548.268L307.529 548.532C308.593 548.804 309.125 549.408 309.125 550.344C309.125 550.912 308.905 551.352 308.465 551.664C308.033 551.968 307.469 552.12 306.773 552.12Z" fill="#12141D"/>
<path d="M332.54 550.835C332.435 550.941 332.292 551 332.143 551H331.858C331.709 550.998 331.567 550.939 331.46 550.835L327.613 546.98C327.542 546.91 327.502 546.814 327.502 546.714C327.502 546.614 327.542 546.518 327.613 546.448L328.145 545.915C328.215 545.845 328.309 545.805 328.408 545.805C328.507 545.805 328.601 545.845 328.67 545.915L332 549.253L335.33 545.915C335.401 545.844 335.497 545.804 335.597 545.804C335.697 545.804 335.792 545.844 335.863 545.915L336.388 546.448C336.459 546.518 336.499 546.614 336.499 546.714C336.499 546.814 336.459 546.91 336.388 546.98L332.54 550.835Z" fill="black"/>
<rect x="251.5" y="533.5" width="99" height="29" rx="5.5" stroke="#DFDFDF"/>
<path d="M199.94 595.5V587.492H197.294V585.56H204.658V587.492H201.984V595.5H199.94ZM207.676 595.5H205.758V585H207.676V589.298C208.105 588.663 208.773 588.346 209.678 588.346C210.518 588.346 211.176 588.626 211.652 589.186C212.137 589.737 212.38 590.474 212.38 591.398V595.5H210.462V591.72C210.462 591.207 210.355 590.81 210.14 590.53C209.925 590.241 209.622 590.096 209.23 590.096C208.763 590.096 208.385 590.264 208.096 590.6C207.816 590.936 207.676 591.431 207.676 592.084V595.5ZM217.359 595.654C216.286 595.654 215.404 595.309 214.713 594.618C214.032 593.927 213.691 593.05 213.691 591.986C213.691 590.941 214.036 590.073 214.727 589.382C215.427 588.691 216.309 588.346 217.373 588.346C218.446 588.346 219.338 588.715 220.047 589.452C220.756 590.18 221.083 591.179 221.027 592.448H215.567C215.604 592.887 215.786 593.255 216.113 593.554C216.44 593.843 216.888 593.988 217.457 593.988C217.802 593.988 218.106 593.923 218.367 593.792C218.638 593.652 218.829 593.461 218.941 593.218H220.943C220.738 593.937 220.308 594.525 219.655 594.982C219.002 595.43 218.236 595.654 217.359 595.654ZM217.317 589.9C216.878 589.9 216.51 590.017 216.211 590.25C215.922 590.474 215.73 590.787 215.637 591.188H218.927C218.824 590.749 218.619 590.427 218.311 590.222C218.012 590.007 217.681 589.9 217.317 589.9ZM222.424 595.5V588.5H224.342V589.298C224.771 588.663 225.439 588.346 226.344 588.346C227.184 588.346 227.842 588.626 228.318 589.186C228.803 589.737 229.046 590.474 229.046 591.398V595.5H227.128V591.72C227.128 591.207 227.021 590.81 226.806 590.53C226.591 590.241 226.288 590.096 225.896 590.096C225.429 590.096 225.051 590.264 224.762 590.6C224.482 590.936 224.342 591.431 224.342 592.084V595.5H222.424Z" fill="#12141D"/>
<rect x="251.5" y="575.5" width="119" height="29" rx="5.5" fill="white"/>
<path opacity="0.7" d="M262.044 594V585.48H267.168V586.824H263.448V589.008H266.448V590.352H263.448V592.656H267.168V594H262.044ZM272.646 594L271.026 591.972L269.406 594H267.798L270.186 591.012L267.93 588H269.502L271.014 590.016L272.526 588H274.11L271.854 591.012L274.242 594H272.646ZM277.608 594.12C276.704 594.12 275.952 593.82 275.352 593.22C274.76 592.612 274.464 591.872 274.464 591C274.464 590.128 274.76 589.392 275.352 588.792C275.952 588.184 276.704 587.88 277.608 587.88C278.384 587.88 279.044 588.096 279.588 588.528C280.14 588.96 280.496 589.516 280.656 590.196H279.264C279.144 589.86 278.936 589.592 278.64 589.392C278.352 589.184 278.008 589.08 277.608 589.08C277.08 589.08 276.648 589.26 276.312 589.62C275.976 589.98 275.808 590.44 275.808 591C275.808 591.56 275.976 592.02 276.312 592.38C276.648 592.74 277.08 592.92 277.608 592.92C278.008 592.92 278.352 592.82 278.64 592.62C278.936 592.412 279.144 592.14 279.264 591.804H280.656C280.496 592.484 280.14 593.04 279.588 593.472C279.044 593.904 278.384 594.12 277.608 594.12ZM281.904 594V585H283.224V594H281.904ZM287.145 594.12C286.457 594.12 285.913 593.892 285.513 593.436C285.113 592.972 284.913 592.356 284.913 591.588V588H286.233V591.372C286.233 591.852 286.337 592.232 286.545 592.512C286.753 592.784 287.049 592.92 287.433 592.92C287.881 592.92 288.237 592.752 288.501 592.416C288.765 592.072 288.897 591.584 288.897 590.952V588H290.217V594H288.897V593.184C288.545 593.808 287.961 594.12 287.145 594.12ZM294.453 594.12C293.637 594.12 292.949 593.816 292.389 593.208C291.837 592.6 291.561 591.864 291.561 591C291.561 590.136 291.837 589.4 292.389 588.792C292.949 588.184 293.637 587.88 294.453 587.88C294.861 587.88 295.237 587.972 295.581 588.156C295.925 588.332 296.189 588.548 296.373 588.804V585H297.693V594H296.373V593.196C296.189 593.452 295.925 593.672 295.581 593.856C295.237 594.032 294.861 594.12 294.453 594.12ZM293.409 592.368C293.745 592.736 294.173 592.92 294.693 592.92C295.213 592.92 295.641 592.736 295.977 592.368C296.313 592 296.481 591.544 296.481 591C296.481 590.456 296.313 590 295.977 589.632C295.641 589.264 295.213 589.08 294.693 589.08C294.173 589.08 293.745 589.264 293.409 589.632C293.073 590 292.905 590.456 292.905 591C292.905 591.544 293.073 592 293.409 592.368ZM302.134 594.12C301.238 594.12 300.502 593.828 299.926 593.244C299.35 592.652 299.062 591.904 299.062 591C299.062 590.096 299.346 589.352 299.914 588.768C300.482 588.176 301.226 587.88 302.146 587.88C303.074 587.88 303.822 588.204 304.39 588.852C304.958 589.492 305.21 590.316 305.146 591.324H300.37C300.386 591.788 300.562 592.176 300.898 592.488C301.234 592.8 301.662 592.956 302.182 592.956C302.918 592.956 303.422 592.676 303.694 592.116H305.074C304.89 592.7 304.538 593.18 304.018 593.556C303.498 593.932 302.87 594.12 302.134 594.12ZM302.11 588.984C301.678 588.984 301.306 589.108 300.994 589.356C300.69 589.596 300.494 589.94 300.406 590.388H303.73C303.634 589.924 303.438 589.576 303.142 589.344C302.846 589.104 302.502 588.984 302.11 588.984ZM308.918 594V592.956L312.062 589.2H308.966V588H313.766V589.056L310.622 592.8H313.862V594H308.918ZM320.059 593.22C319.459 593.82 318.715 594.12 317.827 594.12C316.939 594.12 316.191 593.82 315.583 593.22C314.983 592.612 314.683 591.872 314.683 591C314.683 590.128 314.983 589.392 315.583 588.792C316.191 588.184 316.939 587.88 317.827 587.88C318.715 587.88 319.459 588.184 320.059 588.792C320.667 589.392 320.971 590.128 320.971 591C320.971 591.872 320.667 592.612 320.059 593.22ZM317.827 592.896C318.347 592.896 318.775 592.716 319.111 592.356C319.455 591.988 319.627 591.536 319.627 591C319.627 590.464 319.455 590.016 319.111 589.656C318.775 589.288 318.347 589.104 317.827 589.104C317.299 589.104 316.863 589.288 316.519 589.656C316.183 590.016 316.015 590.464 316.015 591C316.015 591.536 316.183 591.988 316.519 592.356C316.863 592.716 317.299 592.896 317.827 592.896ZM322.298 594V588H323.618V588.816C323.994 588.192 324.602 587.88 325.442 587.88C326.138 587.88 326.694 588.108 327.11 588.564C327.526 589.02 327.734 589.628 327.734 590.388V594H326.414V590.604C326.414 590.124 326.302 589.752 326.078 589.488C325.854 589.216 325.55 589.08 325.166 589.08C324.71 589.08 324.338 589.252 324.05 589.596C323.762 589.94 323.618 590.424 323.618 591.048V594H322.298ZM332.075 594.12C331.179 594.12 330.443 593.828 329.867 593.244C329.291 592.652 329.003 591.904 329.003 591C329.003 590.096 329.287 589.352 329.855 588.768C330.423 588.176 331.167 587.88 332.087 587.88C333.015 587.88 333.763 588.204 334.331 588.852C334.899 589.492 335.151 590.316 335.087 591.324H330.311C330.327 591.788 330.503 592.176 330.839 592.488C331.175 592.8 331.603 592.956 332.123 592.956C332.859 592.956 333.363 592.676 333.635 592.116H335.015C334.831 592.7 334.479 593.18 333.959 593.556C333.439 593.932 332.811 594.12 332.075 594.12ZM332.051 588.984C331.619 588.984 331.247 589.108 330.935 589.356C330.631 589.596 330.435 589.94 330.347 590.388H333.671C333.575 589.924 333.379 589.576 333.083 589.344C332.787 589.104 332.443 588.984 332.051 588.984Z" fill="#12141D"/>
<path d="M352.54 592.835C352.435 592.941 352.292 593 352.143 593H351.858C351.709 592.998 351.567 592.939 351.46 592.835L347.613 588.98C347.542 588.91 347.502 588.814 347.502 588.714C347.502 588.614 347.542 588.518 347.613 588.448L348.145 587.915C348.215 587.845 348.309 587.805 348.408 587.805C348.507 587.805 348.601 587.845 348.67 587.915L352 591.253L355.33 587.915C355.401 587.844 355.497 587.804 355.597 587.804C355.697 587.804 355.792 587.844 355.863 587.915L356.388 588.448C356.459 588.518 356.499 588.614 356.499 588.714C356.499 588.814 356.459 588.91 356.388 588.98L352.54 592.835Z" fill="black"/>
<rect x="251.5" y="575.5" width="119" height="29" rx="5.5" stroke="#DFDFDF"/>
</g>
<rect x="555" y="62" width="26" height="26" rx="4" fill="#E7F7F2"/>
<rect x="509" y="62" width="26" height="26" rx="4" fill="#0C6A4E"/>
<rect x="463" y="62" width="26" height="26" rx="4" fill="#E7F7F2"/>
<path d="M140.24 82.24C138.12 82.24 136.353 81.54 134.94 80.14C133.54 78.7267 132.84 76.98 132.84 74.9C132.84 72.82 133.54 71.08 134.94 69.68C136.353 68.2667 138.12 67.56 140.24 67.56C141.92 67.56 143.387 68.04 144.64 69C145.907 69.9467 146.72 71.1333 147.08 72.56H144.56C144.253 71.7467 143.707 71.0867 142.92 70.58C142.133 70.0733 141.24 69.82 140.24 69.82C138.773 69.82 137.567 70.3067 136.62 71.28C135.673 72.2533 135.2 73.46 135.2 74.9C135.2 76.34 135.673 77.5467 136.62 78.52C137.567 79.4933 138.773 79.98 140.24 79.98C141.24 79.98 142.133 79.7267 142.92 79.22C143.707 78.7133 144.253 78.0533 144.56 77.24H147.08C146.72 78.6667 145.907 79.86 144.64 80.82C143.387 81.7667 141.92 82.24 140.24 82.24ZM153.283 82.2C151.923 82.2 150.776 81.6933 149.843 80.68C148.923 79.6667 148.463 78.44 148.463 77C148.463 75.56 148.923 74.3333 149.843 73.32C150.776 72.3067 151.923 71.8 153.283 71.8C153.963 71.8 154.59 71.9533 155.163 72.26C155.736 72.5533 156.176 72.9133 156.483 73.34V72H158.683V82H156.483V80.66C156.176 81.0867 155.736 81.4533 155.163 81.76C154.59 82.0533 153.963 82.2 153.283 82.2ZM151.543 79.28C152.103 79.8933 152.816 80.2 153.683 80.2C154.55 80.2 155.263 79.8933 155.823 79.28C156.383 78.6667 156.663 77.9067 156.663 77C156.663 76.0933 156.383 75.3333 155.823 74.72C155.263 74.1067 154.55 73.8 153.683 73.8C152.816 73.8 152.103 74.1067 151.543 74.72C150.983 75.3333 150.703 76.0933 150.703 77C150.703 77.9067 150.983 78.6667 151.543 79.28ZM174.404 82V76.38C174.404 75.5667 174.25 74.9333 173.944 74.48C173.65 74.0267 173.21 73.8 172.624 73.8C171.917 73.8 171.35 74.0733 170.924 74.62C170.497 75.1667 170.27 75.9333 170.244 76.92V82H168.044V76.38C168.044 75.5667 167.89 74.9333 167.584 74.48C167.29 74.0267 166.85 73.8 166.264 73.8C165.53 73.8 164.944 74.0867 164.504 74.66C164.077 75.2333 163.864 76.04 163.864 77.08V82H161.664V72H163.864V73.36C164.477 72.32 165.424 71.8 166.704 71.8C168.21 71.8 169.244 72.46 169.804 73.78C170.084 73.1533 170.51 72.6667 171.084 72.32C171.67 71.9733 172.31 71.8 173.004 71.8C174.124 71.8 175.004 72.18 175.644 72.94C176.284 73.7 176.604 74.7267 176.604 76.02V82H174.404ZM181.618 86.18H179.418V72H181.618V73.34C181.924 72.9133 182.364 72.5533 182.938 72.26C183.524 71.9533 184.158 71.8 184.838 71.8C186.198 71.8 187.338 72.3067 188.258 73.32C189.191 74.3333 189.658 75.56 189.658 77C189.658 78.44 189.191 79.6667 188.258 80.68C187.338 81.6933 186.198 82.2 184.838 82.2C184.158 82.2 183.524 82.0533 182.938 81.76C182.364 81.4533 181.924 81.0867 181.618 80.66V86.18ZM184.438 80.2C185.304 80.2 186.018 79.8933 186.578 79.28C187.138 78.6667 187.418 77.9067 187.418 77C187.418 76.0933 187.138 75.3333 186.578 74.72C186.018 74.1067 185.304 73.8 184.438 73.8C183.558 73.8 182.838 74.1067 182.278 74.72C181.718 75.3333 181.438 76.0933 181.438 77C181.438 77.9067 181.718 78.6667 182.278 79.28C182.838 79.8933 183.558 80.2 184.438 80.2ZM195.998 82.2C194.638 82.2 193.491 81.6933 192.558 80.68C191.638 79.6667 191.178 78.44 191.178 77C191.178 75.56 191.638 74.3333 192.558 73.32C193.491 72.3067 194.638 71.8 195.998 71.8C196.678 71.8 197.305 71.9533 197.878 72.26C198.451 72.5533 198.891 72.9133 199.198 73.34V72H201.398V82H199.198V80.66C198.891 81.0867 198.451 81.4533 197.878 81.76C197.305 82.0533 196.678 82.2 195.998 82.2ZM194.258 79.28C194.818 79.8933 195.531 80.2 196.398 80.2C197.265 80.2 197.978 79.8933 198.538 79.28C199.098 78.6667 199.378 77.9067 199.378 77C199.378 76.0933 199.098 75.3333 198.538 74.72C197.978 74.1067 197.265 73.8 196.398 73.8C195.531 73.8 194.818 74.1067 194.258 74.72C193.698 75.3333 193.418 76.0933 193.418 77C193.418 77.9067 193.698 78.6667 194.258 79.28ZM205.478 69.82C205.078 69.82 204.732 69.68 204.438 69.4C204.145 69.1067 203.998 68.7533 203.998 68.34C203.998 67.94 204.145 67.6 204.438 67.32C204.732 67.0267 205.078 66.88 205.478 66.88C205.892 66.88 206.238 67.0267 206.518 67.32C206.798 67.6 206.938 67.94 206.938 68.34C206.938 68.7533 206.798 69.1067 206.518 69.4C206.238 69.68 205.892 69.82 205.478 69.82ZM204.378 82V72H206.578V82H204.378ZM214.055 86.38C212.695 86.38 211.575 86.0467 210.695 85.38C209.828 84.7133 209.328 83.8467 209.195 82.78H211.355C211.741 83.9267 212.661 84.5 214.115 84.5C214.901 84.5 215.548 84.24 216.055 83.72C216.575 83.2133 216.835 82.4933 216.835 81.56V80.38C216.515 80.8333 216.068 81.2067 215.495 81.5C214.921 81.7933 214.301 81.94 213.635 81.94C212.288 81.94 211.148 81.4533 210.215 80.48C209.295 79.4933 208.835 78.2867 208.835 76.86C208.835 75.4467 209.295 74.2533 210.215 73.28C211.148 72.2933 212.288 71.8 213.635 71.8C214.301 71.8 214.921 71.9467 215.495 72.24C216.068 72.52 216.515 72.8867 216.835 73.34V72H219.035V81.38C219.035 83.0333 218.561 84.28 217.615 85.12C216.681 85.96 215.495 86.38 214.055 86.38ZM211.915 79.06C212.488 79.6333 213.195 79.92 214.035 79.92C214.875 79.92 215.581 79.6333 216.155 79.06C216.728 78.4733 217.015 77.74 217.015 76.86C217.015 75.98 216.728 75.2533 216.155 74.68C215.581 74.0933 214.875 73.8 214.035 73.8C213.195 73.8 212.488 74.0933 211.915 74.68C211.341 75.2533 211.055 75.98 211.055 76.86C211.055 77.74 211.341 78.4733 211.915 79.06ZM221.996 82V72H224.196V73.36C224.822 72.32 225.836 71.8 227.236 71.8C228.396 71.8 229.322 72.18 230.016 72.94C230.709 73.7 231.056 74.7133 231.056 75.98V82H228.856V76.34C228.856 75.54 228.669 74.92 228.296 74.48C227.922 74.0267 227.416 73.8 226.776 73.8C226.016 73.8 225.396 74.0867 224.916 74.66C224.436 75.2333 224.196 76.04 224.196 77.08V82H221.996ZM240.778 86.18H238.578V72H240.778V73.34C241.084 72.9133 241.524 72.5533 242.098 72.26C242.684 71.9533 243.318 71.8 243.998 71.8C245.358 71.8 246.498 72.3067 247.418 73.32C248.351 74.3333 248.818 75.56 248.818 77C248.818 78.44 248.351 79.6667 247.418 80.68C246.498 81.6933 245.358 82.2 243.998 82.2C243.318 82.2 242.684 82.0533 242.098 81.76C241.524 81.4533 241.084 81.0867 240.778 80.66V86.18ZM243.598 80.2C244.464 80.2 245.178 79.8933 245.738 79.28C246.298 78.6667 246.578 77.9067 246.578 77C246.578 76.0933 246.298 75.3333 245.738 74.72C245.178 74.1067 244.464 73.8 243.598 73.8C242.718 73.8 241.998 74.1067 241.438 74.72C240.878 75.3333 240.598 76.0933 240.598 77C240.598 77.9067 240.878 78.6667 241.438 79.28C241.998 79.8933 242.718 80.2 243.598 80.2ZM255.478 82.2C253.985 82.2 252.758 81.7133 251.798 80.74C250.838 79.7533 250.358 78.5067 250.358 77C250.358 75.4933 250.831 74.2533 251.778 73.28C252.725 72.2933 253.965 71.8 255.498 71.8C257.045 71.8 258.291 72.34 259.238 73.42C260.185 74.4867 260.605 75.86 260.498 77.54H252.538C252.565 78.3133 252.858 78.96 253.418 79.48C253.978 80 254.691 80.26 255.558 80.26C256.785 80.26 257.625 79.7933 258.078 78.86H260.378C260.071 79.8333 259.485 80.6333 258.618 81.26C257.751 81.8867 256.705 82.2 255.478 82.2ZM255.438 73.64C254.718 73.64 254.098 73.8467 253.578 74.26C253.071 74.66 252.745 75.2333 252.598 75.98H258.138C257.978 75.2067 257.651 74.6267 257.158 74.24C256.665 73.84 256.091 73.64 255.438 73.64ZM262.757 82V72H264.957V73.78C265.144 73.22 265.484 72.7667 265.977 72.42C266.484 72.0733 267.024 71.9 267.597 71.9C267.944 71.9 268.231 71.9267 268.457 71.98V74.24C268.137 74.12 267.771 74.06 267.357 74.06C266.691 74.06 266.124 74.3333 265.657 74.88C265.191 75.4133 264.957 76.16 264.957 77.12V82H262.757ZM271.295 82V73.96H269.215V72H271.295V70.32C271.295 69.24 271.615 68.4 272.255 67.8C272.895 67.1867 273.715 66.88 274.715 66.88C275.328 66.88 275.875 66.96 276.355 67.12V69.08C276.048 68.9467 275.655 68.88 275.175 68.88C274.588 68.88 274.162 69.0133 273.895 69.28C273.628 69.5333 273.495 69.9667 273.495 70.58V72H276.355V73.96H273.495V82H271.295ZM286.095 80.7C285.095 81.7 283.855 82.2 282.375 82.2C280.895 82.2 279.648 81.7 278.635 80.7C277.635 79.6867 277.135 78.4533 277.135 77C277.135 75.5467 277.635 74.32 278.635 73.32C279.648 72.3067 280.895 71.8 282.375 71.8C283.855 71.8 285.095 72.3067 286.095 73.32C287.108 74.32 287.615 75.5467 287.615 77C287.615 78.4533 287.108 79.6867 286.095 80.7ZM282.375 80.16C283.242 80.16 283.955 79.86 284.515 79.26C285.088 78.6467 285.375 77.8933 285.375 77C285.375 76.1067 285.088 75.36 284.515 74.76C283.955 74.1467 283.242 73.84 282.375 73.84C281.495 73.84 280.768 74.1467 280.195 74.76C279.635 75.36 279.355 76.1067 279.355 77C279.355 77.8933 279.635 78.6467 280.195 79.26C280.768 79.86 281.495 80.16 282.375 80.16ZM289.828 82V72H292.028V73.78C292.214 73.22 292.554 72.7667 293.048 72.42C293.554 72.0733 294.094 71.9 294.668 71.9C295.014 71.9 295.301 71.9267 295.528 71.98V74.24C295.208 74.12 294.841 74.06 294.428 74.06C293.761 74.06 293.194 74.3333 292.728 74.88C292.261 75.4133 292.028 76.16 292.028 77.12V82H289.828ZM310.165 82V76.38C310.165 75.5667 310.012 74.9333 309.705 74.48C309.412 74.0267 308.972 73.8 308.385 73.8C307.679 73.8 307.112 74.0733 306.685 74.62C306.259 75.1667 306.032 75.9333 306.005 76.92V82H303.805V76.38C303.805 75.5667 303.652 74.9333 303.345 74.48C303.052 74.0267 302.612 73.8 302.025 73.8C301.292 73.8 300.705 74.0867 300.265 74.66C299.839 75.2333 299.625 76.04 299.625 77.08V82H297.425V72H299.625V73.36C300.239 72.32 301.185 71.8 302.465 71.8C303.972 71.8 305.005 72.46 305.565 73.78C305.845 73.1533 306.272 72.6667 306.845 72.32C307.432 71.9733 308.072 71.8 308.765 71.8C309.885 71.8 310.765 72.18 311.405 72.94C312.045 73.7 312.365 74.7267 312.365 76.02V82H310.165ZM319.279 82.2C317.919 82.2 316.773 81.6933 315.839 80.68C314.919 79.6667 314.459 78.44 314.459 77C314.459 75.56 314.919 74.3333 315.839 73.32C316.773 72.3067 317.919 71.8 319.279 71.8C319.959 71.8 320.586 71.9533 321.159 72.26C321.733 72.5533 322.173 72.9133 322.479 73.34V72H324.679V82H322.479V80.66C322.173 81.0867 321.733 81.4533 321.159 81.76C320.586 82.0533 319.959 82.2 319.279 82.2ZM317.539 79.28C318.099 79.8933 318.813 80.2 319.679 80.2C320.546 80.2 321.259 79.8933 321.819 79.28C322.379 78.6667 322.659 77.9067 322.659 77C322.659 76.0933 322.379 75.3333 321.819 74.72C321.259 74.1067 320.546 73.8 319.679 73.8C318.813 73.8 318.099 74.1067 317.539 74.72C316.979 75.3333 316.699 76.0933 316.699 77C316.699 77.9067 316.979 78.6667 317.539 79.28ZM327.66 82V72H329.86V73.36C330.486 72.32 331.5 71.8 332.9 71.8C334.06 71.8 334.986 72.18 335.68 72.94C336.373 73.7 336.72 74.7133 336.72 75.98V82H334.52V76.34C334.52 75.54 334.333 74.92 333.96 74.48C333.586 74.0267 333.08 73.8 332.44 73.8C331.68 73.8 331.06 74.0867 330.58 74.66C330.1 75.2333 329.86 76.04 329.86 77.08V82H327.66ZM344.055 82.2C342.548 82.2 341.295 81.7 340.295 80.7C339.308 79.6867 338.815 78.4533 338.815 77C338.815 75.5467 339.308 74.32 340.295 73.32C341.295 72.3067 342.548 71.8 344.055 71.8C345.348 71.8 346.448 72.16 347.355 72.88C348.275 73.6 348.868 74.5267 349.135 75.66H346.815C346.615 75.1 346.268 74.6533 345.775 74.32C345.295 73.9733 344.721 73.8 344.055 73.8C343.175 73.8 342.455 74.1 341.895 74.7C341.335 75.3 341.055 76.0667 341.055 77C341.055 77.9333 341.335 78.7 341.895 79.3C342.455 79.9 343.175 80.2 344.055 80.2C344.721 80.2 345.295 80.0333 345.775 79.7C346.268 79.3533 346.615 78.9 346.815 78.34H349.135C348.868 79.4733 348.275 80.4 347.355 81.12C346.448 81.84 345.348 82.2 344.055 82.2ZM355.634 82.2C354.141 82.2 352.914 81.7133 351.954 80.74C350.994 79.7533 350.514 78.5067 350.514 77C350.514 75.4933 350.988 74.2533 351.934 73.28C352.881 72.2933 354.121 71.8 355.654 71.8C357.201 71.8 358.448 72.34 359.394 73.42C360.341 74.4867 360.761 75.86 360.654 77.54H352.694C352.721 78.3133 353.014 78.96 353.574 79.48C354.134 80 354.848 80.26 355.714 80.26C356.941 80.26 357.781 79.7933 358.234 78.86H360.534C360.228 79.8333 359.641 80.6333 358.774 81.26C357.908 81.8867 356.861 82.2 355.634 82.2ZM355.594 73.64C354.874 73.64 354.254 73.8467 353.734 74.26C353.228 74.66 352.901 75.2333 352.754 75.98H358.294C358.134 75.2067 357.808 74.6267 357.314 74.24C356.821 73.84 356.248 73.64 355.594 73.64Z" fill="black"/>
<defs>
<filter id="filter0_d_997_1683" x="60" y="0" width="593" height="530" filterUnits="userSpaceOnUse" color-interpolation-filters="sRGB">
<feFlood flood-opacity="0" result="BackgroundImageFix"/>
<feColorMatrix in="SourceAlpha" type="matrix" values="0 0 0 0 0 0 0 0 0 0 0 0 0 0 0 0 0 0 127 0" result="hardAlpha"/>
<feOffset dy="10"/>
<feGaussianBlur stdDeviation="20"/>
<feComposite in2="hardAlpha" operator="out"/>
<feColorMatrix type="matrix" values="0 0 0 0 0 0 0 0 0 0 0 0 0 0 0 0 0 0 0.08 0"/>
<feBlend mode="normal" in2="BackgroundImageFix" result="effect1_dropShadow_997_1683"/>
<feBlend mode="normal" in="SourceGraphic" in2="effect1_dropShadow_997_1683" result="shape"/>
</filter>
<filter id="filter1_d_997_1683" x="0" y="390" width="180" height="180" filterUnits="userSpaceOnUse" color-interpolation-filters="sRGB">
<feFlood flood-opacity="0" result="BackgroundImageFix"/>
<feColorMatrix in="SourceAlpha" type="matrix" values="0 0 0 0 0 0 0 0 0 0 0 0 0 0 0 0 0 0 127 0" result="hardAlpha"/>
<feOffset dy="10"/>
<feGaussianBlur stdDeviation="25"/>
<feComposite in2="hardAlpha" operator="out"/>
<feColorMatrix type="matrix" values="0 0 0 0 0 0 0 0 0 0 0 0 0 0 0 0 0 0 0.08 0"/>
<feBlend mode="normal" in2="BackgroundImageFix" result="effect1_dropShadow_997_1683"/>
<feBlend mode="normal" in="SourceGraphic" in2="effect1_dropShadow_997_1683" result="shape"/>
</filter>
<filter id="filter2_d_997_1683" x="115" y="334" width="607" height="363" filterUnits="userSpaceOnUse" color-interpolation-filters="sRGB">
<feFlood flood-opacity="0" result="BackgroundImageFix"/>
<feColorMatrix in="SourceAlpha" type="matrix" values="0 0 0 0 0 0 0 0 0 0 0 0 0 0 0 0 0 0 127 0" result="hardAlpha"/>
<feOffset dy="10"/>
<feGaussianBlur stdDeviation="25"/>
<feComposite in2="hardAlpha" operator="out"/>
<feColorMatrix type="matrix" values="0 0 0 0 0 0 0 0 0 0 0 0 0 0 0 0 0 0 0.08 0"/>
<feBlend mode="normal" in2="BackgroundImageFix" result="effect1_dropShadow_997_1683"/>
<feBlend mode="normal" in="SourceGraphic" in2="effect1_dropShadow_997_1683" result="shape"/>
</filter>
<linearGradient id="paint0_linear_997_1683" x1="357.564" y1="91.8185" x2="357.011" y2="419.999" gradientUnits="userSpaceOnUse">
<stop stop-color="#FFC947"/>
<stop offset="1" stop-color="white" stop-opacity="0"/>
</linearGradient>
<linearGradient id="paint1_linear_997_1683" x1="274" y1="196" x2="274" y2="366" gradientUnits="userSpaceOnUse">
<stop stop-color="#14B082"/>
<stop offset="1" stop-color="#14B082" stop-opacity="0"/>
</linearGradient>
<clipPath id="clip0_997_1683">
<rect width="32" height="32" fill="white" transform="translate(74 454)"/>
</clipPath>
<clipPath id="clip1_997_1683">
<rect width="18" height="18" fill="white" transform="translate(583 455)"/>
</clipPath>
<clipPath id="clip2_997_1683">
<rect width="18" height="18" fill="white" transform="translate(582 497)"/>
</clipPath>
<clipPath id="clip3_997_1683">
<rect width="16" height="16" fill="white" transform="translate(624 498)"/>
</clipPath>
</defs>
</svg>
