<?xml version="1.0" encoding="UTF-8"?> <svg xmlns="http://www.w3.org/2000/svg" width="501" height="120" viewBox="0 0 501 120" fill="none"> <path d="M140.28 39.94C146.48 39.94 151.24 41.04 154.56 43.24C157.88 45.4 159.54 48.96 159.54 53.92C159.54 58.92 157.86 62.54 154.5 64.78C151.14 66.98 146.34 68.08 140.1 68.08H137.16V82H127.8V41.02C129.84 40.62 132 40.34 134.28 40.18C136.56 40.02 138.56 39.94 140.28 39.94ZM140.88 47.92C140.2 47.92 139.52 47.94 138.84 47.98C138.2 48.02 137.64 48.06 137.16 48.1V60.1H140.1C143.34 60.1 145.78 59.66 147.42 58.78C149.06 57.9 149.88 56.26 149.88 53.86C149.88 52.7 149.66 51.74 149.22 50.98C148.82 50.22 148.22 49.62 147.42 49.18C146.66 48.7 145.72 48.38 144.6 48.22C143.48 48.02 142.24 47.92 140.88 47.92ZM184.833 58.36C184.033 58.16 183.093 57.96 182.013 57.76C180.933 57.52 179.773 57.4 178.533 57.4C177.973 57.4 177.293 57.46 176.493 57.58C175.733 57.66 175.153 57.76 174.753 57.88V82H165.813V52.12C167.413 51.56 169.293 51.04 171.453 50.56C173.653 50.04 176.093 49.78 178.773 49.78C179.253 49.78 179.833 49.82 180.513 49.9C181.193 49.94 181.873 50.02 182.553 50.14C183.233 50.22 183.913 50.34 184.593 50.5C185.273 50.62 185.853 50.78 186.333 50.98L184.833 58.36ZM220.06 66.16C220.06 68.64 219.7 70.92 218.98 73C218.26 75.04 217.22 76.8 215.86 78.28C214.5 79.72 212.86 80.84 210.94 81.64C209.06 82.44 206.94 82.84 204.58 82.84C202.26 82.84 200.14 82.44 198.22 81.64C196.34 80.84 194.72 79.72 193.36 78.28C192 76.8 190.94 75.04 190.18 73C189.42 70.92 189.04 68.64 189.04 66.16C189.04 63.68 189.42 61.42 190.18 59.38C190.98 57.34 192.06 55.6 193.42 54.16C194.82 52.72 196.46 51.6 198.34 50.8C200.26 50 202.34 49.6 204.58 49.6C206.86 49.6 208.94 50 210.82 50.8C212.74 51.6 214.38 52.72 215.74 54.16C217.1 55.6 218.16 57.34 218.92 59.38C219.68 61.42 220.06 63.68 220.06 66.16ZM210.94 66.16C210.94 63.4 210.38 61.24 209.26 59.68C208.18 58.08 206.62 57.28 204.58 57.28C202.54 57.28 200.96 58.08 199.84 59.68C198.72 61.24 198.16 63.4 198.16 66.16C198.16 68.92 198.72 71.12 199.84 72.76C200.96 74.36 202.54 75.16 204.58 75.16C206.62 75.16 208.18 74.36 209.26 72.76C210.38 71.12 210.94 68.92 210.94 66.16ZM247.205 66.46C247.205 63.7 246.585 61.5 245.345 59.86C244.105 58.18 242.265 57.34 239.825 57.34C239.025 57.34 238.285 57.38 237.605 57.46C236.925 57.5 236.365 57.56 235.925 57.64V73.78C236.485 74.14 237.205 74.44 238.085 74.68C239.005 74.92 239.925 75.04 240.845 75.04C245.085 75.04 247.205 72.18 247.205 66.46ZM256.325 66.22C256.325 68.66 256.025 70.88 255.425 72.88C254.825 74.88 253.945 76.6 252.785 78.04C251.625 79.48 250.185 80.6 248.465 81.4C246.745 82.2 244.765 82.6 242.525 82.6C241.285 82.6 240.125 82.48 239.045 82.24C237.965 82 236.925 81.66 235.925 81.22V93.1H226.985V51.52C227.785 51.28 228.705 51.06 229.745 50.86C230.785 50.62 231.865 50.42 232.985 50.26C234.145 50.1 235.305 49.98 236.465 49.9C237.665 49.78 238.805 49.72 239.885 49.72C242.485 49.72 244.805 50.12 246.845 50.92C248.885 51.68 250.605 52.78 252.005 54.22C253.405 55.62 254.465 57.34 255.185 59.38C255.945 61.42 256.325 63.7 256.325 66.22ZM261.696 66.46C261.696 63.66 262.116 61.22 262.956 59.14C263.836 57.02 264.976 55.26 266.376 53.86C267.776 52.46 269.376 51.4 271.176 50.68C273.016 49.96 274.896 49.6 276.816 49.6C281.296 49.6 284.836 50.98 287.436 53.74C290.036 56.46 291.336 60.48 291.336 65.8C291.336 66.32 291.316 66.9 291.276 67.54C291.236 68.14 291.196 68.68 291.156 69.16H270.876C271.076 71 271.936 72.46 273.456 73.54C274.976 74.62 277.016 75.16 279.576 75.16C281.216 75.16 282.816 75.02 284.376 74.74C285.976 74.42 287.276 74.04 288.276 73.6L289.476 80.86C288.996 81.1 288.356 81.34 287.556 81.58C286.756 81.82 285.856 82.02 284.856 82.18C283.896 82.38 282.856 82.54 281.736 82.66C280.616 82.78 279.496 82.84 278.376 82.84C275.536 82.84 273.056 82.42 270.936 81.58C268.856 80.74 267.116 79.6 265.716 78.16C264.356 76.68 263.336 74.94 262.656 72.94C262.016 70.94 261.696 68.78 261.696 66.46ZM282.696 63.04C282.656 62.28 282.516 61.54 282.276 60.82C282.076 60.1 281.736 59.46 281.256 58.9C280.816 58.34 280.236 57.88 279.516 57.52C278.836 57.16 277.976 56.98 276.936 56.98C275.936 56.98 275.076 57.16 274.356 57.52C273.636 57.84 273.036 58.28 272.556 58.84C272.076 59.4 271.696 60.06 271.416 60.82C271.176 61.54 270.996 62.28 270.876 63.04H282.696ZM310.835 82.6C308.235 82.56 306.115 82.28 304.475 81.76C302.875 81.24 301.595 80.52 300.635 79.6C299.715 78.64 299.075 77.5 298.715 76.18C298.395 74.82 298.235 73.3 298.235 71.62V36.88L307.175 35.44V69.82C307.175 70.62 307.235 71.34 307.355 71.98C307.475 72.62 307.695 73.16 308.015 73.6C308.375 74.04 308.875 74.4 309.515 74.68C310.155 74.96 311.015 75.14 312.095 75.22L310.835 82.6ZM329.82 82.6C327.22 82.56 325.1 82.28 323.46 81.76C321.86 81.24 320.58 80.52 319.62 79.6C318.7 78.64 318.06 77.5 317.7 76.18C317.38 74.82 317.22 73.3 317.22 71.62V36.88L326.16 35.44V69.82C326.16 70.62 326.22 71.34 326.34 71.98C326.46 72.62 326.68 73.16 327 73.6C327.36 74.04 327.86 74.4 328.5 74.68C329.14 74.96 330 75.14 331.08 75.22L329.82 82.6ZM334.704 66.46C334.704 63.66 335.124 61.22 335.964 59.14C336.844 57.02 337.984 55.26 339.384 53.86C340.784 52.46 342.384 51.4 344.184 50.68C346.024 49.96 347.904 49.6 349.824 49.6C354.304 49.6 357.844 50.98 360.444 53.74C363.044 56.46 364.344 60.48 364.344 65.8C364.344 66.32 364.324 66.9 364.284 67.54C364.244 68.14 364.204 68.68 364.164 69.16H343.884C344.084 71 344.944 72.46 346.464 73.54C347.984 74.62 350.024 75.16 352.584 75.16C354.224 75.16 355.824 75.02 357.384 74.74C358.984 74.42 360.284 74.04 361.284 73.6L362.484 80.86C362.004 81.1 361.364 81.34 360.564 81.58C359.764 81.82 358.864 82.02 357.864 82.18C356.904 82.38 355.864 82.54 354.744 82.66C353.624 82.78 352.504 82.84 351.384 82.84C348.544 82.84 346.064 82.42 343.944 81.58C341.864 80.74 340.124 79.6 338.724 78.16C337.364 76.68 336.344 74.94 335.664 72.94C335.024 70.94 334.704 68.78 334.704 66.46ZM355.704 63.04C355.664 62.28 355.524 61.54 355.284 60.82C355.084 60.1 354.744 59.46 354.264 58.9C353.824 58.34 353.244 57.88 352.524 57.52C351.844 57.16 350.984 56.98 349.944 56.98C348.944 56.98 348.084 57.16 347.364 57.52C346.644 57.84 346.044 58.28 345.564 58.84C345.084 59.4 344.704 60.06 344.424 60.82C344.184 61.54 344.004 62.28 343.884 63.04H355.704ZM390.263 58.36C389.463 58.16 388.523 57.96 387.443 57.76C386.363 57.52 385.203 57.4 383.963 57.4C383.403 57.4 382.723 57.46 381.923 57.58C381.163 57.66 380.583 57.76 380.183 57.88V82H371.243V52.12C372.843 51.56 374.723 51.04 376.883 50.56C379.083 50.04 381.523 49.78 384.203 49.78C384.683 49.78 385.263 49.82 385.943 49.9C386.623 49.94 387.303 50.02 387.983 50.14C388.663 50.22 389.343 50.34 390.023 50.5C390.703 50.62 391.283 50.78 391.763 50.98L390.263 58.36Z" fill="#2E2E2E"></path> <path d="M424.995 82C424.555 80.56 424.055 79.08 423.495 77.56C422.975 76.04 422.455 74.52 421.935 73H405.735C405.215 74.52 404.675 76.04 404.115 77.56C403.595 79.08 403.115 80.56 402.675 82H392.955C394.515 77.52 395.995 73.38 397.395 69.58C398.795 65.78 400.155 62.2 401.475 58.84C402.835 55.48 404.155 52.3 405.435 49.3C406.755 46.26 408.115 43.3 409.515 40.42H418.455C419.815 43.3 421.155 46.26 422.475 49.3C423.795 52.3 425.115 55.48 426.435 58.84C427.795 62.2 429.175 65.78 430.575 69.58C431.975 73.38 433.455 77.52 435.015 82H424.995ZM413.775 49.84C413.575 50.44 413.275 51.26 412.875 52.3C412.475 53.34 412.015 54.54 411.495 55.9C410.975 57.26 410.395 58.76 409.755 60.4C409.155 62.04 408.535 63.76 407.895 65.56H419.715C419.075 63.76 418.455 62.04 417.855 60.4C417.255 58.76 416.675 57.26 416.115 55.9C415.595 54.54 415.135 53.34 414.735 52.3C414.335 51.26 414.015 50.44 413.775 49.84ZM446.773 65.98C446.773 68.74 447.393 70.96 448.633 72.64C449.873 74.32 451.713 75.16 454.153 75.16C454.953 75.16 455.693 75.14 456.373 75.1C457.053 75.02 457.613 74.94 458.053 74.86V58.6C457.493 58.24 456.753 57.94 455.833 57.7C454.953 57.46 454.053 57.34 453.133 57.34C448.893 57.34 446.773 60.22 446.773 65.98ZM466.993 80.98C466.193 81.22 465.273 81.46 464.233 81.7C463.193 81.9 462.093 82.08 460.933 82.24C459.813 82.4 458.653 82.52 457.453 82.6C456.293 82.72 455.173 82.78 454.093 82.78C451.493 82.78 449.173 82.4 447.133 81.64C445.093 80.88 443.373 79.8 441.973 78.4C440.573 76.96 439.493 75.24 438.733 73.24C438.013 71.2 437.653 68.92 437.653 66.4C437.653 63.84 437.973 61.54 438.613 59.5C439.253 57.42 440.173 55.66 441.373 54.22C442.573 52.78 444.033 51.68 445.753 50.92C447.513 50.16 449.513 49.78 451.753 49.78C452.993 49.78 454.093 49.9 455.053 50.14C456.053 50.38 457.053 50.72 458.053 51.16V36.88L466.993 35.44V80.98ZM484.424 75.58C486.064 75.58 487.224 75.42 487.904 75.1C488.584 74.78 488.924 74.16 488.924 73.24C488.924 72.52 488.484 71.9 487.604 71.38C486.724 70.82 485.384 70.2 483.584 69.52C482.184 69 480.904 68.46 479.744 67.9C478.624 67.34 477.664 66.68 476.864 65.92C476.064 65.12 475.444 64.18 475.004 63.1C474.564 62.02 474.344 60.72 474.344 59.2C474.344 56.24 475.444 53.9 477.644 52.18C479.844 50.46 482.864 49.6 486.704 49.6C488.624 49.6 490.464 49.78 492.224 50.14C493.984 50.46 495.384 50.82 496.424 51.22L494.864 58.18C493.824 57.82 492.684 57.5 491.444 57.22C490.244 56.94 488.884 56.8 487.364 56.8C484.564 56.8 483.164 57.58 483.164 59.14C483.164 59.5 483.224 59.82 483.344 60.1C483.464 60.38 483.704 60.66 484.064 60.94C484.424 61.18 484.904 61.46 485.504 61.78C486.144 62.06 486.944 62.38 487.904 62.74C489.864 63.46 491.484 64.18 492.764 64.9C494.044 65.58 495.044 66.34 495.764 67.18C496.524 67.98 497.044 68.88 497.324 69.88C497.644 70.88 497.804 72.04 497.804 73.36C497.804 76.48 496.624 78.84 494.264 80.44C491.944 82.04 488.644 82.84 484.364 82.84C481.564 82.84 479.224 82.6 477.344 82.12C475.504 81.64 474.224 81.24 473.504 80.92L475.004 73.66C476.524 74.26 478.084 74.74 479.684 75.1C481.284 75.42 482.864 75.58 484.424 75.58Z" fill="#F2E500"></path> <path d="M38.5 71.5L9 41.5L12 35L47 66.5L62 59L70.5 60.5L50 82L53 113.5H43.5L38.5 71.5Z" fill="#474746"></path> <path d="M12 35L21.5 30.5L54 69L70.5 60.5L75.5 72.5L53 82.5L57 108.5L53 113.5L46.5 71L12 35Z" fill="#898888"></path> <path d="M47 77L12 23L17 16.5L47 68H81.5L85.5 71L47 77Z" fill="white"></path> <path d="M17 16L34.5 14.5L51.5 71H85.5V84.5L47 78.5L17 16Z" fill="#D8DADD"></path> <path d="M33.5 119.5L26 108L43.5 77L40.5 114.5L33.5 119.5Z" fill="white"></path> <path d="M25.5 119.5L19.5 112L26 108L33.5 119.5H25.5Z" fill="#D8DADD"></path> <path d="M32 0L26 4.5L42 69H34L0 90.5L21 113.5L27 109.5L39 84L104.5 113.5L110.5 109.5L51 74.5L32 0Z" fill="#A9A500"></path> <path d="M56 6L32 0.5L48.5 69H42.5L11.5 90L27 109.5L45 80L110.5 109.5L112.5 86.5L57 70.5L56 6Z" fill="#F2E500"></path> </svg> 