<svg width="56" height="56" viewBox="0 0 56 56" fill="none" xmlns="http://www.w3.org/2000/svg">
<circle opacity="0.1" cx="28" cy="28" r="28" fill="#14B082"/>
<g clip-path="url(#clip0_705_1135)">
<path d="M25.3335 18.6667C25.3335 17.9594 25.6144 17.2811 26.1145 16.781C26.6146 16.281 27.2929 16 28.0002 16C28.7074 16 29.3857 16.281 29.8858 16.781C30.3859 17.2811 30.6668 17.9594 30.6668 18.6667C32.198 19.3907 33.5034 20.5178 34.4429 21.9271C35.3824 23.3364 35.9207 24.9748 36.0002 26.6667V30.6667C36.1005 31.4956 36.3941 32.2894 36.8572 32.9842C37.3204 33.6789 37.9402 34.2552 38.6668 34.6667H17.3335C18.0601 34.2552 18.6799 33.6789 19.1431 32.9842C19.6062 32.2894 19.8998 31.4956 20.0002 30.6667V26.6667C20.0796 24.9748 20.6179 23.3364 21.5574 21.9271C22.497 20.5178 23.8023 19.3907 25.3335 18.6667" stroke="#14B082" stroke-width="2" stroke-linecap="round" stroke-linejoin="round"/>
<path d="M24 34.6667V36.0001C24 37.0609 24.4214 38.0784 25.1716 38.8285C25.9217 39.5787 26.9391 40.0001 28 40.0001C29.0609 40.0001 30.0783 39.5787 30.8284 38.8285C31.5786 38.0784 32 37.0609 32 36.0001V34.6667" stroke="#14B082" stroke-width="2" stroke-linecap="round" stroke-linejoin="round"/>
<path d="M40.0002 20.9693C39.1257 19.067 37.8557 17.3729 36.2749 16" stroke="#14B082" stroke-width="2" stroke-linecap="round" stroke-linejoin="round"/>
<path d="M16 20.9693C16.8738 19.0673 18.1429 17.3732 19.7227 16" stroke="#14B082" stroke-width="2" stroke-linecap="round" stroke-linejoin="round"/>
</g>
<defs>
<clipPath id="clip0_705_1135">
<rect width="32" height="32" fill="white" transform="translate(12 12)"/>
</clipPath>
</defs>
</svg>
