<svg width="40" height="40" viewBox="0 0 40 40" fill="none" xmlns="http://www.w3.org/2000/svg">
                            <g clip-path="url(#clip0_2323_4572)">
                            <path d="M15.125 40.05H25.5C25.669 40.05 25.8381 39.9826 25.9572 39.8635C26.0766 39.7441 26.1449 39.5734 26.1125 39.3709V36.5C26.1125 36.3275 26.0267 36.1592 25.9025 36.035C25.7783 35.9108 25.61 35.825 25.4375 35.825C25.1007 35.825 24.7625 36.0942 24.7625 36.5V38.7H15.8V36.5C15.8 36.3275 15.7142 36.1592 15.59 36.035C15.4658 35.9108 15.2975 35.825 15.125 35.825C14.7882 35.825 14.45 36.0942 14.45 36.5V39.375C14.45 39.7118 14.7192 40.05 15.125 40.05Z" fill="#14B082" stroke="#14B082" stroke-width="0.1"></path>
                            <path d="M12.25 40.05H28.375C28.5475 40.05 28.7158 39.9642 28.84 39.84C28.9642 39.7158 29.05 39.5475 29.05 39.375C29.05 39.0382 28.7808 38.7 28.375 38.7H12.25C12.0775 38.7 11.9092 38.7858 11.785 38.91C11.6608 39.0342 11.575 39.2025 11.575 39.375C11.575 39.7118 11.8442 40.05 12.25 40.05Z" fill="#14B082" stroke="#14B082" stroke-width="0.1"></path>
                            <path d="M1.25 27.8H39.375C39.5475 27.8 39.7158 27.7142 39.84 27.59C39.9642 27.4658 40.05 27.2975 40.05 27.125V8.1875C40.05 6.40989 38.5901 4.95 36.8125 4.95H16.375C16.2025 4.95 16.0342 5.03575 15.91 5.15996C15.7858 5.28416 15.7 5.45249 15.7 5.625C15.7 5.96181 15.9692 6.3 16.375 6.3H36.8125C37.8474 6.3 38.7 7.15261 38.7 8.1875V26.3875H1.925V14.5C1.925 14.3275 1.83925 14.1592 1.71504 14.035C1.59084 13.9108 1.42251 13.825 1.25 13.825C0.913191 13.825 0.575 14.0942 0.575 14.5V27.125C0.575 27.4618 0.844193 27.8 1.25 27.8Z" fill="#14B082" stroke="#14B082" stroke-width="0.1"></path>
                            <path d="M3.75 34.6125H36.8125C38.5901 34.6125 40.05 33.1526 40.05 31.375V27.0625C40.05 26.7257 39.7808 26.3875 39.375 26.3875H1.25C0.913191 26.3875 0.575 26.6567 0.575 27.0625V31.375C0.575 33.1513 1.9711 34.6125 3.75 34.6125ZM1.925 31.375V27.8H38.7625V31.375C38.7625 32.4099 37.9099 33.2625 36.875 33.2625H3.8125C2.77761 33.2625 1.925 32.4099 1.925 31.375Z" fill="#14B082" stroke="#14B082" stroke-width="0.1"></path>
                            <path d="M18.3875 30.5625C18.3875 31.589 19.2213 32.4875 20.3125 32.4875C21.4037 32.4875 22.2375 31.589 22.2375 30.5625C22.2375 29.536 21.4037 28.6375 20.3125 28.6375C19.286 28.6375 18.3875 29.4713 18.3875 30.5625ZM19.7375 30.5C19.7375 30.2118 19.9683 29.925 20.3125 29.925C20.4525 29.925 20.5967 29.9955 20.7068 30.1057C20.817 30.2158 20.8875 30.36 20.8875 30.5C20.8875 30.7882 20.6567 31.075 20.3125 31.075C20.0243 31.075 19.7375 30.8442 19.7375 30.5Z" fill="#14B082" stroke="#14B082" stroke-width="0.1"></path>
                            <mask id="path-6-outside-1_2323_4572" maskUnits="userSpaceOnUse" x="-1" y="-1" width="17" height="17" fill="black">
                            <rect fill="white" x="-1" y="-1" width="17" height="17"></rect>
                            <path d="M7.75 14.9375H7.0625C6.4375 14.9375 5.875 14.4375 5.75 13.8125L5.5625 12.75C5.375 12.625 5.1875 12.5625 5 12.5L4.125 13.125C3.5625 13.5 2.8125 13.4375 2.375 13L1.9375 12.5C1.5 12.0625 1.4375 11.3125 1.8125 10.8125L2.4375 9.9375C2.375 9.75 2.3125 9.5625 2.25 9.375L1.125 9.1875C0.5 9.0625 0 8.5 0 7.875V7.125C0 6.5 0.5 5.9375 1.125 5.8125L2.1875 5.625L2.25 5.5625C2.3125 5.375 2.375 5.25 2.4375 5.0625L1.8125 4.125C1.4375 3.5625 1.5 2.875 1.9375 2.4375L2.4375 1.9375C2.875 1.5 3.625 1.4375 4.1875 1.8125L5.0625 2.4375C5.25 2.375 5.4375 2.3125 5.625 2.25L5.8125 1.125C5.9375 0.5 6.5 0 7.125 0H7.8125C8.4375 0 9 0.5 9.125 1.125L9.3125 2.1875L9.375 2.25C9.5625 2.3125 9.6875 2.375 9.875 2.4375L10.8125 1.8125C11.3125 1.4375 12.125 1.5 12.5625 1.9375L13.0625 2.4375C13.5 2.875 13.5625 3.625 13.1875 4.125L12.5625 5C12.625 5.1875 12.6875 5.375 12.75 5.5625L13.875 5.75C14.5 5.875 15 6.4375 15 7.0625V7.8125C15 8.5 14.5 9 13.875 9.125L12.8125 9.3125C12.6875 9.5 12.625 9.6875 12.5625 9.875L13.1875 10.8125C13.5625 11.3125 13.5 12.0625 13.0625 12.5L12.5625 13C12.125 13.4375 11.3125 13.5 10.8125 13.125L9.9375 12.5C9.75 12.5625 9.5625 12.625 9.375 12.6875L9.1875 13.8125C9 14.5 8.4375 14.9375 7.75 14.9375ZM5.0625 11.25C5.25 11.25 5.4375 11.3125 5.625 11.375C5.75 11.4375 5.875 11.5 6 11.5625C6.4375 11.75 6.75 12.125 6.875 12.625L7.0625 13.6875L7.8125 13.75C7.8125 13.75 7.875 13.75 7.875 13.6875L8.0625 12.625C8.125 12.125 8.4375 11.75 8.9375 11.5625C9.0625 11.5 9.1875 11.4375 9.3125 11.4375C9.75 11.1875 10.3125 11.25 10.6875 11.5625L11.5625 12.1875H11.625L12.125 11.6875V11.625L11.5 10.75C11.1875 10.375 11.1875 9.875 11.375 9.375C11.4375 9.25 11.5 9.125 11.5625 9C11.75 8.5625 12.125 8.1875 12.625 8.125L13.625 7.9375L13.6875 7.875V7.125L13.625 7.0625L12.4375 6.875C11.9375 6.8125 11.5625 6.5 11.375 6C11.375 5.875 11.3125 5.75 11.25 5.625C11.0625 5.1875 11.0625 4.625 11.375 4.25L12 3.375V3.3125L11.5 2.8125H11.4375L10.5625 3.4375C10.1875 3.75 9.625 3.75 9.1875 3.5625C9.0625 3.5 8.9375 3.4375 8.8125 3.375C8.375 3.1875 8.0625 2.8125 7.9375 2.3125L7.75 1.25H7.0625C7.0625 1.25 7 1.25 7 1.3125L6.8125 2.375C6.75 2.875 6.4375 3.25 5.9375 3.4375C5.875 3.5 5.75 3.5 5.625 3.5625C5.1875 3.8125 4.625 3.75 4.25 3.4375L3.375 2.8125H3.3125L2.8125 3.3125V3.375L3.4375 4.25C3.75 4.6875 3.8125 5.1875 3.5625 5.625C3.5 5.75 3.4375 5.875 3.4375 6C3.25 6.4375 2.875 6.8125 2.375 6.875L1.3125 7.0625L1.25 7.125V7.875L1.3125 7.9375L2.375 8.125C2.875 8.1875 3.25 8.5 3.4375 9L3.625 9.375C3.8125 9.8125 3.8125 10.375 3.5 10.75L2.875 11.625V11.6875L3.375 12.1875L3.75 12.625L3.375 12.125L4.25 11.5C4.5 11.3125 4.75 11.25 5.0625 11.25Z"></path>
                            </mask>
                            <path d="M7.75 14.9375H7.0625C6.4375 14.9375 5.875 14.4375 5.75 13.8125L5.5625 12.75C5.375 12.625 5.1875 12.5625 5 12.5L4.125 13.125C3.5625 13.5 2.8125 13.4375 2.375 13L1.9375 12.5C1.5 12.0625 1.4375 11.3125 1.8125 10.8125L2.4375 9.9375C2.375 9.75 2.3125 9.5625 2.25 9.375L1.125 9.1875C0.5 9.0625 0 8.5 0 7.875V7.125C0 6.5 0.5 5.9375 1.125 5.8125L2.1875 5.625L2.25 5.5625C2.3125 5.375 2.375 5.25 2.4375 5.0625L1.8125 4.125C1.4375 3.5625 1.5 2.875 1.9375 2.4375L2.4375 1.9375C2.875 1.5 3.625 1.4375 4.1875 1.8125L5.0625 2.4375C5.25 2.375 5.4375 2.3125 5.625 2.25L5.8125 1.125C5.9375 0.5 6.5 0 7.125 0H7.8125C8.4375 0 9 0.5 9.125 1.125L9.3125 2.1875L9.375 2.25C9.5625 2.3125 9.6875 2.375 9.875 2.4375L10.8125 1.8125C11.3125 1.4375 12.125 1.5 12.5625 1.9375L13.0625 2.4375C13.5 2.875 13.5625 3.625 13.1875 4.125L12.5625 5C12.625 5.1875 12.6875 5.375 12.75 5.5625L13.875 5.75C14.5 5.875 15 6.4375 15 7.0625V7.8125C15 8.5 14.5 9 13.875 9.125L12.8125 9.3125C12.6875 9.5 12.625 9.6875 12.5625 9.875L13.1875 10.8125C13.5625 11.3125 13.5 12.0625 13.0625 12.5L12.5625 13C12.125 13.4375 11.3125 13.5 10.8125 13.125L9.9375 12.5C9.75 12.5625 9.5625 12.625 9.375 12.6875L9.1875 13.8125C9 14.5 8.4375 14.9375 7.75 14.9375ZM5.0625 11.25C5.25 11.25 5.4375 11.3125 5.625 11.375C5.75 11.4375 5.875 11.5 6 11.5625C6.4375 11.75 6.75 12.125 6.875 12.625L7.0625 13.6875L7.8125 13.75C7.8125 13.75 7.875 13.75 7.875 13.6875L8.0625 12.625C8.125 12.125 8.4375 11.75 8.9375 11.5625C9.0625 11.5 9.1875 11.4375 9.3125 11.4375C9.75 11.1875 10.3125 11.25 10.6875 11.5625L11.5625 12.1875H11.625L12.125 11.6875V11.625L11.5 10.75C11.1875 10.375 11.1875 9.875 11.375 9.375C11.4375 9.25 11.5 9.125 11.5625 9C11.75 8.5625 12.125 8.1875 12.625 8.125L13.625 7.9375L13.6875 7.875V7.125L13.625 7.0625L12.4375 6.875C11.9375 6.8125 11.5625 6.5 11.375 6C11.375 5.875 11.3125 5.75 11.25 5.625C11.0625 5.1875 11.0625 4.625 11.375 4.25L12 3.375V3.3125L11.5 2.8125H11.4375L10.5625 3.4375C10.1875 3.75 9.625 3.75 9.1875 3.5625C9.0625 3.5 8.9375 3.4375 8.8125 3.375C8.375 3.1875 8.0625 2.8125 7.9375 2.3125L7.75 1.25H7.0625C7.0625 1.25 7 1.25 7 1.3125L6.8125 2.375C6.75 2.875 6.4375 3.25 5.9375 3.4375C5.875 3.5 5.75 3.5 5.625 3.5625C5.1875 3.8125 4.625 3.75 4.25 3.4375L3.375 2.8125H3.3125L2.8125 3.3125V3.375L3.4375 4.25C3.75 4.6875 3.8125 5.1875 3.5625 5.625C3.5 5.75 3.4375 5.875 3.4375 6C3.25 6.4375 2.875 6.8125 2.375 6.875L1.3125 7.0625L1.25 7.125V7.875L1.3125 7.9375L2.375 8.125C2.875 8.1875 3.25 8.5 3.4375 9L3.625 9.375C3.8125 9.8125 3.8125 10.375 3.5 10.75L2.875 11.625V11.6875L3.375 12.1875L3.75 12.625L3.375 12.125L4.25 11.5C4.5 11.3125 4.75 11.25 5.0625 11.25Z" fill="#14B082"></path>
                            <path d="M7.75 14.9375H7.0625C6.4375 14.9375 5.875 14.4375 5.75 13.8125L5.5625 12.75C5.375 12.625 5.1875 12.5625 5 12.5L4.125 13.125C3.5625 13.5 2.8125 13.4375 2.375 13L1.9375 12.5C1.5 12.0625 1.4375 11.3125 1.8125 10.8125L2.4375 9.9375C2.375 9.75 2.3125 9.5625 2.25 9.375L1.125 9.1875C0.5 9.0625 0 8.5 0 7.875V7.125C0 6.5 0.5 5.9375 1.125 5.8125L2.1875 5.625L2.25 5.5625C2.3125 5.375 2.375 5.25 2.4375 5.0625L1.8125 4.125C1.4375 3.5625 1.5 2.875 1.9375 2.4375L2.4375 1.9375C2.875 1.5 3.625 1.4375 4.1875 1.8125L5.0625 2.4375C5.25 2.375 5.4375 2.3125 5.625 2.25L5.8125 1.125C5.9375 0.5 6.5 0 7.125 0H7.8125C8.4375 0 9 0.5 9.125 1.125L9.3125 2.1875L9.375 2.25C9.5625 2.3125 9.6875 2.375 9.875 2.4375L10.8125 1.8125C11.3125 1.4375 12.125 1.5 12.5625 1.9375L13.0625 2.4375C13.5 2.875 13.5625 3.625 13.1875 4.125L12.5625 5C12.625 5.1875 12.6875 5.375 12.75 5.5625L13.875 5.75C14.5 5.875 15 6.4375 15 7.0625V7.8125C15 8.5 14.5 9 13.875 9.125L12.8125 9.3125C12.6875 9.5 12.625 9.6875 12.5625 9.875L13.1875 10.8125C13.5625 11.3125 13.5 12.0625 13.0625 12.5L12.5625 13C12.125 13.4375 11.3125 13.5 10.8125 13.125L9.9375 12.5C9.75 12.5625 9.5625 12.625 9.375 12.6875L9.1875 13.8125C9 14.5 8.4375 14.9375 7.75 14.9375ZM5.0625 11.25C5.25 11.25 5.4375 11.3125 5.625 11.375C5.75 11.4375 5.875 11.5 6 11.5625C6.4375 11.75 6.75 12.125 6.875 12.625L7.0625 13.6875L7.8125 13.75C7.8125 13.75 7.875 13.75 7.875 13.6875L8.0625 12.625C8.125 12.125 8.4375 11.75 8.9375 11.5625C9.0625 11.5 9.1875 11.4375 9.3125 11.4375C9.75 11.1875 10.3125 11.25 10.6875 11.5625L11.5625 12.1875H11.625L12.125 11.6875V11.625L11.5 10.75C11.1875 10.375 11.1875 9.875 11.375 9.375C11.4375 9.25 11.5 9.125 11.5625 9C11.75 8.5625 12.125 8.1875 12.625 8.125L13.625 7.9375L13.6875 7.875V7.125L13.625 7.0625L12.4375 6.875C11.9375 6.8125 11.5625 6.5 11.375 6C11.375 5.875 11.3125 5.75 11.25 5.625C11.0625 5.1875 11.0625 4.625 11.375 4.25L12 3.375V3.3125L11.5 2.8125H11.4375L10.5625 3.4375C10.1875 3.75 9.625 3.75 9.1875 3.5625C9.0625 3.5 8.9375 3.4375 8.8125 3.375C8.375 3.1875 8.0625 2.8125 7.9375 2.3125L7.75 1.25H7.0625C7.0625 1.25 7 1.25 7 1.3125L6.8125 2.375C6.75 2.875 6.4375 3.25 5.9375 3.4375C5.875 3.5 5.75 3.5 5.625 3.5625C5.1875 3.8125 4.625 3.75 4.25 3.4375L3.375 2.8125H3.3125L2.8125 3.3125V3.375L3.4375 4.25C3.75 4.6875 3.8125 5.1875 3.5625 5.625C3.5 5.75 3.4375 5.875 3.4375 6C3.25 6.4375 2.875 6.8125 2.375 6.875L1.3125 7.0625L1.25 7.125V7.875L1.3125 7.9375L2.375 8.125C2.875 8.1875 3.25 8.5 3.4375 9L3.625 9.375C3.8125 9.8125 3.8125 10.375 3.5 10.75L2.875 11.625V11.6875L3.375 12.1875L3.75 12.625L3.375 12.125L4.25 11.5C4.5 11.3125 4.75 11.25 5.0625 11.25Z" stroke="#14B082" stroke-width="0.2" mask="url(#path-6-outside-1_2323_4572)"></path>
                            <path d="M4.2 7.5C4.2 9.27826 5.59804 10.675 7.4375 10.675C9.21314 10.675 10.675 9.34204 10.675 7.5C10.675 5.65989 9.27761 4.2625 7.4375 4.2625C5.59675 4.2625 4.2 5.72303 4.2 7.5ZM5.55 7.5C5.55 6.46511 6.40261 5.6125 7.4375 5.6125C8.40792 5.6125 9.26317 6.46333 9.325 7.50147C9.32419 8.53569 8.4719 9.3875 7.4375 9.3875C6.40261 9.3875 5.55 8.53489 5.55 7.5Z" fill="#14B082" stroke="#14B082" stroke-width="0.1"></path>
                            </g>
                            <defs>
                            <clipPath id="clip0_2323_4572">
                            <rect width="40" height="40" fill="white"></rect>
                            </clipPath>
                            </defs>
                        </svg>