<svg width="41" height="40" viewBox="0 0 41 40" fill="none" xmlns="http://www.w3.org/2000/svg">
<g clip-path="url(#clip0_2323_4598)">
<path d="M20.4131 37.5756L20.4615 37.6024L20.51 37.5756L29.9091 32.365C34.7215 29.6972 37.7109 24.6219 37.7109 19.1196V2.34375V2.24375H37.6109H3.3125H3.2125V2.34375V19.1196C3.2125 24.6219 6.20189 29.6972 11.014 32.365L20.4131 37.5756ZM2.14062 0.1H38.7828C39.3745 0.1 39.8546 0.579841 39.8543 1.17183V19.1196C39.8543 25.4007 36.4418 31.1945 30.9483 34.2399L20.9813 39.7654C20.8196 39.8551 20.6404 39.9 20.4615 39.9C20.2827 39.9 20.1034 39.8551 19.9418 39.7654L9.97476 34.2399C4.48134 31.1945 1.06875 25.4007 1.06875 19.1196V1.17188C1.06875 0.579826 1.54858 0.1 2.14062 0.1Z" fill="#14B082" stroke="white" stroke-width="0.2"/>
<path d="M7.28367 13.3423C7.05814 12.795 7.31909 12.1686 7.86647 11.9431L7.86651 11.943C8.41388 11.7178 9.04025 11.9788 9.2658 12.5262C9.2658 12.5262 9.2658 12.5262 9.2658 12.5262L11.1704 17.1508L11.2629 17.3753L11.3553 17.1508L13.2599 12.5262L13.2599 12.5262C13.4852 11.9788 14.1116 11.7175 14.6592 11.943C15.2066 12.1686 15.4673 12.795 15.242 13.3424L12.2541 20.5982C12.2541 20.5982 12.2541 20.5982 12.2541 20.5982C12.0885 20.9999 11.6972 21.262 11.2629 21.262C10.8286 21.262 10.4372 20.9999 10.2717 20.5982C10.2716 20.5982 10.2716 20.5982 10.2716 20.5982L7.28368 13.3424L7.28367 13.3423Z" fill="#14B082" stroke="white" stroke-width="0.2"/>
<path d="M18.6455 17.6341H18.5455V17.7341V20.1902C18.5455 20.7822 18.0657 21.2621 17.4736 21.2621C16.8816 21.2621 16.4018 20.7822 16.4018 20.1902V12.9343C16.4018 12.3423 16.8816 11.8625 17.4736 11.8625H21.6359C23.2271 11.8625 24.5218 13.1571 24.5218 14.7483C24.5218 16.3395 23.2271 17.6341 21.6359 17.6341H18.6455ZM18.6455 14.0062H18.5455V14.1062V15.3904V15.4904H18.6455H21.6359C22.0452 15.4904 22.378 15.1575 22.378 14.7483C22.378 14.3391 22.0452 14.0062 21.6359 14.0062H18.6455Z" fill="#14B082" stroke="white" stroke-width="0.2"/>
<path d="M26.6719 21.362C27.3192 21.362 27.8438 20.8374 27.8438 20.1901V16.2002L31.7436 20.935C31.9706 21.2106 32.3048 21.362 32.6484 21.362C32.7806 21.362 32.9146 21.3397 33.0439 21.2933C33.5096 21.1261 33.8203 20.6848 33.8203 20.1901V12.9342C33.8203 12.2869 33.2954 11.7624 32.6484 11.7624C32.0012 11.7624 31.4766 12.2869 31.4766 12.9342V16.9241L27.5767 12.1893C27.2624 11.8075 26.7418 11.6641 26.2764 11.831C25.8107 11.9983 25.5 12.4395 25.5 12.9342V20.1901C25.5 20.8374 26.0249 21.362 26.6719 21.362Z" fill="#14B082"/>
</g>
<defs>
<clipPath id="clip0_2323_4598">
<rect width="40" height="40" fill="white" transform="translate(0.5)"/>
</clipPath>
</defs>
</svg>
